<?xml version="1.0" encoding="UTF-8"?>
<!DOCTYPE svg PUBLIC "-//W3C//DTD SVG 1.1//EN" "http://www.w3.org/Graphics/SVG/1.1/DTD/svg11.dtd">
<!-- Creator: CorelDRAW -->
<svg xmlns="http://www.w3.org/2000/svg" xml:space="preserve" width="100px" height="100px" version="1.1" style="shape-rendering:geometricPrecision; text-rendering:geometricPrecision; image-rendering:optimizeQuality; fill-rule:evenodd; clip-rule:evenodd"
viewBox="0 0 3.12 3.12"
 xmlns:xlink="http://www.w3.org/1999/xlink"
 xmlns:xodm="http://www.corel.com/coreldraw/odm/2003">
 <defs>
  <style type="text/css">
   <![CDATA[
    .fil0 {fill:black}
   ]]>
  </style>
 </defs>
 <g id="Layer_x0020_1">
  <metadata id="CorelCorpID_0Corel-Layer"/>
  <path class="fil0" d="M1.56 0c0.86,0 1.56,0.7 1.56,1.56 0,0.86 -0.7,1.56 -1.56,1.56l0 0 -0.01 0 0 -0.43 0 0.43c-0.86,-0.01 -1.55,-0.7 -1.55,-1.56 0,-0.86 0.7,-1.56 1.56,-1.56zm-0.01 2.69l0.03 0 0.05 0 0 -0.27 0.11 0 0 -0.03 0.14 -0.19 0.43 -0.3 0 0.18 0.16 0 0 -0.11 0.06 0c0.05,0 0.09,-0.01 0.13,-0.04 0.03,-0.03 0.04,-0.07 0.04,-0.11 0,-0.05 -0.01,-0.08 -0.04,-0.11 -0.04,-0.03 -0.08,-0.04 -0.13,-0.04l-0.14 0 -0.07 -0.1 0.08 -0.12c0.03,0.01 0.07,0.02 0.11,0.02 0.06,0 0.11,-0.02 0.15,-0.05 0.04,-0.04 0.06,-0.08 0.06,-0.14l0 -0.23 -0.16 0 0 0.23c0,0.02 0,0.03 -0.01,0.04 -0.02,0.01 -0.03,0.02 -0.04,0.02 -0.02,0 -0.03,-0.01 -0.04,-0.02 -0.01,-0.01 -0.02,-0.02 -0.02,-0.04l0 -0.23 -0.16 0 0 0.12 -0.09 0.01 -0.34 -0.22 -0.11 -0.15c0.01,-0.01 0.01,-0.02 0.02,-0.02 0,0 0,-0.01 0,-0.01l-0.09 -0.09 -0.01 0.01c-0.01,0 -0.02,0.01 -0.04,0.02 -0.01,0 -0.03,0.01 -0.05,0.01 -0.02,0 -0.05,-0.01 -0.06,-0.03 -0.02,-0.01 -0.03,-0.03 -0.03,-0.05 0,-0.03 0.01,-0.05 0.03,-0.06 0.01,-0.02 0.04,-0.03 0.06,-0.03 0.02,0 0.04,0.01 0.05,0.01 0.02,0.01 0.03,0.02 0.03,0.02 0.01,0.01 0.01,0.01 0.02,0.01l0.09 -0.09 0 -0.01c-0.01,0 -0.02,-0.01 -0.03,-0.02 -0.01,-0.01 -0.02,-0.01 -0.04,-0.02 -0.01,-0.01 -0.03,-0.02 -0.05,-0.02 -0.03,-0.01 -0.05,-0.01 -0.07,-0.01 -0.08,0 -0.13,0.02 -0.18,0.06 -0.05,0.05 -0.08,0.1 -0.08,0.16 0,0.04 0.02,0.09 0.05,0.12l-0.12 0.18 -0.35 0.24 -0.12 -0.02c0,-0.03 -0.02,-0.06 -0.05,-0.08 -0.03,-0.02 -0.07,-0.03 -0.12,-0.03l-0.21 0 0 0.41 0.22 0c0.04,0 0.08,-0.01 0.11,-0.02l0.08 0.13 -0.06 0.07 -0.08 0 0 0.24c0,0.01 -0.01,0.03 -0.02,0.04 -0.01,0.01 -0.02,0.01 -0.04,0.01 -0.01,0 -0.02,0 -0.04,-0.01 -0.01,-0.01 -0.01,-0.03 -0.01,-0.04l0 -0.24 -0.16 0 0 0.24c0,0.05 0.02,0.1 0.06,0.13 0.04,0.04 0.09,0.06 0.15,0.06 0.07,0 0.12,-0.02 0.16,-0.06 0.04,-0.03 0.06,-0.07 0.06,-0.12l0.4 0.3 0.13 0.19 0 0.03 0.11 0 0 0.27 0.08 0zm0.92 -0.89l0.04 0c0.01,0 0.02,0 0.02,0 0.01,0.01 0.01,0.01 0.01,0.02 0,0.01 0,0.01 -0.01,0.02 0,0 -0.01,0 -0.02,0l-0.04 0 0 -0.04zm-0.16 -0.24l-0.06 -0.08 0.1 -0.07c0,0 0,0.01 0,0.01 0.01,0.01 0.03,0.02 0.04,0.03l-0.08 0.11zm0 0.24l-0.14 -0.02 0.07 -0.09 0.07 0.04 0 0.07 0 0zm-0.15 -0.02l-0.26 -0.04 0.17 -0.13 0.16 0.08 -0.07 0.09zm-0.53 -0.07l0.24 0.04 -0.24 0.17 0 -0.21zm0 -0.01l0 -0.03 -0.16 0 0 0.04 -0.24 0.03 -0.17 -0.13 0.27 -0.14 0.16 0 0 -0.1 0.03 -0.03 0.08 0.13 0.18 0 -0.01 0 0.29 0.14 -0.18 0.13 -0.25 -0.04zm-0.16 0.22l-0.22 -0.17 0.22 -0.03 0 0.2zm-0.64 -0.2l0.06 -0.03 0.06 0.1 -0.12 0.01 0 -0.08zm0.07 -0.03l0.15 -0.08 0.17 0.14 -0.26 0.03 -0.06 -0.09zm-0.11 -0.38c0,-0.01 -0.01,-0.01 -0.02,-0.02l0.14 -0.09 0.15 0.02 -0.18 0.25 -0.09 -0.07c0.01,-0.01 0.01,-0.03 0.01,-0.05 0,-0.01 0,-0.02 -0.01,-0.04zm0.28 -0.08l0.25 0.04 0 0.19 -0.27 0.14 -0.16 -0.12 0.18 -0.25zm-0.03 0.38l-0.15 0.07 -0.07 -0.1 0.06 -0.09 0.16 0.12zm1.3 -0.21l-0.1 0.07 -0.19 -0.26 0.15 -0.02 0.09 0.06 0 0.03c0,0.05 0.02,0.09 0.05,0.12zm-0.1 0.08l-0.17 0.12 -0.31 -0.15 -0.11 -0.18 0.39 -0.06 0.2 0.27zm-0.16 0.13l0.16 -0.12 0.07 0.08 -0.08 0.11 -0.15 -0.07zm0.21 -0.43l0 0.06 -0.08 -0.05 0.08 -0.01zm-0.11 0l-0.14 0.02 -0.16 -0.21 0.3 0.19zm-0.44 -0.37l0.09 0.13 -0.15 -0.1c0.01,0 0.02,0 0.02,-0.01 0.02,0 0.03,-0.01 0.04,-0.02zm-0.16 0.05c0.02,0 0.05,0 0.07,-0.01 0,0 0.01,0 0.02,0l0.18 0.12 0.18 0.23 -0.39 0.06 -0.02 -0.03 0.14 -0.17 -0.17 0 -0.1 0.12 0 -0.12 -0.17 0 0 0.2 -0.24 -0.04 0.18 -0.27 0.18 -0.12c0.04,0.02 0.09,0.03 0.14,0.03zm-0.2 -0.08c0.01,0.01 0.01,0.01 0.02,0.02 0.01,0.01 0.02,0.02 0.03,0.02l-0.15 0.11 0.1 -0.15zm-0.15 0.19l-0.17 0.24 -0.14 -0.02 0.31 -0.22zm-0.67 0.2l0.02 0c0.01,0 0.02,0 0.02,0.01 0.01,0 0.01,0.01 0.01,0.01 0,0.01 0,0.01 -0.01,0.02 0,0 -0.01,0 -0.02,0l-0.02 0 0 -0.04zm0.06 0.18c0,0.01 -0.01,0.01 -0.02,0.01l-0.04 0 0 -0.05 0.04 0c0.01,0 0.02,0.01 0.02,0.01 0.01,0.01 0.01,0.01 0.01,0.02 0,0 0,0.01 -0.01,0.01zm0.1 -0.1c0,0 0.01,0 0.01,-0.01 0.01,0 0.02,-0.01 0.02,-0.02 0.01,0 0.02,-0.01 0.02,-0.02 0.01,-0.01 0.01,-0.01 0.01,-0.02l0.11 0.02 -0.13 0.08c0,0 -0.01,-0.01 -0.02,-0.01 -0.01,-0.01 -0.02,-0.01 -0.02,-0.01 0,0 -0.01,-0.01 -0.01,-0.01l0.01 0zm0.02 0.2c0,-0.01 0.01,-0.01 0.01,-0.01 0.02,-0.01 0.03,-0.02 0.03,-0.03l0.1 0.07 -0.06 0.09 -0.08 -0.12zm0.08 0.14l0.06 0.09 -0.05 0.03 0 -0.05 -0.06 0 0.05 -0.07zm0.01 0.3l0 -0.08 0.13 -0.02 0.25 0.38 -0.38 -0.28zm0.43 0.33l0.1 0.07 0 0.08 -0.1 -0.15zm0.1 0.06l-0.12 -0.09 -0.27 -0.4 0.26 -0.03 0.24 0.18 0 0 0 0.14 0.16 0 0 -0.14 0.26 -0.19 0.26 0.04 -0.28 0.4 -0.13 0.09 -0.38 0zm0.38 0.09l0 -0.08 0.12 -0.07 -0.12 0.15zm0.16 -0.2l0.27 -0.38 0.14 0.02 0 0.08 -0.41 0.28zm0.48 -0.5l-0.07 0 0 0.04 -0.07 -0.03 0.07 -0.1 0.07 0.09z"/>
 </g>
</svg>
