<?xml version="1.0" encoding="UTF-8"?>
<!DOCTYPE svg PUBLIC "-//W3C//DTD SVG 1.1//EN" "http://www.w3.org/Graphics/SVG/1.1/DTD/svg11.dtd">
<!-- Creator: CorelDRAW -->
<svg xmlns="http://www.w3.org/2000/svg" xml:space="preserve" width="100px" height="100px" version="1.1" style="shape-rendering:geometricPrecision; text-rendering:geometricPrecision; image-rendering:optimizeQuality; fill-rule:evenodd; clip-rule:evenodd"
viewBox="0 0 5.43 5.43"
 xmlns:xlink="http://www.w3.org/1999/xlink"
 xmlns:xodm="http://www.corel.com/coreldraw/odm/2003">
 <defs>
  <style type="text/css">
   <![CDATA[
    .str0 {stroke:black;stroke-width:0.54;stroke-linecap:round;stroke-linejoin:round;stroke-miterlimit:22.9256}
    .fil0 {fill:none}
   ]]>
  </style>
 </defs>
 <g id="Layer_x0020_1">
  <metadata id="CorelCorpID_0Corel-Layer"/>
  <rect class="fil0" width="5.43" height="5.43"/>
  <path class="fil0 str0" d="M0.84 1.77l2.28 0c0.19,0 0.35,0.16 0.35,0.35l0 2.49c0,0.2 -0.16,0.36 -0.35,0.36l-2.28 0c-0.19,0 -0.35,-0.16 -0.35,-0.36l0 -2.49c0,-0.19 0.16,-0.35 0.35,-0.35z"/>
  <path class="fil0 str0" d="M1.97 1.77l0 -0.96c0,-0.19 0.16,-0.35 0.36,-0.35l2.27 0c0.2,0 0.36,0.16 0.36,0.35l0 2.49c0,0.2 -0.16,0.36 -0.36,0.36l-1.13 0"/>
 </g>
</svg>
