<?xml version="1.0" encoding="UTF-8"?>
<!DOCTYPE svg PUBLIC "-//W3C//DTD SVG 1.1//EN" "http://www.w3.org/Graphics/SVG/1.1/DTD/svg11.dtd">
<!-- Creator: CorelDRAW -->
<svg xmlns="http://www.w3.org/2000/svg" xml:space="preserve" width="100px" height="100px" version="1.1" style="shape-rendering:geometricPrecision; text-rendering:geometricPrecision; image-rendering:optimizeQuality; fill-rule:evenodd; clip-rule:evenodd"
viewBox="0 0 4.29 4.29"
 xmlns:xlink="http://www.w3.org/1999/xlink"
 xmlns:xodm="http://www.corel.com/coreldraw/odm/2003">
 <defs>
  <style type="text/css">
   <![CDATA[
    .fil0 {fill:none}
    .fil1 {fill:black}
   ]]>
  </style>
 </defs>
 <g id="Layer_x0020_1">
  <metadata id="CorelCorpID_0Corel-Layer"/>
  <rect class="fil0" transform="matrix(2.64845E-14 -1 1 2.64845E-14 -2.53226E-05 4.288)" width="4.29" height="4.29"/>
  <path class="fil1" d="M1.58 3.23l0 -1.45c0,-0.1 0.08,-0.19 0.19,-0.19l0 0c0.1,0 0.18,0.09 0.18,0.19l0 1.45c0,0.1 -0.08,0.18 -0.18,0.18l0 0c-0.11,0 -0.19,-0.08 -0.19,-0.18zm0.77 0l0 -1.45c0,-0.1 0.08,-0.19 0.18,-0.19l0 0c0.11,0 0.19,0.09 0.19,0.19l0 1.45c0,0.1 -0.08,0.18 -0.19,0.18l0 0c-0.1,0 -0.18,-0.08 -0.18,-0.18zm-1.6 0.4l0 -2.51 -0.24 0c-0.1,0 -0.18,-0.09 -0.18,-0.19 0,-0.1 0.08,-0.18 0.18,-0.18l0.62 0c0,-0.17 0.07,-0.32 0.18,-0.43l0 -0.01c0.11,-0.11 0.26,-0.17 0.43,-0.17l0.83 0c0.17,0 0.32,0.06 0.43,0.17l0 0.01c0.11,0.11 0.18,0.26 0.18,0.43l0.59 0c0.11,0 0.19,0.08 0.19,0.18 0,0.1 -0.08,0.19 -0.19,0.19l-0.24 0 0 2.51c0,0.29 -0.24,0.52 -0.52,0.52l-1.73 0c-0.29,0 -0.53,-0.23 -0.53,-0.52zm0.74 -2.88l1.33 0c0,-0.07 -0.02,-0.14 -0.07,-0.18 -0.05,-0.05 -0.11,-0.08 -0.18,-0.08l-0.83 0c-0.07,0 -0.13,0.03 -0.18,0.08 -0.04,0.04 -0.07,0.11 -0.07,0.18z"/>
 </g>
</svg>
