<?xml version="1.0" encoding="UTF-8"?>
<!DOCTYPE svg PUBLIC "-//W3C//DTD SVG 1.1//EN" "http://www.w3.org/Graphics/SVG/1.1/DTD/svg11.dtd">
<!-- Creator: CorelDRAW -->
<svg xmlns="http://www.w3.org/2000/svg" xml:space="preserve" width="100px" height="100px" version="1.1" style="shape-rendering:geometricPrecision; text-rendering:geometricPrecision; image-rendering:optimizeQuality; fill-rule:evenodd; clip-rule:evenodd"
viewBox="0 0 4.29 4.29"
 xmlns:xlink="http://www.w3.org/1999/xlink"
 xmlns:xodm="http://www.corel.com/coreldraw/odm/2003">
 <defs>
  <style type="text/css">
   <![CDATA[
    .fil0 {fill:none}
    .fil1 {fill:black;fill-rule:nonzero}
   ]]>
  </style>
 </defs>
 <g id="Layer_x0020_1">
  <metadata id="CorelCorpID_0Corel-Layer"/>
  <rect class="fil0" width="4.29" height="4.29"/>
  <path class="fil1" d="M3.05 1.03c-0.11,-0.1 -0.13,-0.26 -0.04,-0.38 0.1,-0.11 0.26,-0.13 0.38,-0.04 0.23,0.19 0.41,0.43 0.54,0.69 0.12,0.26 0.19,0.55 0.19,0.84 0,0.55 -0.22,1.04 -0.58,1.4 -0.36,0.36 -0.85,0.58 -1.4,0.58 -0.54,0 -1.03,-0.22 -1.39,-0.58 -0.36,-0.36 -0.58,-0.85 -0.58,-1.4 0,-0.29 0.07,-0.58 0.19,-0.85 0.13,-0.26 0.31,-0.5 0.55,-0.68 0.11,-0.09 0.28,-0.08 0.37,0.04 0.09,0.11 0.08,0.28 -0.04,0.37 -0.17,0.14 -0.3,0.31 -0.39,0.5 -0.09,0.19 -0.14,0.4 -0.14,0.62 0,0.4 0.16,0.76 0.42,1.02 0.26,0.26 0.62,0.42 1.01,0.42 0.4,0 0.76,-0.16 1.02,-0.42 0.26,-0.26 0.42,-0.62 0.42,-1.02 0,-0.21 -0.05,-0.42 -0.14,-0.61 -0.09,-0.2 -0.22,-0.37 -0.39,-0.5z"/>
  <path class="fil1" d="M2.41 2.33c0,0.14 -0.12,0.26 -0.27,0.26 -0.14,0 -0.26,-0.12 -0.26,-0.26l0 -1.89c0,-0.15 0.12,-0.27 0.26,-0.27 0.15,0 0.27,0.12 0.27,0.27l0 1.89z"/>
 </g>
</svg>
