<?xml version="1.0" encoding="UTF-8"?>
<!DOCTYPE svg PUBLIC "-//W3C//DTD SVG 1.1//EN" "http://www.w3.org/Graphics/SVG/1.1/DTD/svg11.dtd">
<!-- Creator: CorelDRAW -->
<svg xmlns="http://www.w3.org/2000/svg" xml:space="preserve" width="100px" height="100px" version="1.1" style="shape-rendering:geometricPrecision; text-rendering:geometricPrecision; image-rendering:optimizeQuality; fill-rule:evenodd; clip-rule:evenodd"
viewBox="0 0 4.29 4.29"
 xmlns:xlink="http://www.w3.org/1999/xlink"
 xmlns:xodm="http://www.corel.com/coreldraw/odm/2003">
 <defs>
  <style type="text/css">
   <![CDATA[
    .fil0 {fill:none}
    .fil1 {fill:black;fill-rule:nonzero}
   ]]>
  </style>
 </defs>
 <g id="Layer_x0020_1">
  <metadata id="CorelCorpID_0Corel-Layer"/>
  <rect class="fil0" transform="matrix(2.64845E-14 -1 1 2.64845E-14 -2.53226E-05 4.288)" width="4.29" height="4.29"/>
  <path class="fil1" d="M0.46 0.88l0.62 0.62 -0.21 0.21 1.04 0.2 -0.19 -1.05 -0.21 0.21 -0.63 -0.62 -0.42 0.43zm0.31 0.31m0.21 0.41m0.41 0.21m0.43 -0.43m-0.21 -0.41m-0.42 -0.21m-0.52 -0.1"/>
  <path class="fil1" d="M3.84 0.88l-0.62 0.62 0.21 0.21 -1.04 0.2 0.2 -1.05 0.21 0.21 0.62 -0.62 0.42 0.43zm-0.31 0.31m-0.21 0.41m-0.41 0.21m-0.42 -0.43m0.2 -0.41m0.42 -0.21m0.52 -0.1"/>
  <path class="fil1" d="M0.46 3.44l0.62 -0.62 -0.21 -0.21 1.04 -0.2 -0.19 1.04 -0.21 -0.21 -0.63 0.62 -0.42 -0.42zm0.31 -0.31m0.21 -0.42m0.41 -0.2m0.43 0.42m-0.21 0.41m-0.42 0.21m-0.52 0.1"/>
  <path class="fil1" d="M3.84 3.44l-0.62 -0.62 0.21 -0.21 -1.04 -0.2 0.2 1.04 0.21 -0.21 0.62 0.62 0.42 -0.42zm-0.31 -0.31m-0.21 -0.42m-0.41 -0.2m-0.42 0.42m0.2 0.41m0.42 0.21m0.52 0.1"/>
 </g>
</svg>
