<?xml version="1.0" encoding="UTF-8"?>
<!DOCTYPE svg PUBLIC "-//W3C//DTD SVG 1.1//EN" "http://www.w3.org/Graphics/SVG/1.1/DTD/svg11.dtd">
<!-- Creator: CorelDRAW -->
<svg xmlns="http://www.w3.org/2000/svg" xml:space="preserve" width="100px" height="100px" version="1.1" style="shape-rendering:geometricPrecision; text-rendering:geometricPrecision; image-rendering:optimizeQuality; fill-rule:evenodd; clip-rule:evenodd"
viewBox="0 0 4.29 4.29"
 xmlns:xlink="http://www.w3.org/1999/xlink"
 xmlns:xodm="http://www.corel.com/coreldraw/odm/2003">
 <defs>
  <style type="text/css">
   <![CDATA[
    .fil0 {fill:none}
    .fil1 {fill:black}
   ]]>
  </style>
 </defs>
 <g id="Layer_x0020_1">
  <metadata id="CorelCorpID_0Corel-Layer"/>
  <rect class="fil0" transform="matrix(2.64845E-14 -1 1 2.64845E-14 -2.53226E-05 4.288)" width="4.29" height="4.29"/>
  <path class="fil1" d="M2.59 3.88c0.03,0.01 0.07,0.02 0.1,0.02 0.08,0 0.15,-0.02 0.21,-0.06l0.3 -0.17c0.11,-0.06 0.18,-0.16 0.21,-0.28 0.04,-0.11 0.02,-0.24 -0.04,-0.34 -0.05,-0.09 -0.07,-0.17 -0.04,-0.22 0.03,-0.05 0.11,-0.08 0.21,-0.08 0.25,0 0.45,-0.2 0.45,-0.45l0 -0.31c0,-0.25 -0.2,-0.45 -0.45,-0.45 -0.1,0 -0.18,-0.03 -0.21,-0.08 -0.03,-0.05 -0.01,-0.13 0.04,-0.22 0.06,-0.1 0.07,-0.22 0.04,-0.34 -0.03,-0.12 -0.11,-0.22 -0.21,-0.28l-0.3 -0.17c-0.19,-0.12 -0.45,-0.05 -0.57,0.15l-0.01 0.03c-0.11,0.18 -0.24,0.18 -0.35,0l-0.02 -0.03c-0.11,-0.2 -0.37,-0.27 -0.56,-0.15l-0.3 0.17c-0.11,0.06 -0.18,0.16 -0.22,0.28 -0.03,0.11 -0.01,0.24 0.05,0.34 0.05,0.09 0.06,0.17 0.03,0.22 -0.03,0.05 -0.1,0.08 -0.2,0.08 -0.25,0 -0.46,0.2 -0.46,0.45l0 0.3c0,0.26 0.21,0.46 0.46,0.46 0.1,0 0.17,0.03 0.2,0.08 0.03,0.05 0.02,0.13 -0.03,0.22 -0.06,0.1 -0.08,0.22 -0.05,0.34 0.04,0.12 0.11,0.22 0.22,0.28l0.29 0.17c0.1,0.06 0.21,0.07 0.32,0.04 0.11,-0.03 0.19,-0.09 0.25,-0.19l0.02 -0.03c0.1,-0.18 0.24,-0.18 0.34,0l0.02 0.03c0.06,0.1 0.15,0.16 0.26,0.19zm-0.45 -2.25c0.29,0 0.52,0.23 0.52,0.51 0,0.29 -0.23,0.52 -0.52,0.52 -0.28,0 -0.51,-0.23 -0.51,-0.52 0,-0.28 0.23,-0.51 0.51,-0.51z"/>
 </g>
</svg>
