<?xml version="1.0" encoding="UTF-8"?>
<!DOCTYPE svg PUBLIC "-//W3C//DTD SVG 1.1//EN" "http://www.w3.org/Graphics/SVG/1.1/DTD/svg11.dtd">
<!-- Creator: CorelDRAW -->
<svg xmlns="http://www.w3.org/2000/svg" xml:space="preserve" width="100px" height="100px" version="1.1" style="shape-rendering:geometricPrecision; text-rendering:geometricPrecision; image-rendering:optimizeQuality; fill-rule:evenodd; clip-rule:evenodd"
viewBox="0 0 4.29 4.29"
 xmlns:xlink="http://www.w3.org/1999/xlink"
 xmlns:xodm="http://www.corel.com/coreldraw/odm/2003">
 <defs>
  <style type="text/css">
   <![CDATA[
    .fil0 {fill:none}
    .fil1 {fill:black}
   ]]>
  </style>
 </defs>
 <g id="Layer_x0020_1">
  <metadata id="CorelCorpID_0Corel-Layer"/>
  <rect class="fil0" transform="matrix(2.64845E-14 -1 1 2.64845E-14 -2.53226E-05 4.288)" width="4.29" height="4.29"/>
  <circle class="fil1" cx="2.12" cy="1.28" r="0.69"/>
  <path class="fil1" d="M2.12 2.45c0.13,0 0.25,0.01 0.37,0.02 -0.16,0.18 -0.25,0.41 -0.25,0.66 0,0.27 0.11,0.52 0.28,0.7l-2 0 0 -0.6c0,-0.43 0.72,-0.78 1.6,-0.78z"/>
  <path class="fil1" d="M3.3 2.44c0.38,0 0.69,0.31 0.69,0.69 0,0.38 -0.31,0.69 -0.69,0.69 -0.38,0 -0.69,-0.31 -0.69,-0.69 0,-0.38 0.31,-0.69 0.69,-0.69z"/>
 </g>
</svg>
