<?xml version="1.0" encoding="utf-8"?>
<svg version="1.1" xmlns="http://www.w3.org/2000/svg" xmlns:xlink="http://www.w3.org/1999/xlink">

  <svg id="add" viewBox="0 0 16 16" xmlns="http://www.w3.org/2000/svg">
    <path d="M12.6668 8.66634H8.66683V12.6663H7.3335V8.66634H3.3335V7.33301H7.3335V3.33301H8.66683V7.33301H12.6668V8.66634Z" />
  </svg> 

  <svg id="attach" viewBox="0 0 24 24" fill="none" xmlns="http://www.w3.org/2000/svg">
    <g clip-path="url(#clip0_827_452)">
      <path d="M19.4358 10.5861L11.3604 18.7178C9.80853 20.2805 7.29462 20.2805 5.74274 18.7178C4.19086 17.1551 4.19086 14.6236 5.74274 13.0609L14.5204 4.22209C15.4894 3.24629 17.0624 3.24629 18.0314 4.2221C19.0005 5.1979 19.0005 6.78182 18.0314 7.75763L10.6582 15.1823C10.272 15.5712 9.64351 15.5747 9.25379 15.1822C8.86406 14.7898 8.86757 14.1569 9.25379 13.768L15.9248 7.05052L14.8715 5.98986L8.20047 12.7074C7.23142 13.6832 7.23142 15.2671 8.20047 16.2429C9.16952 17.2187 10.7425 17.2187 11.7115 16.2429L19.0847 8.81829C20.6366 7.25558 20.6366 4.72414 19.0847 3.16143C17.5328 1.59873 15.0189 1.59873 13.467 3.16143L4.68943 12.0003C2.55471 14.1499 2.55822 17.6324 4.68943 19.7784C6.82063 21.9245 10.279 21.928 12.4137 19.7784L20.4891 11.6467L19.4358 10.5861Z" fill="#A09BA1"/>
    </g>
    <defs>
      <clipPath id="clip0_827_452">
        <rect />
      </clipPath>
    </defs>
  </svg>

  <svg id="alertInfo" viewBox="0 0 16 16" xmlns="http://www.w3.org/2000/svg">
    <path fill-rule="evenodd" clip-rule="evenodd" d="M7.99951 1C4.13551 1 0.999512 4.136 0.999512 8C0.999512 11.864 4.13551 15 7.99951 15C11.8635 15 14.9995 11.864 14.9995 8C14.9995 4.136 11.8635 1 7.99951 1ZM8.99951 4V6H6.99951V4L8.99951 4ZM8.99951 12L8.99951 7H6.99951L6.99951 12H8.99951Z" fill-opacity="0.9"/>
  </svg>

  <svg id="alert" viewBox="0 0 16 16" xmlns="http://www.w3.org/2000/svg">
    <path fill-rule="evenodd" clip-rule="evenodd" d="M7.99951 1C4.13551 1 0.999512 4.136 0.999512 8C0.999512 11.864 4.13551 15 7.99951 15C11.8635 15 14.9995 11.864 14.9995 8C14.9995 4.136 11.8635 1 7.99951 1ZM6.99951 12V10H8.99951V12H6.99951ZM6.99951 4V9H8.99951V4H6.99951Z" fill-opacity="0.9"/>
  </svg>

  <svg id="archive" width="16" height="16" viewBox="0 0 16 16" xmlns="http://www.w3.org/2000/svg">
    <path d="M13.6967 3.48333L12.7733 2.36333C12.5867 2.14333 12.31 2 12 2H4C3.69 2 3.41333 2.14333 3.23 2.36333L2.30667 3.48333C2.11333 3.71667 2 4.01 2 4.33333V12.6667C2 13.4033 2.59667 14 3.33333 14H12.6667C13.4033 14 14 13.4033 14 12.6667V4.33333C14 4.01 13.8867 3.71667 13.6967 3.48333ZM8 11.6667L4.33333 8H6.66667V6.66667H9.33333V8H11.6667L8 11.6667ZM3.41667 3.33333L3.96 2.66667H11.96L12.5833 3.33333H3.41667V3.33333Z"/>
  </svg>

  <svg id="arrowLeft" width="16" height="16" viewBox="0 0 16 16" xmlns="http://www.w3.org/2000/svg">
    <path fill-rule="evenodd" clip-rule="evenodd" d="M2.16121 8.49979L16.0005 8.49979V7.49979L2.19454 7.49979L5.35331 4.35408L4.64767 3.64551L0.614334 7.66218L0.25855 8.01649L0.614363 8.37077L4.6477 12.3868L5.35328 11.6781L2.16121 8.49979Z"/>
  </svg>

  <svg id="arrowBack" viewBox="0 0 16 16" xmlns="http://www.w3.org/2000/svg">
    <path d="M10.4717 5.13865L7.41501 8.19531L10.4717 11.252L9.52835 12.1953L5.52835 8.19531L9.52835 4.19531L10.4717 5.13865Z"/>
  </svg>

  <svg id="arrowRight" width="16" height="16" viewBox="0 0 16 16" xmlns="http://www.w3.org/2000/svg">
    <g clip-path="url(#clip0_150_38331)">
      <path d="M6 11.0567L9.05667 8L6 4.94333L6.94333 4L10.9433 8L6.94333 12L6 11.0567Z"/>
    </g>
    <defs>
      <clipPath id="clip0_150_38331">
        <rect width="16" height="16"/>
      </clipPath>
    </defs>
  </svg>

  <svg id="arrowUp" width="16" height="16" viewBox="0 0 16 16" xmlns="http://www.w3.org/2000/svg">
    <g clip-path="url(#clip0_150_38325)">
      <path d="M4.94333 11L8 7.94333L11.0567 11L12 10.0567L8 6.05667L4 10.0567L4.94333 11Z"/>
    </g>
    <defs>
      <clipPath id="clip0_150_38325">
        <rect width="16" height="16" />
      </clipPath>
    </defs>
  </svg>

  <svg id="delete" width="17" height="16" viewBox="0 0 17 16" xmlns="http://www.w3.org/2000/svg">
    <path d="M4.11182 5H12.1118V12C12.1118 13.1046 11.2164 14 10.1118 14H6.11182C5.00725 14 4.11182 13.1046 4.11182 12V5Z" />
    <path d="M3.11182 3.5C3.11182 3.22386 3.33567 3 3.61182 3H4.77848H5.61182H8.11182H10.6118H11.4451H12.6118C12.888 3 13.1118 3.22386 13.1118 3.5V3.5C13.1118 3.77614 12.888 4 12.6118 4H3.61182C3.33567 4 3.11182 3.77614 3.11182 3.5V3.5Z"/>
    <rect x="6.11182" y="2" width="4" height="2" rx="1"/>
  </svg>

  <svg id="check" width="16" height="16" viewBox="0 0 16 16" xmlns="http://www.w3.org/2000/svg">
    <path d="M2.11182 7.25L5.86182 11L14.1118 2" />
  </svg>


  <svg id="close" viewBox="0 0 17 16"  xmlns="http://www.w3.org/2000/svg">
    <path fill-rule="evenodd" clip-rule="evenodd" d="M3.68897 2.75781L13.4653 12.5342L12.7582 13.2413L2.98186 3.46492L3.68897 2.75781Z"/>
    <path fill-rule="evenodd" clip-rule="evenodd" d="M2.98193 12.5342L12.7583 2.75781L13.4654 3.46492L3.68904 13.2413L2.98193 12.5342Z"/>
  </svg>

  <svg id="edit" viewBox="0 0 16 16" xmlns="http://www.w3.org/2000/svg">
    <path d="M2 11.5003V14.0003H4.5L11.8767 6.62362L9.37667 4.12362L2 11.5003ZM13.8033 4.69695C14.0633 4.43695 14.0633 4.01362 13.8033 3.75362L12.2467 2.19695C11.9867 1.93695 11.5633 1.93695 11.3033 2.19695L10.0833 3.41695L12.5833 5.91695L13.8033 4.69695Z"/>
  </svg>

  <svg id="arrowDown" width="16" height="16" viewBox="0 0 16 16"  xmlns="http://www.w3.org/2000/svg">
    <g clip-path="url(#clip0_150_38322)">
      <path d="M4.94333 5.47363L8 8.5303L11.0567 5.47363L12 6.41697L8 10.417L4 6.41697L4.94333 5.47363Z" />
    </g>
    <defs>
      <clipPath id="clip0_150_38322">
        <rect width="16" height="16"/>
      </clipPath>
    </defs>
  </svg>

  <svg id="logout" viewBox="0 0 16 16" xmlns="http://www.w3.org/2000/svg">
    <path d="M8.6665 2.33301H7.33317V8.99968H8.6665V2.33301ZM11.0432 3.95634L10.0798 4.91967C11.2298 5.62301 11.9998 6.88634 11.9998 8.33301C11.9998 10.543 10.2098 12.333 7.99984 12.333C5.78984 12.333 3.99984 10.543 3.99984 8.33301C3.99984 6.88634 4.76984 5.62301 5.91984 4.91967L4.9565 3.95634C3.57317 4.91967 2.6665 6.51967 2.6665 8.33301C2.6665 11.2797 5.05317 13.6663 7.99984 13.6663C10.9465 13.6663 13.3332 11.2797 13.3332 8.33301C13.3332 6.51967 12.4265 4.91967 11.0432 3.95634Z"/>
  </svg>

  <svg id="logo" viewBox="0 0 202 210"  xmlns="http://www.w3.org/2000/svg">
    <path d="M174.229 94.9178C176.831 96.1687 179.834 96.7691 183.186 96.7691C188.69 96.7691 193.244 95.118 196.746 91.8156C200.249 88.5132 202 84.3603 202 79.3567V57.5411H187.839V79.3567C187.839 80.7077 187.389 81.8585 186.438 82.8092C185.488 83.7598 184.437 84.2602 183.186 84.2602C181.935 84.2602 180.884 83.7598 179.934 82.8092C178.983 81.8585 178.533 80.7077 178.533 79.3567V57.5411H164.372V68.599L156.366 69.7999L127.244 49.5354L117.137 35.0751C118.088 34.3245 118.688 33.7741 118.938 33.4239C119.239 33.0736 119.489 32.8235 119.639 32.5733L111.183 23.9171L110.182 24.8678C109.581 25.4682 108.581 26.1187 107.23 26.7691C105.879 27.4196 104.478 27.7198 102.976 27.7198C100.675 27.7198 98.7733 26.9693 97.1722 25.4682C95.571 23.9671 94.8204 22.1658 94.8204 20.1144C94.8204 18.0629 95.621 16.2616 97.1722 14.7605C98.7733 13.2595 100.675 12.5089 102.976 12.5089C104.428 12.5089 105.879 12.8592 107.28 13.5597C108.681 14.2602 109.631 14.8606 110.082 15.2609C110.532 15.7112 110.882 16.0615 111.133 16.3117L119.589 7.60543L118.938 6.8549C118.488 6.3045 117.787 5.70408 116.837 4.95354C115.836 4.203 114.735 3.45247 113.434 2.70193C112.183 1.95139 110.532 1.30093 108.581 0.800572C106.629 0.250179 104.578 0 102.426 0C96.2215 0 91.0676 2.00143 86.8645 5.95425C82.7114 9.90708 80.6099 14.6605 80.6099 20.1644C80.6099 24.6676 82.0109 28.6705 84.813 32.123L74.3052 48.1344L44.0327 70.3503L33.2747 68.4489C33.2247 65.747 31.9237 63.4453 29.4218 61.4939C26.8199 59.5425 23.2172 58.5418 18.5638 58.5418H0V96.6691H19.6146C23.3173 96.6691 26.3696 96.0686 28.8214 94.9178L36.0268 106.426L31.1731 113.781H23.4174V135.597C23.4174 136.948 22.9671 138.099 22.0163 139.049C21.0656 140 20.0149 140.5 18.7639 140.5C17.513 140.5 16.4622 140 15.5115 139.049C14.5608 138.099 14.1105 136.948 14.1105 135.597V113.781H0V135.597C0 140.55 1.7513 144.703 5.2539 148.056C8.7565 151.358 13.2598 153.059 18.814 153.059C24.3181 153.059 28.8714 151.408 32.374 148.106C35.6265 145.054 37.3277 141.301 37.5779 136.798L72.4538 164.467L83.2618 181.68V184.932H93.0691V210H107.23V184.932H117.037V182.48L128.946 164.217L165.973 136.548V153.059H180.134V143.252H184.787C189.491 143.252 193.243 141.951 196.046 139.3C198.898 136.648 200.299 133.245 200.299 129.092C200.299 124.939 198.898 121.537 196.046 118.885C193.193 116.233 189.441 114.932 184.787 114.932H172.928L166.824 106.226L174.229 94.9178ZM180.184 126.891H183.736C184.387 126.891 184.987 127.141 185.438 127.591C185.938 128.041 186.188 128.542 186.188 129.092C186.188 129.643 185.938 130.143 185.438 130.593C184.937 131.044 184.387 131.294 183.736 131.294H180.184V126.891ZM166.223 105.275L160.97 97.7699L169.176 91.3152C169.326 91.4653 169.476 91.6155 169.626 91.7656C170.727 92.8163 171.978 93.7169 173.279 94.4174L166.223 105.275ZM166.023 127.441L154.164 125.59L159.669 117.134L165.973 120.386V127.441H166.023ZM153.064 125.44L130.347 121.887L145.558 109.878L158.768 116.683L153.064 125.44ZM107.23 119.335L127.895 122.538L107.23 138.799V119.335ZM107.23 118.285V114.882H93.0691V118.985L72.704 122.087L57.4427 109.528L81.0102 96.7691H94.7203V87.7627L97.1722 84.5104L104.227 96.7691H119.739L119.639 96.619L144.507 109.428L128.896 121.737L107.23 118.285ZM93.0691 138.849L73.7548 122.938L93.0691 119.986V138.849ZM37.5779 120.286L42.8818 117.434L48.1858 125.89L37.5779 127.491V120.286V120.286ZM43.7825 116.934L56.492 110.029L71.353 122.287L49.2866 125.64L43.7825 116.934ZM34.3255 82.1587C33.8752 81.208 33.3748 80.4575 32.8244 79.8571L44.2829 71.451L57.4927 73.7527L42.2314 96.9693L34.0253 90.2144C34.7758 88.8635 35.1261 87.4124 35.1261 85.8113C35.1261 84.5604 34.8759 83.3095 34.3255 82.1587ZM58.5435 73.9528L80.5598 77.8056V95.8685L56.6421 108.828L43.032 97.6197L58.5435 73.9528ZM55.6413 109.328L43.2321 116.033L37.1776 106.426L42.4315 98.4203L55.6413 109.328ZM168.475 90.5647L160.369 96.9192L143.457 72.7019L156.116 70.8006L164.372 76.5547V79.3067C164.372 83.7098 165.773 87.4625 168.475 90.5647ZM159.619 97.5697L145.458 108.728L118.688 94.9678L108.531 77.9557L142.356 72.9021L159.619 97.5697ZM146.459 109.228L160.219 98.4203L165.673 106.226L159.368 115.883L146.459 109.228ZM164.372 69.5997V75.3538L157.567 70.6004L164.372 69.5997ZM154.915 69.95L142.806 71.7513L128.896 51.8871L154.915 69.95ZM116.336 35.6755L124.843 47.8342L111.433 38.5275C112.183 38.2273 112.884 37.9271 113.434 37.6269C114.485 37.0265 115.436 36.376 116.336 35.6755ZM102.476 40.2287C104.628 40.2287 106.679 39.9786 108.631 39.4282C109.181 39.2781 109.731 39.128 110.232 38.9278L126.494 50.2359L141.655 71.9514L107.93 77.005L106.379 74.4032L118.638 58.5919H103.377L94.6703 70.05V58.5919H80.5098V76.7548L59.1439 73.0022L75.0557 48.7348L90.7674 37.1766C94.1699 39.228 98.0728 40.2287 102.476 40.2287ZM85.5135 32.8235C85.9638 33.3238 86.4142 33.8242 86.9145 34.2745C87.8152 35.1251 88.816 35.9257 89.8167 36.6262L76.6069 46.3331L85.5135 32.8235ZM72.754 50.4861L58.0431 72.852L45.3837 70.6505L72.754 50.4861ZM14.1605 68.9993H16.3622C17.0126 68.9993 17.563 69.1994 17.9633 69.5497C18.3636 69.8999 18.5638 70.3503 18.5638 70.9006C18.5638 71.451 18.3636 71.9014 17.9633 72.2516C17.563 72.6019 17.0126 72.802 16.3622 72.802H14.1605V68.9993V68.9993ZM19.7146 85.7112C19.2143 86.1616 18.6639 86.4117 18.0134 86.4117H14.2106V82.0586H18.0134C18.6639 82.0586 19.2643 82.3088 19.7146 82.7591C20.215 83.2094 20.4652 83.7098 20.4652 84.2602C20.4152 84.7606 20.165 85.2609 19.7146 85.7112ZM27.9207 76.3045C28.321 76.1044 28.8214 75.8542 29.3718 75.4039C29.9723 75.0036 30.5227 74.5032 31.1231 73.9028C31.7236 73.3524 32.2239 72.6019 32.6242 71.6512C32.9244 70.9507 33.1246 70.2502 33.2247 69.4997L42.8818 71.2009L32.0238 79.2066C31.4233 78.7062 30.7228 78.2559 29.9723 77.8556C29.0716 77.3553 28.4211 77.055 28.0708 76.9049C27.7206 76.7548 27.4204 76.6548 27.2202 76.6047L27.9207 76.3045ZM29.7221 94.5175C30.2224 94.2173 30.6728 93.9171 31.1231 93.6169C32.1239 92.8663 32.9244 92.0157 33.5249 91.1151L41.681 97.8199L36.6272 105.475L29.7221 94.5175ZM36.5772 107.377L42.3314 116.533L37.5779 119.135V113.831H32.374L36.5772 107.377ZM37.5779 135.497V128.492L48.7862 126.791L70.8526 161.916L37.5779 135.497ZM74.8056 166.319L83.2618 173.024V179.778L74.8056 166.319ZM83.4119 171.873L73.2044 163.767L49.887 126.59L72.4538 123.138L92.969 140.05L93.0691 139.9V153.009H107.23V140.05L129.246 122.688L152.463 126.29L128.195 163.517L117.037 171.873H83.4119ZM117.037 180.629V173.124L126.594 165.969L117.037 180.629ZM130.597 161.766L153.564 126.54L166.023 128.492V135.297L130.597 161.766ZM171.728 114.882H166.023V119.235L160.269 116.283L166.273 107.076L171.728 114.882Z"/>
  </svg>

  <svg id="menu" viewBox="0 0 16 16" xmlns="http://www.w3.org/2000/svg">
    <circle cx="8.5" cy="2.5" r="1.5"/>
    <circle cx="8.5" cy="7.5" r="1.5"/>
    <circle cx="8.5" cy="12.5" r="1.5"/>
  </svg>

  <svg id="message" width="16" height="16" viewBox="0 0 16 16"  xmlns="http://www.w3.org/2000/svg">
    <path fill-rule="evenodd" clip-rule="evenodd" d="M13 1H3C1.89543 1 1 1.89543 1 3V14.9818C1 15.3971 1.47705 15.6314 1.80571 15.3775L4.19315 13.5328C4.54335 13.2622 4.97342 13.1154 5.41598 13.1154H13C14.1046 13.1154 15 12.22 15 11.1154V3C15 1.89543 14.1046 1 13 1ZM5 6.5C5 6.22386 5.22386 6 5.5 6H10.5C10.7761 6 11 6.22386 11 6.5C11 6.77614 10.7761 7 10.5 7H5.5C5.22386 7 5 6.77614 5 6.5ZM5.5 8C5.22386 8 5 8.22386 5 8.5C5 8.77614 5.22386 9 5.5 9H8.5C8.77614 9 9 8.77614 9 8.5C9 8.22386 8.77614 8 8.5 8H5.5Z"/>
  </svg>

  <svg id="qrcode" width="16" height="16" viewBox="0 0 16 16"  xmlns="http://www.w3.org/2000/svg">
    <path d="M8.5332 3.2002H10.6665V5.33353H8.5332V3.2002Z"/>
    <path d="M10.6665 5.33301H12.7998V7.46634H10.6665V5.33301Z"/>
    <path fill-rule="evenodd" clip-rule="evenodd" d="M11.7332 9.59987H9.59987V11.7332H11.7332V9.59987ZM8.5332 8.5332V12.7999H12.7999V8.5332H8.5332Z"/>
    <path fill-rule="evenodd" clip-rule="evenodd" d="M6.39971 4.26686H4.26637V6.4002H6.39971V4.26686ZM3.19971 3.2002V7.46686H7.46637V3.2002H3.19971Z"/>
    <path fill-rule="evenodd" clip-rule="evenodd" d="M0.533203 0.533203H4.5332V1.59987H1.59987V4.5332H0.533203V0.533203ZM14.3999 1.59987H11.4665V0.533203H15.4665V4.5332H14.3999V1.59987ZM1.59987 14.3999V11.4665H0.533203V15.4665H4.5332V14.3999H1.59987ZM14.3999 14.3999V11.4665H15.4665V15.4665H11.4665V14.3999H14.3999Z"/>
    <path fill-rule="evenodd" clip-rule="evenodd" d="M6.39971 9.59987H4.26637V11.7332H6.39971V9.59987ZM3.19971 8.5332V12.7999H7.46637V8.5332H3.19971Z"/>
  </svg>

  <svg id="privateRoom" width="16" height="16" viewBox="0 0 16 16" xmlns="http://www.w3.org/2000/svg">
    <path d="M11.9998 5.33366H11.3332V4.00033C11.3332 2.16033 9.83984 0.666992 7.99984 0.666992C6.15984 0.666992 4.6665 2.16033 4.6665 4.00033V5.33366H3.99984C3.26317 5.33366 2.6665 5.93033 2.6665 6.66699V13.3337C2.6665 14.0703 3.26317 14.667 3.99984 14.667H11.9998C12.7365 14.667 13.3332 14.0703 13.3332 13.3337V6.66699C13.3332 5.93033 12.7365 5.33366 11.9998 5.33366ZM7.99984 11.3337C7.26317 11.3337 6.6665 10.737 6.6665 10.0003C6.6665 9.26366 7.26317 8.66699 7.99984 8.66699C8.7365 8.66699 9.33317 9.26366 9.33317 10.0003C9.33317 10.737 8.7365 11.3337 7.99984 11.3337ZM10.0665 5.33366H5.93317V4.00033C5.93317 2.86033 6.85984 1.93366 7.99984 1.93366C9.13984 1.93366 10.0665 2.86033 10.0665 4.00033V5.33366Z"/>
  </svg>

  <svg id="search" width="16" height="16" viewBox="0 0 16 16"  xmlns="http://www.w3.org/2000/svg">
    <path d="M11.4351 10.0629H10.7078L10.4563 9.81132C11.3528 8.77301 11.8925 7.42367 11.8925 5.94625C11.8925 2.66209 9.23042 0 5.94625 0C2.66209 0 0 2.66209 0 5.94625C0 9.23042 2.66209 11.8925 5.94625 11.8925C7.42367 11.8925 8.77301 11.3528 9.81132 10.4608L10.0629 10.7124V11.4351L14.6369 16L16 14.6369L11.4351 10.0629ZM5.94625 10.0629C3.67296 10.0629 1.82962 8.21955 1.82962 5.94625C1.82962 3.67296 3.67296 1.82962 5.94625 1.82962C8.21955 1.82962 10.0629 3.67296 10.0629 5.94625C10.0629 8.21955 8.21955 10.0629 5.94625 10.0629Z"/>
  </svg>

  <svg id="send" viewBox="0 0 17 16"  xmlns="http://www.w3.org/2000/svg">
    <path d="M1.45198 14L15.4453 8L1.45198 2L1.44531 6.66667L11.4453 8L1.44531 9.33333L1.45198 14Z"/>
  </svg>

  <svg id="settings" width="16" height="16" viewBox="0 0 16 16"  xmlns="http://www.w3.org/2000/svg">
    <path d="M12.9532 8.64967C12.9799 8.43634 12.9999 8.21967 12.9999 7.99967C12.9999 7.77967 12.9799 7.56301 12.9532 7.34967L14.3632 6.24634C14.4899 6.14634 14.5266 5.96634 14.4432 5.81967L13.1099 3.50967C13.0266 3.36634 12.8532 3.30634 12.7032 3.36634L11.0432 4.03634C10.6999 3.77301 10.3232 3.54967 9.91655 3.37967L9.66655 1.61301C9.63655 1.45634 9.49989 1.33301 9.33322 1.33301H6.66655C6.49989 1.33301 6.36322 1.45634 6.33655 1.61301L6.08655 3.37967C5.67989 3.54967 5.30322 3.76967 4.95989 4.03634L3.29989 3.36634C3.14989 3.30967 2.97655 3.36634 2.89322 3.50967L1.55989 5.81967C1.47655 5.96301 1.51322 6.14301 1.63989 6.24634L3.04655 7.34967C3.01989 7.56301 2.99989 7.77967 2.99989 7.99967C2.99989 8.21967 3.01989 8.43634 3.04655 8.64967L1.63989 9.75301C1.51322 9.85301 1.47655 10.033 1.55989 10.1797L2.89322 12.4897C2.97655 12.633 3.14989 12.693 3.29989 12.633L4.95989 11.963C5.30322 12.2263 5.67989 12.4497 6.08655 12.6197L6.33655 14.3863C6.36322 14.543 6.49989 14.6663 6.66655 14.6663H9.33322C9.49989 14.6663 9.63655 14.543 9.66322 14.3863L9.91322 12.6197C10.3199 12.4497 10.6966 12.2297 11.0399 11.963L12.6999 12.633C12.8499 12.6897 13.0232 12.633 13.1066 12.4897L14.4399 10.1797C14.5232 10.0363 14.4866 9.85634 14.3599 9.75301L12.9532 8.64967V8.64967ZM7.99989 10.333C6.70989 10.333 5.66655 9.28967 5.66655 7.99967C5.66655 6.70967 6.70989 5.66634 7.99989 5.66634C9.28989 5.66634 10.3332 6.70967 10.3332 7.99967C10.3332 9.28967 9.28989 10.333 7.99989 10.333Z"/>
  </svg>

  <svg id="share" viewBox="0 0 16 16"  xmlns="http://www.w3.org/2000/svg">
    <path d="M9.6 9.92V13.205L16 7.595L9.6 2V5.195C3.376 6.005 0.896 9.995 0 14C2.224 11.195 5.152 9.92 9.6 9.92Z"/>
  </svg>

  <svg id="sidebarChats" viewBox="0 0 16 16" xmlns="http://www.w3.org/2000/svg">
    <path d="M7.99984 8.00033C9.47317 8.00033 10.6665 6.80366 10.6665 5.33366C10.6665 3.86033 9.47317 2.66699 7.99984 2.66699C6.5265 2.66699 5.33317 3.86033 5.33317 5.33366C5.33317 6.80366 6.5265 8.00033 7.99984 8.00033ZM7.99984 9.33366C6.22317 9.33366 2.6665 10.2237 2.6665 12.0003V13.3337H13.3332V12.0003C13.3332 10.2237 9.7765 9.33366 7.99984 9.33366Z"/>
  </svg>

  <svg id="sidebarRooms" viewBox="0 0 16 16"  xmlns="http://www.w3.org/2000/svg">
    <path d="M10.6665 7.33301C11.7698 7.33301 12.6598 6.43634 12.6598 5.33301C12.6598 4.22967 11.7698 3.33301 10.6665 3.33301C9.56317 3.33301 8.6665 4.22967 8.6665 5.33301C8.6665 6.43634 9.56317 7.33301 10.6665 7.33301ZM5.33317 7.33301C6.4365 7.33301 7.3265 6.43634 7.3265 5.33301C7.3265 4.22967 6.4365 3.33301 5.33317 3.33301C4.22984 3.33301 3.33317 4.22967 3.33317 5.33301C3.33317 6.43634 4.22984 7.33301 5.33317 7.33301ZM5.33317 8.66634C3.7765 8.66634 0.666504 9.44634 0.666504 10.9997V12.6663H9.99984V10.9997C9.99984 9.44634 6.88984 8.66634 5.33317 8.66634ZM10.6665 8.66634C10.4732 8.66634 10.2565 8.67967 10.0232 8.70301C10.7965 9.25967 11.3332 10.0097 11.3332 10.9997V12.6663H15.3332V10.9997C15.3332 9.44634 12.2232 8.66634 10.6665 8.66634Z"/>
  </svg>

  <svg id="tag" width="16" height="16" viewBox="0 0 16 16"  xmlns="http://www.w3.org/2000/svg">
    <path fill-rule="evenodd" clip-rule="evenodd" d="M9.16177 14.5593C8.7971 14.924 8.29091 15.071 7.81738 14.9893L2.44806 14.4891C1.96482 14.4441 1.58367 14.0586 1.54414 13.5749L1.11177 8.28372C1.03013 7.81019 1.17709 7.30401 1.54176 6.93933L7.53435 0.957627C8.13307 0.358912 9.10734 0.353469 9.70606 0.952183L15.1489 6.39505C15.7476 6.99376 15.7422 7.96803 15.1435 8.56675L9.16177 14.5593ZM5.50019 12.0002C6.32861 12.0002 7.00019 11.3286 7.00019 10.5002C7.00019 9.67179 6.32861 9.00022 5.50019 9.00022C4.67176 9.00022 4.00019 9.67179 4.00019 10.5002C4.00019 11.3286 4.67176 12.0002 5.50019 12.0002Z"/>
  </svg>

  <svg id="time" width="16" height="16" viewBox="0 0 16 16"  xmlns="http://www.w3.org/2000/svg">
    <path d="M7.9965 1C4.129 1 1 4.1325 1 8C1 11.8675 4.129 15 7.9965 15C11.864 15 15 11.8675 15 8C15 4.1325 11.864 1 7.9965 1ZM8 13.6C4.906 13.6 2.4 11.094 2.4 8C2.4 4.906 4.906 2.4 8 2.4C11.094 2.4 13.6 4.906 13.6 8C13.6 11.094 11.094 13.6 8 13.6Z"/>
    <path d="M8.21875 4.5H7.125V8.51639L10.9495 10.625L11.5 9.80164L8.21875 8.01434V4.5Z"/>
  </svg>

  <svg id="unarchive" width="16" height="16" viewBox="0 0 16 16"  xmlns="http://www.w3.org/2000/svg">
    <path d="M13.6967 3.48333L12.7733 2.36333C12.5867 2.14333 12.31 2 12 2H4C3.69 2 3.41333 2.14333 3.23 2.36333L2.30667 3.48333C2.11333 3.71667 2 4.01 2 4.33333V12.6667C2 13.4033 2.59667 14 3.33333 14H12.6667C13.4033 14 14 13.4033 14 12.6667V4.33333C14 4.01 13.8867 3.71667 13.6967 3.48333ZM8 6.33333L11.6667 10H9.33333V11.3333H6.66667V10H4.33333L8 6.33333ZM3.41667 3.33333L3.96 2.66667H11.96L12.5833 3.33333H3.41667V3.33333Z"/>
  </svg>

  <svg id="upload" width="17" height="16" viewBox="0 0 17 16" xmlns="http://www.w3.org/2000/svg">
    <path fill-rule="evenodd" clip-rule="evenodd" d="M3.93487 15.3906C2.12355 15.3906 0.654785 13.922 0.654785 12.1113L0.654785 8.43342C0.654785 6.62201 2.12346 5.15333 3.93487 5.15333H4.63876V6.15333H3.93487C2.67574 6.15333 1.65479 7.17429 1.65479 8.43342L1.65479 12.1113C1.65479 13.3696 2.67566 14.3906 3.93487 14.3906H12.3317C13.5909 14.3906 14.6118 13.3696 14.6118 12.1113V8.42588C14.6118 7.1711 13.5945 6.15333 12.34 6.15333H11.6286V5.15333H12.34C14.1471 5.15333 15.6118 6.61917 15.6118 8.42588V12.1113C15.6118 13.922 14.1431 15.3906 12.3317 15.3906H3.93487Z" />
    <path fill-rule="evenodd" clip-rule="evenodd" d="M7.61182 10L7.61182 2H8.61182V10H7.61182Z" />
    <path fill-rule="evenodd" clip-rule="evenodd" d="M8.13317 2.23666L6.28827 4.08978L5.57959 3.38425L8.13304 0.81941L10.6873 3.38419L9.97876 4.08984L8.13317 2.23666Z" />
  </svg>

  <svg id="upload1" width="17" height="13" viewBox="0 0 17 13" xmlns="http://www.w3.org/2000/svg">
    <path d="M0.111816 12.5C0.111816 12.2239 0.335674 12 0.611816 12H12.6118C12.888 12 13.1118 12.2239 13.1118 12.5C13.1118 12.7761 12.888 13 12.6118 13H0.611817C0.335674 13 0.111816 12.7761 0.111816 12.5Z"/>
    <path d="M0.611816 13C0.335674 13 0.111816 12.7761 0.111816 12.5L0.111816 9.5C0.111816 9.22386 0.335674 9 0.611816 9C0.887959 9 1.11182 9.22386 1.11182 9.5L1.11182 12.5C1.11182 12.7761 0.887959 13 0.611816 13Z"/>
    <path d="M12.6118 13C12.3357 13 12.1118 12.7761 12.1118 12.5L12.1118 9.5C12.1118 9.22386 12.3357 9 12.6118 9C12.888 9 13.1118 9.22386 13.1118 9.5L13.1118 12.5C13.1118 12.7761 12.888 13 12.6118 13Z"/>
    <path d="M6.61182 11C6.88796 11 7.11182 10.7761 7.11182 10.5L7.11182 0.5C7.11182 0.223858 6.88796 -9.78514e-09 6.61182 -2.18557e-08C6.33567 -3.39263e-08 6.11182 0.223858 6.11182 0.5L6.11182 10.5C6.11182 10.7761 6.33567 11 6.61182 11Z"/>
    <path d="M10.7107 4.59841C10.9322 4.37687 10.9322 4.01767 10.7107 3.79612L7.31526 0.400707C7.09371 0.17916 6.73451 0.179159 6.51296 0.400707C6.29142 0.622254 6.29142 0.981454 6.51296 1.203L9.90837 4.59841C10.1299 4.81996 10.4891 4.81996 10.7107 4.59841Z"/>
    <path d="M6.71067 0.400608C6.93222 0.622157 6.93222 0.981359 6.71067 1.20291L3.31523 4.59835C3.09368 4.81989 2.73448 4.8199 2.51293 4.59835C2.29138 4.3768 2.29138 4.01759 2.51293 3.79605L5.90837 0.400608C6.12991 0.179059 6.48912 0.179058 6.71067 0.400608Z"/>
  </svg>

  <svg id="visibility" viewBox="0 0 16 16" xmlns="http://www.w3.org/2000/svg">
    <path d="M7.99984 2.66699C4.6665 2.66699 1.81984 4.74033 0.666504 7.66699C1.81984 10.5937 4.6665 12.667 7.99984 12.667C11.3332 12.667 14.1798 10.5937 15.3332 7.66699C14.1798 4.74033 11.3332 2.66699 7.99984 2.66699ZM7.99984 11.0003C6.15984 11.0003 4.6665 9.50699 4.6665 7.66699C4.6665 5.82699 6.15984 4.33366 7.99984 4.33366C9.83984 4.33366 11.3332 5.82699 11.3332 7.66699C11.3332 9.50699 9.83984 11.0003 7.99984 11.0003ZM7.99984 5.66699C6.89317 5.66699 5.99984 6.56033 5.99984 7.66699C5.99984 8.77366 6.89317 9.66699 7.99984 9.66699C9.1065 9.66699 9.99984 8.77366 9.99984 7.66699C9.99984 6.56033 9.1065 5.66699 7.99984 5.66699Z" fill-opacity="0.54"/>
  </svg>

  <svg id="visibilityOff" viewBox="0 0 16 16" xmlns="http://www.w3.org/2000/svg">
    <path d="M7.99984 4.33378C9.83984 4.33378 11.3332 5.82711 11.3332 7.66711C11.3332 8.00711 11.2665 8.33378 11.1732 8.64044L13.2132 10.6804C14.1398 9.86044 14.8732 8.83378 15.3332 7.66044C14.1798 4.74044 11.3332 2.66711 7.99984 2.66711C7.15317 2.66711 6.33984 2.80044 5.57317 3.04711L7.01984 4.49378C7.33317 4.40044 7.65984 4.33378 7.99984 4.33378ZM1.8065 2.10711C1.5465 2.36711 1.5465 2.78711 1.8065 3.04711L3.11984 4.36044C2.03984 5.22044 1.17984 6.35378 0.666504 7.66711C1.81984 10.5938 4.6665 12.6671 7.99984 12.6671C9.01317 12.6671 9.97984 12.4671 10.8732 12.1204L12.6865 13.9338C12.9465 14.1938 13.3665 14.1938 13.6265 13.9338C13.8865 13.6738 13.8865 13.2538 13.6265 12.9938L2.75317 2.10711C2.49317 1.84711 2.0665 1.84711 1.8065 2.10711ZM7.99984 11.0004C6.15984 11.0004 4.6665 9.50711 4.6665 7.66711C4.6665 7.15378 4.7865 6.66711 4.99317 6.24044L6.03984 7.28711C6.01984 7.40711 5.99984 7.53378 5.99984 7.66711C5.99984 8.77378 6.89317 9.66711 7.99984 9.66711C8.13317 9.66711 8.25317 9.64711 8.37984 9.62044L9.4265 10.6671C8.99317 10.8804 8.51317 11.0004 7.99984 11.0004ZM9.97984 7.44711C9.87984 6.51378 9.1465 5.78711 8.21984 5.68711L9.97984 7.44711Z" fill-opacity="0.54"/>
  </svg>

  <svg id="download" viewBox="0 0 16 16" xmlns="http://www.w3.org/2000/svg">
    <rect x="1" y="13" width="13" height="1" rx="0.5" fill="#241824"/>
    <rect x="1" y="14" width="4" height="1" rx="0.5" transform="rotate(-90 1 14)" />
    <rect x="13" y="14" width="4" height="1" rx="0.5" transform="rotate(-90 13 14)" />
    <rect x="8" width="11" height="1" rx="0.5" transform="rotate(90 8 0)" />
    <rect x="12" y="6.80273" width="5.93645" height="1.13462" rx="0.567308" transform="rotate(135 12 6.80273)" />
    <rect width="5.9365" height="1.13462" rx="0.567312" transform="matrix(-0.707107 -0.707107 -0.707107 0.707107 8 10.1992)" />
  </svg>

  <svg id="document" xmlns="http://www.w3.org/2000/svg" viewBox="0 0 20 20" >
    <path fill-rule="evenodd" d="M4 4a2 2 0 012-2h4.586A2 2 0 0112 2.586L15.414 6A2 2 0 0116 7.414V16a2 2 0 01-2 2H6a2 2 0 01-2-2V4z" clip-rule="evenodd" />
  </svg>

  <svg id="image" xmlns="http://www.w3.org/2000/svg" viewBox="0 0 20 20" fill="currentColor">
    <path fill-rule="evenodd" d="M4 3a2 2 0 00-2 2v10a2 2 0 002 2h12a2 2 0 002-2V5a2 2 0 00-2-2H4zm12 12H4l4-8 3 6 2-4 3 6z" clip-rule="evenodd" />
  </svg>

  <svg id="checked" viewBox="0 0 16 16" xmlns="http://www.w3.org/2000/svg">
    <path d="M0 8C0 3.58172 3.58172 0 8 0C12.4183 0 16 3.58172 16 8C16 12.4183 12.4183 16 8 16C3.58172 16 0 12.4183 0 8Z" />
    <path d="M4.66663 7.5L7.16663 10L11.1666 6" stroke="#5DAE6C" stroke-width="2" stroke-linecap="round" stroke-linejoin="round"/>
  </svg>

  <svg id="select" xmlns="http://www.w3.org/2000/svg" viewBox="0 0 24 24"  >
    <path stroke-linecap="round" stroke-linejoin="round" d="M8 9l4-4 4 4m0 6l-4 4-4-4" />
  </svg>
</svg>
