<svg viewBox="0 0 836 657" fill="none" xmlns="http://www.w3.org/2000/svg">
<g style="mix-blend-mode:overlay" opacity="0.4">
<path d="M0 23.666L151.421 132.781L209.225 111.838L54.034 0L0 23.666Z" fill="white"/>
<path d="M207.34 172.992L358.76 282.107L419.287 263.049L264.096 151.211L207.34 172.992Z" fill="white"/>
<path d="M414.679 322.319L566.1 431.224L629.349 414.26L474.158 302.422L414.679 322.319Z" fill="white"/>
<path d="M622.019 471.436L773.44 580.551L835.642 563.796L684.221 453.843L622.019 471.436Z" fill="white"/>
<path d="M122.309 262.421L268.913 367.975L325.46 346.194L175.506 238.126L122.309 262.421Z" fill="white"/>
<path d="M323.157 406.93L469.761 512.485L528.821 492.589L378.866 384.521L323.157 406.93Z" fill="white"/>
<path d="M523.794 551.44L670.398 656.995L728.621 637.308L582.436 531.125L523.794 551.44Z" fill="white"/>
<path d="M220.115 29.7395L376.562 142.206L440.021 125.451L279.594 9.84326L220.115 29.7395Z" fill="white"/>
<path d="M434.157 183.673L590.604 296.349L656.785 281.479L496.359 165.872L434.157 183.673Z" fill="white"/>
<path d="M743.7 524.004L237.917 317.083L239.592 312.895L709.772 505.155L126.708 85.4493L129.43 81.8889L743.7 524.004Z" fill="white"/>
<path d="M314.936 63.6894L312.244 67.429L559.22 245.236L561.912 241.496L314.936 63.6894Z" fill="white"/>
<path d="M220.325 305.983L106.602 70.5794L110.581 68.6945L222 298.653L316.036 219.277L318.968 222.628L220.325 305.983Z" fill="white"/>
<path d="M625.998 596.468L228.911 310.8L526.517 367.975L525.679 372.373L248.389 319.177L628.511 592.698L625.998 596.468Z" fill="white"/>
<path d="M645.685 608.196L107.021 71.2076L109.953 67.6472L708.515 498.662L705.792 502.432L130.268 88.1717L648.826 605.055L645.685 608.196Z" fill="white"/>
<path d="M637.936 606.102L516.045 366.509L520.025 364.415L640.24 600.447L781.398 552.277L782.864 556.675L637.936 606.102Z" fill="white"/>
<path d="M649.245 613.223L245.666 322.738L248.389 318.968L621.81 587.881L307.449 215.508L311.01 212.575L649.245 613.223Z" fill="white"/>
<path d="M453.425 478.557L103.251 67.0189L345.566 84.6114L313.732 216.345L453.425 478.557ZM113.932 72.2548L429.759 443.372L309.125 216.764L340.121 88.5906L113.932 72.2548Z" fill="white"/>
<path d="M783.074 555.209L420.543 450.702L541.177 380.751L543.272 384.73L432.062 449.236L771.974 547.251L564.006 250.273L520.025 365.043L515.626 363.368L562.959 240.639L783.074 555.209Z" fill="white"/>
<path d="M759.408 540.968L338.236 93.1983L527.983 368.813L524.213 371.536L317.502 71.2077L321.062 68.2756L762.758 537.827L759.408 540.968Z" fill="white"/>
<path d="M588.091 254.671L306.402 214.46L307.03 210.062L550.602 244.619L99.4811 65.762L101.157 61.5734L588.091 254.671Z" fill="white"/>
</g>
</svg>
