<?xml version="1.0" encoding="UTF-8"?>
<!DOCTYPE svg PUBLIC "-//W3C//DTD SVG 1.1//EN" "http://www.w3.org/Graphics/SVG/1.1/DTD/svg11.dtd">
<!-- Creator: CorelDRAW -->
<svg xmlns="http://www.w3.org/2000/svg" xml:space="preserve" width="100px" height="100px" version="1.1" style="shape-rendering:geometricPrecision; text-rendering:geometricPrecision; image-rendering:optimizeQuality; fill-rule:evenodd; clip-rule:evenodd"
viewBox="0 0 4.55 4.55"
 xmlns:xlink="http://www.w3.org/1999/xlink"
 xmlns:xodm="http://www.corel.com/coreldraw/odm/2003">
 <defs>
  <style type="text/css">
   <![CDATA[
    .fil0 {fill:#FEFEFE}
    .fil1 {fill:#1F1B20}
    .fil2 {fill:white}
    .fil3 {fill:#611E52;fill-rule:nonzero}
   ]]>
  </style>
 </defs>
 <g id="Layer_x0020_1">
  <metadata id="CorelCorpID_0Corel-Layer"/>
  <g id="_1992256826048">
   <path class="fil0" d="M1.64 0l1.28 0c0.9,0 1.63,0.74 1.63,1.64l0 1.28c0,0.9 -0.73,1.63 -1.63,1.63l-1.28 0c-0.9,0 -1.64,-0.73 -1.64,-1.63l0 -1.28c0,-0.9 0.74,-1.64 1.64,-1.64z"/>
  </g>
  <rect class="fil1" x="0.2" y="0.2" width="4.15" height="4.15" rx="1.44" ry="1.44"/>
  <rect class="fil2" x="0.4" y="0.4" width="3.75" height="3.75" rx="1.23" ry="1.23"/>
  <path id="logo.svg" class="fil3" d="M3.37 2.14c0.04,0.01 0.09,0.02 0.14,0.02 0.08,0 0.15,-0.02 0.2,-0.07 0.05,-0.04 0.08,-0.1 0.08,-0.17l0 -0.31 -0.21 0 0 0.31c0,0.02 -0.01,0.03 -0.02,0.05 -0.02,0.01 -0.03,0.02 -0.05,0.02 -0.02,0 -0.04,-0.01 -0.05,-0.02 -0.02,-0.02 -0.02,-0.03 -0.02,-0.05l0 -0.31 -0.21 0 0 0.16 -0.12 0.01 -0.44 -0.28 -0.15 -0.2c0.01,-0.01 0.02,-0.02 0.03,-0.03 0,0 0,0 0.01,-0.01l-0.13 -0.12 -0.02 0.01c-0.01,0.01 -0.02,0.02 -0.04,0.03 -0.02,0.01 -0.04,0.01 -0.06,0.01 -0.04,0 -0.07,-0.01 -0.09,-0.03 -0.03,-0.02 -0.04,-0.04 -0.04,-0.07 0,-0.03 0.02,-0.06 0.04,-0.08 0.02,-0.02 0.05,-0.03 0.09,-0.03 0.02,0 0.04,0.01 0.06,0.02 0.02,0.01 0.04,0.01 0.04,0.02 0.01,0.01 0.01,0.01 0.02,0.01l0.12 -0.12 0 -0.01c-0.01,-0.01 -0.02,-0.01 -0.04,-0.02 -0.01,-0.01 -0.03,-0.03 -0.05,-0.04 -0.02,-0.01 -0.04,-0.02 -0.07,-0.02 -0.03,-0.01 -0.06,-0.01 -0.09,-0.01 -0.1,0 -0.17,0.02 -0.24,0.08 -0.06,0.06 -0.09,0.12 -0.09,0.2 0,0.06 0.02,0.12 0.06,0.17l-0.15 0.22 -0.46 0.31 -0.16 -0.03c0,-0.03 -0.02,-0.07 -0.06,-0.09 -0.04,-0.03 -0.09,-0.04 -0.16,-0.04l-0.28 0 0 0.53 0.3 0c0.05,0 0.1,-0.01 0.13,-0.02l0.11 0.16 -0.07 0.1 -0.12 0 0 0.3c0,0.02 0,0.04 -0.02,0.05 -0.01,0.02 -0.03,0.02 -0.05,0.02 -0.01,0 -0.03,0 -0.04,-0.02 -0.02,-0.01 -0.03,-0.03 -0.03,-0.05l0 -0.3 -0.21 0 0 0.3c0,0.07 0.03,0.13 0.08,0.18 0.05,0.05 0.12,0.07 0.2,0.07 0.09,0 0.16,-0.02 0.21,-0.07 0.05,-0.04 0.07,-0.1 0.08,-0.16l0.52 0.39 0.16 0.24 0 0.05 0.15 0 0 0.35 0.21 0 0 -0.35 0.15 0 0 -0.04 0.17 -0.25 0.56 -0.39 0 0.23 0.21 0 0 -0.14 0.07 0c0.07,0 0.13,-0.02 0.17,-0.05 0.04,-0.04 0.06,-0.09 0.06,-0.15 0,-0.05 -0.02,-0.1 -0.06,-0.14 -0.04,-0.04 -0.1,-0.05 -0.17,-0.05l-0.18 0 -0.09 -0.13 0.11 -0.15zm0.09 0.44l0.06 0c0.01,0 0.01,0.01 0.02,0.01 0.01,0.01 0.01,0.02 0.01,0.02 0,0.01 0,0.02 -0.01,0.02 -0.01,0.01 -0.01,0.01 -0.02,0.01l-0.06 0 0 -0.06zm-0.21 -0.3l-0.08 -0.1 0.13 -0.1c0,0.01 0,0.01 0,0.01 0.02,0.02 0.04,0.03 0.06,0.04l-0.11 0.15zm0 0.31l-0.18 -0.03 0.09 -0.11 0.09 0.04 0 0.1 0 0zm-0.19 -0.03l-0.34 -0.05 0.22 -0.17 0.2 0.1 -0.08 0.12zm-0.69 -0.08l0.31 0.04 -0.31 0.23 0 -0.27zm0 -0.02l0 -0.05 -0.21 0 0 0.06 -0.31 0.05 -0.23 -0.18 0.36 -0.18 0.2 0 0 -0.13 0.04 -0.04 0.1 0.17 0.24 0 0 0 0.37 0.18 -0.24 0.17 -0.32 -0.05zm-0.21 0.29l-0.29 -0.22 0.29 -0.04 0 0.26zm-0.83 -0.26l0.08 -0.04 0.08 0.12 -0.16 0.02 0 -0.1zm0.09 -0.05l0.19 -0.09 0.22 0.17 -0.33 0.05 -0.08 -0.13zm-0.14 -0.48c-0.01,-0.02 -0.02,-0.03 -0.03,-0.04l0.18 -0.11 0.19 0.03 -0.22 0.32 -0.13 -0.09c0.01,-0.02 0.02,-0.04 0.02,-0.06 0,-0.02 0,-0.04 -0.01,-0.05zm0.36 -0.12l0.33 0.06 0 0.25 -0.36 0.18 -0.2 -0.16 0.23 -0.33zm-0.04 0.5l-0.19 0.09 -0.09 -0.13 0.08 -0.12 0.2 0.16zm1.69 -0.27l-0.12 0.09 -0.26 -0.34 0.19 -0.02 0.13 0.08 0 0.04c0,0.06 0.02,0.11 0.06,0.15zm-0.14 0.1l-0.21 0.16 -0.4 -0.19 -0.15 -0.24 0.51 -0.07 0.25 0.34zm-0.19 0.17l0.2 -0.16 0.09 0.11 -0.1 0.14 -0.19 -0.09zm0.27 -0.56l0 0.08 -0.11 -0.07 0.11 -0.01zm-0.15 0.01l-0.18 0.02 -0.21 -0.28 0.39 0.26zm-0.57 -0.48l0.12 0.17 -0.2 -0.13c0.01,-0.01 0.02,-0.01 0.03,-0.02 0.02,-0.01 0.03,-0.01 0.05,-0.02zm-0.21 0.06c0.03,0 0.06,0 0.09,-0.01 0.01,0 0.02,-0.01 0.02,-0.01l0.25 0.16 0.23 0.3 -0.51 0.07 -0.02 -0.03 0.18 -0.22 -0.23 0 -0.13 0.16 0 -0.16 -0.21 0 0 0.25 -0.32 -0.05 0.24 -0.34 0.23 -0.16c0.05,0.03 0.11,0.04 0.18,0.04zm-0.26 -0.1c0.01,0 0.02,0.01 0.03,0.02 0.01,0.01 0.02,0.02 0.04,0.03l-0.2 0.13 0.13 -0.18zm-0.19 0.24l-0.22 0.32 -0.19 -0.03 0.41 -0.29zm-0.87 0.26l0.03 0c0.01,0 0.02,0.01 0.02,0.01 0.01,0 0.01,0.01 0.01,0.02 0,0.01 0,0.01 -0.01,0.02 0,0 -0.01,0.01 -0.02,0.01l-0.03 0 0 -0.06zm0.08 0.24c-0.01,0 -0.02,0.01 -0.03,0.01l-0.05 0 0 -0.06 0.05 0c0.01,0 0.02,0 0.03,0 0.01,0.01 0.01,0.02 0.01,0.03 0,0 0,0.01 -0.01,0.02zm0.12 -0.14c0.01,0 0.01,0 0.02,-0.01 0.01,0 0.02,-0.01 0.03,-0.02 0.01,-0.01 0.02,-0.02 0.02,-0.03 0.01,-0.01 0.01,-0.02 0.01,-0.03l0.15 0.02 -0.17 0.12c-0.01,-0.01 -0.02,-0.02 -0.03,-0.02 -0.01,-0.01 -0.02,-0.01 -0.03,-0.02 0,0 -0.01,0 -0.01,0l0.01 -0.01zm0.03 0.26c0.01,0 0.01,-0.01 0.02,-0.01 0.01,-0.01 0.03,-0.03 0.04,-0.04l0.12 0.1 -0.08 0.1 -0.1 -0.15zm0.1 0.18l0.09 0.13 -0.07 0.03 0 -0.07 -0.08 0 0.06 -0.09zm0.02 0.39l0 -0.09 0.16 -0.03 0.33 0.49 -0.49 -0.37zm0.55 0.43l0.13 0.1 0 0.09 -0.13 -0.19zm0.13 0.08l-0.15 -0.11 -0.35 -0.52 0.34 -0.05 0.31 0.24 0 -0.01 0 0.19 0.21 0 0 -0.18 0.33 -0.25 0.35 0.05 -0.37 0.53 -0.16 0.11 -0.51 0zm0.51 0.13l0 -0.11 0.14 -0.1 -0.14 0.21zm0.2 -0.27l0.34 -0.49 0.19 0.03 0 0.09 -0.53 0.37zm0.62 -0.66l-0.09 0 0 0.07 -0.09 -0.05 0.09 -0.12 0.09 0.1z"/>
 </g>
</svg>
