  <svg version="1.1" id="admin" xmlns="http://www.w3.org/2000/svg" xmlns:xlink="http://www.w3.org/1999/xlink" x="0px" y="0px" viewBox="0 0 25.655 25.655" style="enable-background:new 0 0 25.655 25.655;" xml:space="preserve">
    <g>
      <g>
        <path style="none" d="M7.812,0C3.498,0,0,3.497,0,7.812c0,4.314,3.498,7.813,7.813,7.813s7.812-3.499,7.812-7.813
			C15.625,3.497,12.126,0,7.812,0z M5.312,7.914c-1.437,0-2.602-1.165-2.602-2.603c0-1.436,1.165-2.601,2.602-2.601
			s2.602,1.165,2.602,2.601C7.914,6.749,6.749,7.914,5.312,7.914z" />
        <path style="none;" d="M25.371,20.412l-8.978-8.977c-0.272,0.646-0.624,1.249-1.03,1.812l7.821,7.821
			c0.341,0.342,0.341,0.898-0.001,1.24c-0.341,0.341-0.898,0.341-1.239,0l-7.737-7.738c-0.961,0.909-2.115,1.615-3.395,2.052v1.39
			c0,0.44,0.359,0.8,0.8,0.8h2.2v2.2c0,0.44,0.359,0.8,0.8,0.8h2.2v2.2c0,0.44,0.359,0.8,0.8,0.8h2.241l0.559,0.559
			c0.342,0.342,3.767,0.522,4.624-0.334C25.893,24.179,25.712,20.753,25.371,20.412z" />
      </g>
    </g>
    <g></g>
    <g></g>
    <g></g>
    <g></g>
    <g></g>
    <g></g>
    <g></g>
    <g></g>
    <g></g>
    <g></g>
    <g></g>
    <g></g>
    <g></g>
    <g></g>
    <g></g>
  </svg>