 <svg id="attach" viewBox="0 0 24 24" fill="none" xmlns="http://www.w3.org/2000/svg">
    <g clip-path="url(#clip0_827_452)">
      <path d="M19.4358 10.5861L11.3604 18.7178C9.80853 20.2805 7.29462 20.2805 5.74274 18.7178C4.19086 17.1551 4.19086 14.6236 5.74274 13.0609L14.5204 4.22209C15.4894 3.24629 17.0624 3.24629 18.0314 4.2221C19.0005 5.1979 19.0005 6.78182 18.0314 7.75763L10.6582 15.1823C10.272 15.5712 9.64351 15.5747 9.25379 15.1822C8.86406 14.7898 8.86757 14.1569 9.25379 13.768L15.9248 7.05052L14.8715 5.98986L8.20047 12.7074C7.23142 13.6832 7.23142 15.2671 8.20047 16.2429C9.16952 17.2187 10.7425 17.2187 11.7115 16.2429L19.0847 8.81829C20.6366 7.25558 20.6366 4.72414 19.0847 3.16143C17.5328 1.59873 15.0189 1.59873 13.467 3.16143L4.68943 12.0003C2.55471 14.1499 2.55822 17.6324 4.68943 19.7784C6.82063 21.9245 10.279 21.928 12.4137 19.7784L20.4891 11.6467L19.4358 10.5861Z" fill="#A09BA1" />
    </g>
    <defs>
        <rect />
    </defs>
</svg>