<svg id="cargo" viewBox="0 0 256 256" xmlns="http://www.w3.org/2000/svg">
  <g transform="translate(0.000000,256.000000) scale(0.100000,-0.100000)" stroke="none">
    <path
      d="M628 1653 l-3 -138 -52 -3 -53 -3 0 -48 c0 -48 0 -49 -35 -53 -20 -2
      -38 -2 -40 1 -3 2 -5 56 -5 118 l0 114 -52 -3 -53 -3 -3 -227 -2 -228 -87 0
      -86 0 5 -97 c5 -111 25 -162 80 -208 68 -57 23 -55 1000 -56 l903 0 36 53 c20
      29 73 110 117 181 l82 127 -795 0 -795 0 0 100 0 100 30 0 30 0 0 65 0 64 -72
      3 -73 3 -3 138 -3 137 -34 0 -34 0 -3 -137z" />
    <path d="M1060 1515 l0 -75 135 0 135 0 0 75 0 75 -135 0 -135 0 0 -75z" />
    <path
      d="M1387 1584 c-4 -4 -7 -38 -7 -76 l0 -68 140 0 141 0 -3 73 -3 72
      -131 3 c-71 1 -133 -1 -137 -4z" />
    <path d="M1710 1515 l0 -75 135 0 135 0 0 75 0 75 -135 0 -135 0 0 -75z" />
    <path d="M1060 1305 l0 -75 135 0 135 0 0 75 0 75 -135 0 -135 0 0 -75z" />
    <path d="M1380 1305 l0 -76 138 3 137 3 0 70 0 70 -137 3 -138 3 0 -76z" />
    <path d="M1710 1305 l0 -75 135 0 135 0 0 75 0 75 -135 0 -135 0 0 -75z" />
  </g>
</svg>
