 <svg id="delete" width="17" height="16" viewBox="0 0 17 16" xmlns="http://www.w3.org/2000/svg">
    <path d="M4.11182 5H12.1118V12C12.1118 13.1046 11.2164 14 10.1118 14H6.11182C5.00725 14 4.11182 13.1046 4.11182 12V5Z" />
    <path d="M3.11182 3.5C3.11182 3.22386 3.33567 3 3.61182 3H4.77848H5.61182H8.11182H10.6118H11.4451H12.6118C12.888 3 13.1118 3.22386 13.1118 3.5V3.5C13.1118 3.77614 12.888 4 12.6118 4H3.61182C3.33567 4 3.11182 3.77614 3.11182 3.5V3.5Z" />
    <rect x="6.11182" y="2" width="4" height="2" rx="1" />
  </svg>