<svg id="logout" viewBox="0 0 16 16" xmlns="http://www.w3.org/2000/svg">
    <path d="M8.6665 2.33301H7.33317V8.99968H8.6665V2.33301ZM11.0432 3.95634L10.0798 4.91967C11.2298 5.62301 11.9998 6.88634 11.9998 8.33301C11.9998 10.543 10.2098 12.333 7.99984 12.333C5.78984 12.333 3.99984 10.543 3.99984 8.33301C3.99984 6.88634 4.76984 5.62301 5.91984 4.91967L4.9565 3.95634C3.57317 4.91967 2.6665 6.51967 2.6665 8.33301C2.6665 11.2797 5.05317 13.6663 7.99984 13.6663C10.9465 13.6663 13.3332 11.2797 13.3332 8.33301C13.3332 6.51967 12.4265 4.91967 11.0432 3.95634Z" />
</svg>