 <svg id="logo" viewBox="0 0 202 210" xmlns="http://www.w3.org/2000/svg">
    <path d="M174.229 94.9178C176.831 96.1687 179.834 96.7691 183.186 96.7691C188.69 96.7691 193.244 95.118 196.746 91.8156C200.249 88.5132 202 84.3603 202 79.3567V57.5411H187.839V79.3567C187.839 80.7077 187.389 81.8585 186.438 82.8092C185.488 83.7598 184.437 84.2602 183.186 84.2602C181.935 84.2602 180.884 83.7598 179.934 82.8092C178.983 81.8585 178.533 80.7077 178.533 79.3567V57.5411H164.372V68.599L156.366 69.7999L127.244 49.5354L117.137 35.0751C118.088 34.3245 118.688 33.7741 118.938 33.4239C119.239 33.0736 119.489 32.8235 119.639 32.5733L111.183 23.9171L110.182 24.8678C109.581 25.4682 108.581 26.1187 107.23 26.7691C105.879 27.4196 104.478 27.7198 102.976 27.7198C100.675 27.7198 98.7733 26.9693 97.1722 25.4682C95.571 23.9671 94.8204 22.1658 94.8204 20.1144C94.8204 18.0629 95.621 16.2616 97.1722 14.7605C98.7733 13.2595 100.675 12.5089 102.976 12.5089C104.428 12.5089 105.879 12.8592 107.28 13.5597C108.681 14.2602 109.631 14.8606 110.082 15.2609C110.532 15.7112 110.882 16.0615 111.133 16.3117L119.589 7.60543L118.938 6.8549C118.488 6.3045 117.787 5.70408 116.837 4.95354C115.836 4.203 114.735 3.45247 113.434 2.70193C112.183 1.95139 110.532 1.30093 108.581 0.800572C106.629 0.250179 104.578 0 102.426 0C96.2215 0 91.0676 2.00143 86.8645 5.95425C82.7114 9.90708 80.6099 14.6605 80.6099 20.1644C80.6099 24.6676 82.0109 28.6705 84.813 32.123L74.3052 48.1344L44.0327 70.3503L33.2747 68.4489C33.2247 65.747 31.9237 63.4453 29.4218 61.4939C26.8199 59.5425 23.2172 58.5418 18.5638 58.5418H0V96.6691H19.6146C23.3173 96.6691 26.3696 96.0686 28.8214 94.9178L36.0268 106.426L31.1731 113.781H23.4174V135.597C23.4174 136.948 22.9671 138.099 22.0163 139.049C21.0656 140 20.0149 140.5 18.7639 140.5C17.513 140.5 16.4622 140 15.5115 139.049C14.5608 138.099 14.1105 136.948 14.1105 135.597V113.781H0V135.597C0 140.55 1.7513 144.703 5.2539 148.056C8.7565 151.358 13.2598 153.059 18.814 153.059C24.3181 153.059 28.8714 151.408 32.374 148.106C35.6265 145.054 37.3277 141.301 37.5779 136.798L72.4538 164.467L83.2618 181.68V184.932H93.0691V210H107.23V184.932H117.037V182.48L128.946 164.217L165.973 136.548V153.059H180.134V143.252H184.787C189.491 143.252 193.243 141.951 196.046 139.3C198.898 136.648 200.299 133.245 200.299 129.092C200.299 124.939 198.898 121.537 196.046 118.885C193.193 116.233 189.441 114.932 184.787 114.932H172.928L166.824 106.226L174.229 94.9178ZM180.184 126.891H183.736C184.387 126.891 184.987 127.141 185.438 127.591C185.938 128.041 186.188 128.542 186.188 129.092C186.188 129.643 185.938 130.143 185.438 130.593C184.937 131.044 184.387 131.294 183.736 131.294H180.184V126.891ZM166.223 105.275L160.97 97.7699L169.176 91.3152C169.326 91.4653 169.476 91.6155 169.626 91.7656C170.727 92.8163 171.978 93.7169 173.279 94.4174L166.223 105.275ZM166.023 127.441L154.164 125.59L159.669 117.134L165.973 120.386V127.441H166.023ZM153.064 125.44L130.347 121.887L145.558 109.878L158.768 116.683L153.064 125.44ZM107.23 119.335L127.895 122.538L107.23 138.799V119.335ZM107.23 118.285V114.882H93.0691V118.985L72.704 122.087L57.4427 109.528L81.0102 96.7691H94.7203V87.7627L97.1722 84.5104L104.227 96.7691H119.739L119.639 96.619L144.507 109.428L128.896 121.737L107.23 118.285ZM93.0691 138.849L73.7548 122.938L93.0691 119.986V138.849ZM37.5779 120.286L42.8818 117.434L48.1858 125.89L37.5779 127.491V120.286V120.286ZM43.7825 116.934L56.492 110.029L71.353 122.287L49.2866 125.64L43.7825 116.934ZM34.3255 82.1587C33.8752 81.208 33.3748 80.4575 32.8244 79.8571L44.2829 71.451L57.4927 73.7527L42.2314 96.9693L34.0253 90.2144C34.7758 88.8635 35.1261 87.4124 35.1261 85.8113C35.1261 84.5604 34.8759 83.3095 34.3255 82.1587ZM58.5435 73.9528L80.5598 77.8056V95.8685L56.6421 108.828L43.032 97.6197L58.5435 73.9528ZM55.6413 109.328L43.2321 116.033L37.1776 106.426L42.4315 98.4203L55.6413 109.328ZM168.475 90.5647L160.369 96.9192L143.457 72.7019L156.116 70.8006L164.372 76.5547V79.3067C164.372 83.7098 165.773 87.4625 168.475 90.5647ZM159.619 97.5697L145.458 108.728L118.688 94.9678L108.531 77.9557L142.356 72.9021L159.619 97.5697ZM146.459 109.228L160.219 98.4203L165.673 106.226L159.368 115.883L146.459 109.228ZM164.372 69.5997V75.3538L157.567 70.6004L164.372 69.5997ZM154.915 69.95L142.806 71.7513L128.896 51.8871L154.915 69.95ZM116.336 35.6755L124.843 47.8342L111.433 38.5275C112.183 38.2273 112.884 37.9271 113.434 37.6269C114.485 37.0265 115.436 36.376 116.336 35.6755ZM102.476 40.2287C104.628 40.2287 106.679 39.9786 108.631 39.4282C109.181 39.2781 109.731 39.128 110.232 38.9278L126.494 50.2359L141.655 71.9514L107.93 77.005L106.379 74.4032L118.638 58.5919H103.377L94.6703 70.05V58.5919H80.5098V76.7548L59.1439 73.0022L75.0557 48.7348L90.7674 37.1766C94.1699 39.228 98.0728 40.2287 102.476 40.2287ZM85.5135 32.8235C85.9638 33.3238 86.4142 33.8242 86.9145 34.2745C87.8152 35.1251 88.816 35.9257 89.8167 36.6262L76.6069 46.3331L85.5135 32.8235ZM72.754 50.4861L58.0431 72.852L45.3837 70.6505L72.754 50.4861ZM14.1605 68.9993H16.3622C17.0126 68.9993 17.563 69.1994 17.9633 69.5497C18.3636 69.8999 18.5638 70.3503 18.5638 70.9006C18.5638 71.451 18.3636 71.9014 17.9633 72.2516C17.563 72.6019 17.0126 72.802 16.3622 72.802H14.1605V68.9993V68.9993ZM19.7146 85.7112C19.2143 86.1616 18.6639 86.4117 18.0134 86.4117H14.2106V82.0586H18.0134C18.6639 82.0586 19.2643 82.3088 19.7146 82.7591C20.215 83.2094 20.4652 83.7098 20.4652 84.2602C20.4152 84.7606 20.165 85.2609 19.7146 85.7112ZM27.9207 76.3045C28.321 76.1044 28.8214 75.8542 29.3718 75.4039C29.9723 75.0036 30.5227 74.5032 31.1231 73.9028C31.7236 73.3524 32.2239 72.6019 32.6242 71.6512C32.9244 70.9507 33.1246 70.2502 33.2247 69.4997L42.8818 71.2009L32.0238 79.2066C31.4233 78.7062 30.7228 78.2559 29.9723 77.8556C29.0716 77.3553 28.4211 77.055 28.0708 76.9049C27.7206 76.7548 27.4204 76.6548 27.2202 76.6047L27.9207 76.3045ZM29.7221 94.5175C30.2224 94.2173 30.6728 93.9171 31.1231 93.6169C32.1239 92.8663 32.9244 92.0157 33.5249 91.1151L41.681 97.8199L36.6272 105.475L29.7221 94.5175ZM36.5772 107.377L42.3314 116.533L37.5779 119.135V113.831H32.374L36.5772 107.377ZM37.5779 135.497V128.492L48.7862 126.791L70.8526 161.916L37.5779 135.497ZM74.8056 166.319L83.2618 173.024V179.778L74.8056 166.319ZM83.4119 171.873L73.2044 163.767L49.887 126.59L72.4538 123.138L92.969 140.05L93.0691 139.9V153.009H107.23V140.05L129.246 122.688L152.463 126.29L128.195 163.517L117.037 171.873H83.4119ZM117.037 180.629V173.124L126.594 165.969L117.037 180.629ZM130.597 161.766L153.564 126.54L166.023 128.492V135.297L130.597 161.766ZM171.728 114.882H166.023V119.235L160.269 116.283L166.273 107.076L171.728 114.882Z" />
</svg>