<svg version="1.1" id="open" xmlns="http://www.w3.org/2000/svg" xmlns:xlink="http://www.w3.org/1999/xlink" x="0px" y="0px" width="16px" height="16px" viewBox="0 0 46.324 46.324" style="enable-background:new 0 0 46.324 46.324;" xml:space="preserve">
    <g>
      <g>
        <path d="M39.927,11.621L7.685,0.112c-0.588-0.211-1.239-0.12-1.748,0.239C5.428,0.709,5.125,1.294,5.125,1.916v39.832
			c0,0.622,0.303,1.207,0.812,1.564c0.327,0.23,0.714,0.352,1.104,0.352c0.217,0,0.435-0.036,0.645-0.111l8.281-2.955
			c1.971,3.483,5.691,5.727,9.778,5.727c6.204,0,11.252-5.049,11.252-11.253c0-0.642-0.058-1.283-0.17-1.92l3.103-1.106
			c0.762-0.273,1.271-0.995,1.271-1.805V13.425C41.198,12.616,40.69,11.894,39.927,11.621z M8.955,4.634l5.109,1.825v30.749
			L8.955,39.03V4.634z M33.138,34.466c0.019,0.201,0.026,0.403,0.026,0.604c0,4.093-3.329,7.422-7.421,7.422
			c-2.467,0-4.735-1.237-6.1-3.209l9.417-3.361L33.138,34.466z M37.367,28.888l-11.619,4.147l-7.853,2.804V7.825l19.472,6.951
			V28.888z" />
      </g>
    </g>
    <g></g>
    <g></g>
    <g></g>
    <g></g>
    <g></g>
    <g></g>
    <g></g>
    <g></g>
    <g></g>
    <g></g>
    <g></g>
    <g></g>
    <g></g>
    <g></g>
    <g></g>
  </svg>