  <svg id="qrcode" width="16" height="16" viewBox="0 0 16 16" xmlns="http://www.w3.org/2000/svg">
    <path d="M8.5332 3.2002H10.6665V5.33353H8.5332V3.2002Z" />
    <path d="M10.6665 5.33301H12.7998V7.46634H10.6665V5.33301Z" />
    <path fill-rule="evenodd" clip-rule="evenodd" d="M11.7332 9.59987H9.59987V11.7332H11.7332V9.59987ZM8.5332 8.5332V12.7999H12.7999V8.5332H8.5332Z" />
    <path fill-rule="evenodd" clip-rule="evenodd" d="M6.39971 4.26686H4.26637V6.4002H6.39971V4.26686ZM3.19971 3.2002V7.46686H7.46637V3.2002H3.19971Z" />
    <path fill-rule="evenodd" clip-rule="evenodd" d="M0.533203 0.533203H4.5332V1.59987H1.59987V4.5332H0.533203V0.533203ZM14.3999 1.59987H11.4665V0.533203H15.4665V4.5332H14.3999V1.59987ZM1.59987 14.3999V11.4665H0.533203V15.4665H4.5332V14.3999H1.59987ZM14.3999 14.3999V11.4665H15.4665V15.4665H11.4665V14.3999H14.3999Z" />
    <path fill-rule="evenodd" clip-rule="evenodd" d="M6.39971 9.59987H4.26637V11.7332H6.39971V9.59987ZM3.19971 8.5332V12.7999H7.46637V8.5332H3.19971Z" />
  </svg>