  <svg id="secret" width="16" height="16" viewBox="0 0 16 16" xmlns="http://www.w3.org/2000/svg">
    <path d="M11.9998 5.33366H11.3332V4.00033C11.3332 2.16033 9.83984 0.666992 7.99984 0.666992C6.15984 0.666992 4.6665 2.16033 4.6665 4.00033V5.33366H3.99984C3.26317 5.33366 2.6665 5.93033 2.6665 6.66699V13.3337C2.6665 14.0703 3.26317 14.667 3.99984 14.667H11.9998C12.7365 14.667 13.3332 14.0703 13.3332 13.3337V6.66699C13.3332 5.93033 12.7365 5.33366 11.9998 5.33366ZM7.99984 11.3337C7.26317 11.3337 6.6665 10.737 6.6665 10.0003C6.6665 9.26366 7.26317 8.66699 7.99984 8.66699C8.7365 8.66699 9.33317 9.26366 9.33317 10.0003C9.33317 10.737 8.7365 11.3337 7.99984 11.3337ZM10.0665 5.33366H5.93317V4.00033C5.93317 2.86033 6.85984 1.93366 7.99984 1.93366C9.13984 1.93366 10.0665 2.86033 10.0665 4.00033V5.33366Z" />
  </svg>
  