  <svg id="sidebarRooms" viewBox="0 0 16 16" xmlns="http://www.w3.org/2000/svg">
    <path d="M10.6665 7.33301C11.7698 7.33301 12.6598 6.43634 12.6598 5.33301C12.6598 4.22967 11.7698 3.33301 10.6665 3.33301C9.56317 3.33301 8.6665 4.22967 8.6665 5.33301C8.6665 6.43634 9.56317 7.33301 10.6665 7.33301ZM5.33317 7.33301C6.4365 7.33301 7.3265 6.43634 7.3265 5.33301C7.3265 4.22967 6.4365 3.33301 5.33317 3.33301C4.22984 3.33301 3.33317 4.22967 3.33317 5.33301C3.33317 6.43634 4.22984 7.33301 5.33317 7.33301ZM5.33317 8.66634C3.7765 8.66634 0.666504 9.44634 0.666504 10.9997V12.6663H9.99984V10.9997C9.99984 9.44634 6.88984 8.66634 5.33317 8.66634ZM10.6665 8.66634C10.4732 8.66634 10.2565 8.67967 10.0232 8.70301C10.7965 9.25967 11.3332 10.0097 11.3332 10.9997V12.6663H15.3332V10.9997C15.3332 9.44634 12.2232 8.66634 10.6665 8.66634Z" />
  </svg>