  <svg id="upload" width="17" height="13" viewBox="0 0 17 13" xmlns="http://www.w3.org/2000/svg">
    <path d="M0.111816 12.5C0.111816 12.2239 0.335674 12 0.611816 12H12.6118C12.888 12 13.1118 12.2239 13.1118 12.5C13.1118 12.7761 12.888 13 12.6118 13H0.611817C0.335674 13 0.111816 12.7761 0.111816 12.5Z" />
    <path d="M0.611816 13C0.335674 13 0.111816 12.7761 0.111816 12.5L0.111816 9.5C0.111816 9.22386 0.335674 9 0.611816 9C0.887959 9 1.11182 9.22386 1.11182 9.5L1.11182 12.5C1.11182 12.7761 0.887959 13 0.611816 13Z" />
    <path d="M12.6118 13C12.3357 13 12.1118 12.7761 12.1118 12.5L12.1118 9.5C12.1118 9.22386 12.3357 9 12.6118 9C12.888 9 13.1118 9.22386 13.1118 9.5L13.1118 12.5C13.1118 12.7761 12.888 13 12.6118 13Z" />
    <path d="M6.61182 11C6.88796 11 7.11182 10.7761 7.11182 10.5L7.11182 0.5C7.11182 0.223858 6.88796 -9.78514e-09 6.61182 -2.18557e-08C6.33567 -3.39263e-08 6.11182 0.223858 6.11182 0.5L6.11182 10.5C6.11182 10.7761 6.33567 11 6.61182 11Z" />
    <path d="M10.7107 4.59841C10.9322 4.37687 10.9322 4.01767 10.7107 3.79612L7.31526 0.400707C7.09371 0.17916 6.73451 0.179159 6.51296 0.400707C6.29142 0.622254 6.29142 0.981454 6.51296 1.203L9.90837 4.59841C10.1299 4.81996 10.4891 4.81996 10.7107 4.59841Z" />
    <path d="M6.71067 0.400608C6.93222 0.622157 6.93222 0.981359 6.71067 1.20291L3.31523 4.59835C3.09368 4.81989 2.73448 4.8199 2.51293 4.59835C2.29138 4.3768 2.29138 4.01759 2.51293 3.79605L5.90837 0.400608C6.12991 0.179059 6.48912 0.179058 6.71067 0.400608Z" />
  </svg>

  