<svg id="usbDrive" xmlns="http://www.w3.org/2000/svg" viewBox="0 0 5000.000000 5000.000000">
  <g transform="translate(0.000000,5000.000000) scale(0.100000,-0.100000)" stroke="none">
    <path
      d="M33874 44867 c-33 -40 -146 -175 -250 -301 -104 -126 -279 -338 -389
-471 -110 -132 -1277 -1542 -2594 -3133 -1317 -1591 -2397 -2892 -2400 -2892
-3 0 -267 216 -586 480 l-580 480 -31 -37 c-1082 -1303 -19663 -23752 -19701
-23801 -181 -240 -325 -578 -367 -864 -21 -137 -21 -358 0 -479 43 -253 148
-463 311 -620 37 -37 214 -187 393 -335 179 -147 402 -331 495 -409 235 -195
373 -309 1045 -865 322 -266 675 -559 785 -650 110 -91 515 -427 900 -745 385
-319 804 -665 930 -770 127 -105 545 -452 930 -770 385 -318 806 -667 935
-774 552 -458 642 -532 770 -638 74 -61 275 -227 445 -368 171 -141 436 -361
590 -488 154 -128 331 -275 395 -328 1086 -901 1030 -857 1173 -924 272 -129
619 -138 958 -26 121 40 331 144 438 216 221 148 319 247 707 716 171 206
4598 5554 9838 11884 5241 6331 9537 11519 9547 11530 18 21 13 25 -561 500
-319 264 -579 485 -578 492 3 10 3439 4166 5435 6572 130 156 236 289 237 296
1 10 -237 211 -884 745 -70 58 -293 242 -495 410 -202 168 -398 330 -435 360
-65 53 -495 408 -990 819 -452 374 -581 482 -1414 1171 -461 382 -896 742
-966 800 -70 58 -203 168 -296 245 -93 77 -614 509 -1159 959 -544 451 -1053
872 -1130 936 -294 244 -684 567 -784 649 -57 47 -212 176 -345 286 -133 111
-246 204 -252 207 -6 4 -37 -25 -70 -65z m3775 -4632 c2052 -1699 3731 -3092
3731 -3095 0 -6 -75 -98 -520 -635 -114 -137 -1101 -1330 -2194 -2650 -1093
-1320 -1991 -2400 -1995 -2400 -5 0 -1639 1350 -3632 3000 -1992 1650 -3678
3046 -3746 3101 l-122 102 2356 2845 c2082 2515 2358 2845 2373 2834 9 -7
1696 -1402 3749 -3102z m-6495 -8036 c6 -6 -701 -6415 -710 -6428 -2 -1 -492
402 -1091 898 -598 496 -1091 900 -1095 899 -7 -3 -6267 -7562 -6264 -7564 0
-1 777 19 1726 44 l1725 45 27 26 c14 14 303 361 642 770 l615 745 -30 50
c-456 763 -360 1697 240 2328 305 321 715 527 1152 578 168 20 463 8 617 -24
602 -128 1100 -518 1361 -1068 304 -638 238 -1373 -175 -1949 -72 -101 -241
-279 -339 -358 -427 -343 -981 -489 -1525 -401 -94 15 -274 64 -369 101 -67
25 -84 29 -97 18 -8 -7 -373 -417 -811 -911 -463 -522 -805 -900 -817 -903
-12 -2 -1153 -106 -2536 -230 -1511 -136 -2524 -231 -2537 -238 -13 -7 -711
-843 -1552 -1859 l-1528 -1848 81 -123 c240 -364 389 -751 458 -1190 30 -191
32 -599 5 -777 -41 -265 -108 -501 -202 -715 -397 -897 -1234 -1493 -2229
-1586 -157 -14 -509 -7 -651 15 -516 77 -977 270 -1388 579 -550 415 -940
1002 -1102 1662 -60 246 -78 398 -79 670 0 265 13 397 63 615 240 1044 1063
1831 2121 2029 189 35 302 45 525 45 455 -1 887 -100 1268 -291 49 -24 92 -43
96 -41 5 2 312 371 684 820 l676 816 -136 2429 -137 2429 929 1194 c510 657
928 1200 929 1206 1 6 -125 115 -279 243 -295 244 -360 310 -415 425 -49 105
-65 177 -64 306 1 138 29 239 95 340 57 88 1607 1961 1688 2040 126 123 257
179 432 188 169 8 318 -37 444 -133 127 -97 2015 -1667 2053 -1707 79 -83 137
-189 167 -303 19 -76 19 -240 -1 -325 -34 -146 -35 -148 -890 -1182 -443 -535
-833 -1002 -868 -1038 -198 -203 -510 -256 -771 -130 -80 39 -133 79 -605 473
l-175 145 -22 -21 c-33 -34 -1624 -1959 -1629 -1972 -5 -13 372 -3164 384
-3208 6 -25 275 297 3987 4780 2189 2644 3981 4809 3982 4812 1 3 -487 411
-1086 906 -599 495 -1086 902 -1084 905 2 3 1353 465 3001 1026 l2997 1021 55
-45 c30 -25 59 -49 64 -53z" />
    <path
      d="M32777 39469 l-755 -912 61 -51 c66 -56 995 -823 1013 -837 7 -6 275
310 762 899 413 499 751 911 752 915 1 7 -1066 897 -1075 897 -2 0 -343 -410
-758 -911z" />
    <path
      d="M36781 36160 c-414 -500 -752 -912 -752 -915 0 -4 242 -207 537 -451
l537 -445 23 23 c12 13 353 423 757 912 l735 888 -61 52 c-66 56 -995 824
-1013 837 -6 5 -288 -327 -763 -901z" />
  </g>
</svg>