 <svg id="visibility" viewBox="0 0 16 16" xmlns="http://www.w3.org/2000/svg">
    <path d="M7.99984 2.66699C4.6665 2.66699 1.81984 4.74033 0.666504 7.66699C1.81984 10.5937 4.6665 12.667 7.99984 12.667C11.3332 12.667 14.1798 10.5937 15.3332 7.66699C14.1798 4.74033 11.3332 2.66699 7.99984 2.66699ZM7.99984 11.0003C6.15984 11.0003 4.6665 9.50699 4.6665 7.66699C4.6665 5.82699 6.15984 4.33366 7.99984 4.33366C9.83984 4.33366 11.3332 5.82699 11.3332 7.66699C11.3332 9.50699 9.83984 11.0003 7.99984 11.0003ZM7.99984 5.66699C6.89317 5.66699 5.99984 6.56033 5.99984 7.66699C5.99984 8.77366 6.89317 9.66699 7.99984 9.66699C9.1065 9.66699 9.99984 8.77366 9.99984 7.66699C9.99984 6.56033 9.1065 5.66699 7.99984 5.66699Z" fill-opacity="0.54" />
  </svg>