<svg id="visibilityOff" viewBox="0 0 16 16" xmlns="http://www.w3.org/2000/svg">
    <path d="M7.99984 4.33378C9.83984 4.33378 11.3332 5.82711 11.3332 7.66711C11.3332 8.00711 11.2665 8.33378 11.1732 8.64044L13.2132 10.6804C14.1398 9.86044 14.8732 8.83378 15.3332 7.66044C14.1798 4.74044 11.3332 2.66711 7.99984 2.66711C7.15317 2.66711 6.33984 2.80044 5.57317 3.04711L7.01984 4.49378C7.33317 4.40044 7.65984 4.33378 7.99984 4.33378ZM1.8065 2.10711C1.5465 2.36711 1.5465 2.78711 1.8065 3.04711L3.11984 4.36044C2.03984 5.22044 1.17984 6.35378 0.666504 7.66711C1.81984 10.5938 4.6665 12.6671 7.99984 12.6671C9.01317 12.6671 9.97984 12.4671 10.8732 12.1204L12.6865 13.9338C12.9465 14.1938 13.3665 14.1938 13.6265 13.9338C13.8865 13.6738 13.8865 13.2538 13.6265 12.9938L2.75317 2.10711C2.49317 1.84711 2.0665 1.84711 1.8065 2.10711ZM7.99984 11.0004C6.15984 11.0004 4.6665 9.50711 4.6665 7.66711C4.6665 7.15378 4.7865 6.66711 4.99317 6.24044L6.03984 7.28711C6.01984 7.40711 5.99984 7.53378 5.99984 7.66711C5.99984 8.77378 6.89317 9.66711 7.99984 9.66711C8.13317 9.66711 8.25317 9.64711 8.37984 9.62044L9.4265 10.6671C8.99317 10.8804 8.51317 11.0004 7.99984 11.0004ZM9.97984 7.44711C9.87984 6.51378 9.1465 5.78711 8.21984 5.68711L9.97984 7.44711Z" fill-opacity="0.54" />
  </svg>