<?xml version="1.0" encoding="UTF-8"?>
<!DOCTYPE svg PUBLIC "-//W3C//DTD SVG 1.1//EN" "http://www.w3.org/Graphics/SVG/1.1/DTD/svg11.dtd">
<!-- Creator: CorelDRAW -->
<svg xmlns="http://www.w3.org/2000/svg" xml:space="preserve" width="100px" height="100px" version="1.1" style="shape-rendering:geometricPrecision; text-rendering:geometricPrecision; image-rendering:optimizeQuality; fill-rule:evenodd; clip-rule:evenodd"
viewBox="0 0 4.29 4.29"
 xmlns:xlink="http://www.w3.org/1999/xlink"
 xmlns:xodm="http://www.corel.com/coreldraw/odm/2003">
 <defs>
  <style type="text/css">
   <![CDATA[
    .fil0 {fill:none}
    .fil1 {fill:black}
   ]]>
  </style>
 </defs>
 <g id="Layer_x0020_1">
  <metadata id="CorelCorpID_0Corel-Layer"/>
  <rect class="fil0" transform="matrix(2.64845E-14 -1 1 2.64845E-14 -2.53226E-05 4.288)" width="4.29" height="4.29"/>
  <path class="fil1" d="M3.46 3.77c0.01,0.01 0.03,0.01 0.04,0.01 0.03,0 0.06,-0.01 0.09,-0.02l0.12 -0.07c0.04,-0.03 0.07,-0.07 0.08,-0.12 0.02,-0.04 0.01,-0.1 -0.01,-0.14 -0.03,-0.03 -0.03,-0.07 -0.02,-0.09 0.01,-0.02 0.04,-0.03 0.09,-0.03 0.1,0 0.18,-0.08 0.18,-0.18l0 -0.13c0,-0.1 -0.08,-0.18 -0.18,-0.18 -0.05,0 -0.08,-0.02 -0.09,-0.04 -0.01,-0.02 0,-0.05 0.02,-0.09 0.02,-0.04 0.03,-0.09 0.01,-0.14 -0.01,-0.04 -0.04,-0.08 -0.08,-0.11l-0.12 -0.07c-0.08,-0.05 -0.19,-0.02 -0.24,0.06l0 0.02c-0.05,0.07 -0.1,0.07 -0.14,0l-0.01 -0.02c-0.05,-0.08 -0.15,-0.11 -0.23,-0.06l-0.12 0.07c-0.05,0.02 -0.08,0.06 -0.09,0.11 -0.01,0.05 -0.01,0.1 0.02,0.14 0.02,0.04 0.02,0.07 0.01,0.09 -0.01,0.02 -0.04,0.03 -0.08,0.03 -0.11,0 -0.19,0.09 -0.19,0.19l0 0.12c0,0.11 0.08,0.19 0.19,0.19 0.04,0 0.07,0.01 0.08,0.03 0.01,0.02 0.01,0.06 -0.01,0.09 -0.03,0.04 -0.03,0.09 -0.02,0.14 0.01,0.05 0.04,0.09 0.09,0.12l0.12 0.06c0.03,0.03 0.08,0.03 0.12,0.02 0.05,-0.01 0.08,-0.04 0.11,-0.08l0.01 -0.01c0.04,-0.07 0.09,-0.07 0.13,0l0.01 0.01c0.03,0.04 0.06,0.07 0.11,0.08zm-0.18 -0.92c0.11,0 0.21,0.1 0.21,0.21 0,0.12 -0.1,0.21 -0.21,0.21 -0.12,0 -0.21,-0.09 -0.21,-0.21 0,-0.11 0.09,-0.21 0.21,-0.21z"/>
  <circle class="fil1" cx="2.14" cy="1.21" r="0.69"/>
  <path class="fil1" d="M2.14 2.38c0.13,0 0.25,0.01 0.37,0.02 -0.15,0.18 -0.25,0.41 -0.25,0.66 0,0.27 0.11,0.52 0.28,0.7l-2 0 0 -0.6c0,-0.43 0.72,-0.78 1.6,-0.78z"/>
 </g>
</svg>
