<?xml version="1.0" encoding="UTF-8"?>
<!DOCTYPE svg PUBLIC "-//W3C//DTD SVG 1.1//EN" "http://www.w3.org/Graphics/SVG/1.1/DTD/svg11.dtd">
<!-- Creator: CorelDRAW -->
<svg xmlns="http://www.w3.org/2000/svg" xml:space="preserve" width="100px" height="100px" version="1.1" style="shape-rendering:geometricPrecision; text-rendering:geometricPrecision; image-rendering:optimizeQuality; fill-rule:evenodd; clip-rule:evenodd"
viewBox="0 0 4.29 4.29"
 xmlns:xlink="http://www.w3.org/1999/xlink"
 xmlns:xodm="http://www.corel.com/coreldraw/odm/2003">
 <defs>
  <style type="text/css">
   <![CDATA[
    .fil0 {fill:none}
    .fil2 {fill:black}
    .fil1 {fill:black;fill-rule:nonzero}
   ]]>
  </style>
 </defs>
 <g id="Layer_x0020_1">
  <metadata id="CorelCorpID_0Corel-Layer"/>
  <rect class="fil0" transform="matrix(2.64845E-14 -1 1 2.64845E-14 -2.53226E-05 4.288)" width="4.29" height="4.29"/>
  <path class="fil1" d="M3.66 2.06l0 -1.22c0,-0.06 -0.02,-0.11 -0.06,-0.14 -0.04,-0.04 -0.09,-0.07 -0.14,-0.07l-2.6 0c-0.06,0 -0.11,0.02 -0.15,0.06 -0.04,0.04 -0.06,0.09 -0.06,0.15l0 0.65 -0.36 0 0 -0.65c0,-0.16 0.07,-0.3 0.17,-0.4 0.1,-0.1 0.24,-0.16 0.4,-0.16l2.6 0c0.15,0 0.29,0.06 0.4,0.16 0.1,0.1 0.16,0.24 0.16,0.4l0 1.22 -0.36 0z"/>
  <path class="fil1" d="M3.33 2.2l0.73 0c0.05,0 0.1,0.02 0.14,0.06 0.04,0.04 0.06,0.09 0.06,0.14l0 1.37c0,0.06 -0.02,0.11 -0.06,0.14 -0.04,0.04 -0.09,0.06 -0.14,0.06l-0.73 0c-0.06,0 -0.11,-0.02 -0.15,-0.06 -0.03,-0.03 -0.05,-0.08 -0.05,-0.14l0 -1.37c0,-0.05 0.02,-0.1 0.05,-0.14 0.04,-0.04 0.09,-0.06 0.15,-0.06zm0.73 0.18l-0.73 0c-0.01,0 -0.02,0 -0.02,0.01 0,0 -0.01,0.01 -0.01,0.01l0 1.37c0,0.01 0.01,0.01 0.01,0.02 0,0 0.01,0 0.02,0l0.73 0c0.01,0 0.01,0 0.01,0 0.01,-0.01 0.01,-0.01 0.01,-0.02l0 -1.37c0,0 0,-0.01 0,-0.01 -0.01,-0.01 -0.01,-0.01 -0.02,-0.01z"/>
  <path class="fil2" d="M1.98 2.82l0.51 0 0.5 0 0 0.36 -0.5 0 0 0.16 0 0.14 0.29 0c0.05,0 0.09,0.04 0.09,0.1 0,0.05 -0.04,0.1 -0.09,0.1l-0.29 0 -0.32 0 -0.19 0 0 -0.34 0 -0.16 0 -0.36z"/>
  <circle class="fil2" cx="3.7" cy="2.53" r="0.08"/>
  <path class="fil1" d="M0.35 1.64l1.19 0c0.08,0 0.16,0.03 0.22,0.09 0.05,0.06 0.09,0.13 0.09,0.22l0 1.75c0,0.09 -0.04,0.16 -0.09,0.22l0 0c-0.06,0.06 -0.14,0.09 -0.22,0.09l-0.6 0 0 0 0 -0.12 0 0.12 -0.59 0c-0.09,0 -0.17,-0.03 -0.22,-0.09l0 0c-0.06,-0.06 -0.1,-0.13 -0.1,-0.22l0 -1.75c0,-0.09 0.04,-0.16 0.1,-0.22l0 0c0.05,-0.06 0.13,-0.09 0.22,-0.09zm0.59 1.97l0.04 0 0.56 0c0.01,0 0.02,-0.01 0.03,-0.02 0.01,-0.01 0.02,-0.02 0.02,-0.03l0 -1.61c0,-0.01 -0.01,-0.03 -0.02,-0.04 -0.01,0 -0.02,-0.01 -0.03,-0.01l-1.19 0c-0.02,0 -0.03,0.01 -0.04,0.01 -0.01,0.01 -0.01,0.03 -0.01,0.04l0 1.61c0,0.01 0,0.02 0.01,0.03 0.01,0.01 0.02,0.02 0.04,0.02l0.59 0zm0 0.28c0.01,0 0.01,0 0.02,0 0.03,-0.01 0.06,-0.04 0.06,-0.08 0,-0.03 -0.02,-0.06 -0.05,-0.07 -0.01,0 -0.02,0 -0.03,0l0 -0.13 0 0.13c-0.04,0 -0.08,0.03 -0.08,0.07 0,0.05 0.04,0.08 0.08,0.08z"/>
 </g>
</svg>
