<?xml version="1.0" encoding="UTF-8"?>
<!DOCTYPE svg PUBLIC "-//W3C//DTD SVG 1.1//EN" "http://www.w3.org/Graphics/SVG/1.1/DTD/svg11.dtd">
<!-- Creator: CorelDRAW -->
<svg xmlns="http://www.w3.org/2000/svg" xml:space="preserve" width="100px" height="100px" version="1.1" style="shape-rendering:geometricPrecision; text-rendering:geometricPrecision; image-rendering:optimizeQuality; fill-rule:evenodd; clip-rule:evenodd"
viewBox="0 0 4.29 4.29"
 xmlns:xlink="http://www.w3.org/1999/xlink"
 xmlns:xodm="http://www.corel.com/coreldraw/odm/2003">
 <defs>
  <style type="text/css">
   <![CDATA[
    .fil0 {fill:none}
    .fil1 {fill:black}
   ]]>
  </style>
 </defs>
 <g id="Layer_x0020_1">
  <metadata id="CorelCorpID_0Corel-Layer"/>
  <rect class="fil0" width="4.29" height="4.29"/>
  <path class="fil1" d="M0.56 0.14l3.17 0c0.31,0 0.56,0.26 0.56,0.56l0 1.71 0 0.3 0 1.43 -0.89 -0.87 -0.28 0 0 0 0 -1.3 0 1.3 -0.96 0 -0.01 0 0 -1.3 0 1.3 -0.95 0 0 0 0 -1.3 0 1.3 -0.64 0c-0.31,0 -0.56,-0.25 -0.56,-0.56l0 -2.01c0,-0.3 0.25,-0.56 0.56,-0.56zm0.64 1.83l0 0c0.14,-0.01 0.25,-0.12 0.25,-0.26 0,-0.14 -0.12,-0.26 -0.26,-0.26 -0.14,0 -0.26,0.12 -0.26,0.26 0,0.14 0.12,0.26 0.26,0.26 0,0 0,0 0.01,0zm0.95 0c0.01,0 0.01,0 0.01,0 0.14,0 0.25,-0.12 0.25,-0.26 0,-0.14 -0.11,-0.26 -0.26,-0.26 -0.14,0 -0.25,0.12 -0.25,0.26 0,0.14 0.11,0.26 0.25,0.26zm0.97 0c0,0 0,0 0,0 0.14,0 0.26,-0.12 0.26,-0.26 0,-0.14 -0.12,-0.26 -0.26,-0.26 -0.14,0 -0.26,0.12 -0.26,0.26 0,0.14 0.12,0.26 0.26,0.26z"/>
 </g>
</svg>
