<?xml version="1.0" encoding="UTF-8"?>
<!DOCTYPE svg PUBLIC "-//W3C//DTD SVG 1.1//EN" "http://www.w3.org/Graphics/SVG/1.1/DTD/svg11.dtd">
<!-- Creator: CorelDRAW -->
<svg xmlns="http://www.w3.org/2000/svg" xml:space="preserve" width="100px" height="100px" version="1.1" style="shape-rendering:geometricPrecision; text-rendering:geometricPrecision; image-rendering:optimizeQuality; fill-rule:evenodd; clip-rule:evenodd"
viewBox="0 0 4.29 4.29"
 xmlns:xlink="http://www.w3.org/1999/xlink"
 xmlns:xodm="http://www.corel.com/coreldraw/odm/2003">
 <defs>
  <style type="text/css">
   <![CDATA[
    .fil0 {fill:none}
    .fil1 {fill:black;fill-rule:nonzero}
   ]]>
  </style>
 </defs>
 <g id="Layer_x0020_1">
  <metadata id="CorelCorpID_0Corel-Layer"/>
  <rect class="fil0" width="4.29" height="4.29"/>
  <path class="fil1" d="M0.48 2.79l0.04 0 0 -0.38 -0.04 0c-0.07,0 -0.14,-0.03 -0.19,-0.08 -0.04,-0.05 -0.07,-0.11 -0.07,-0.19l0 0 0.12 0 -0.12 0c0,0 0,-0.01 0,-0.02 0,-0.06 0.03,-0.12 0.07,-0.16 0.05,-0.05 0.12,-0.08 0.19,-0.08l0.04 0 0 -0.38 -0.04 0c-0.07,0 -0.14,-0.03 -0.19,-0.08 -0.04,-0.05 -0.07,-0.12 -0.07,-0.19l0 0 0.12 0 -0.12 0c0,-0.01 0,-0.02 0,-0.03 0,-0.06 0.03,-0.12 0.07,-0.16 0.05,-0.05 0.12,-0.08 0.19,-0.08l0.04 0 0 -0.19c0,-0.28 0.23,-0.51 0.5,-0.51l1.28 0 0 0.96 0 -0.96 0 0 1.26 0c0.28,0 0.51,0.23 0.51,0.51l0 2.75c0,0.28 -0.23,0.51 -0.51,0.51l-1.25 0 -0.01 0 0 -0.96 0 0.96 -1.28 0c-0.27,0 -0.5,-0.23 -0.5,-0.51l0 -0.19 -0.04 0c-0.07,0 -0.14,-0.03 -0.19,-0.08 -0.04,-0.05 -0.07,-0.12 -0.07,-0.19l0 0 0.12 0 -0.12 0c0,-0.01 0,-0.02 0,-0.03 0,-0.06 0.03,-0.12 0.07,-0.16 0.05,-0.05 0.12,-0.08 0.19,-0.08zm-0.14 0.27c0,0.04 0.02,0.07 0.04,0.1 0.03,0.02 0.06,0.04 0.1,0.04l0.53 0c0.04,0 0.08,-0.02 0.1,-0.04 0.03,-0.03 0.04,-0.06 0.04,-0.1 0,-0.04 -0.01,-0.08 -0.04,-0.1 -0.02,-0.03 -0.06,-0.04 -0.1,-0.04l-0.53 0c-0.04,0 -0.07,0.01 -0.1,0.04 -0.02,0.02 -0.04,0.05 -0.04,0.09 0,0 0,0 0,0.01zm0 -0.92c0,0.04 0.02,0.08 0.04,0.1 0.03,0.03 0.06,0.05 0.1,0.05l0.53 0c0.04,0 0.08,-0.02 0.1,-0.05 0.03,-0.02 0.04,-0.06 0.04,-0.1 0,-0.04 -0.01,-0.07 -0.04,-0.1 -0.02,-0.02 -0.06,-0.04 -0.1,-0.04l-0.53 0c-0.04,0 -0.07,0.02 -0.1,0.04 -0.02,0.03 -0.04,0.06 -0.04,0.09 0,0.01 0,0.01 0,0.01zm0 -0.91c0,0.04 0.02,0.07 0.04,0.1 0.03,0.03 0.06,0.04 0.1,0.04l0.53 0c0.04,0 0.08,-0.01 0.1,-0.04 0.03,-0.03 0.04,-0.06 0.04,-0.1 0,-0.04 -0.01,-0.08 -0.04,-0.1 -0.02,-0.03 -0.06,-0.04 -0.1,-0.04l-0.53 0c-0.04,0 -0.07,0.01 -0.1,0.04 -0.02,0.02 -0.04,0.05 -0.04,0.09 0,0 0,0.01 0,0.01zm1.96 1.84l0.05 0 0.86 0 0 -0.34c0,-0.24 -0.41,-0.44 -0.91,-0.44 -0.51,0 -0.92,0.2 -0.92,0.44l0 0.34 0.92 0zm0 -1.85c-0.22,0 -0.4,0.18 -0.4,0.4 0,0.22 0.18,0.4 0.4,0.4 0.22,0 0.39,-0.18 0.39,-0.4 0,-0.2 -0.15,-0.37 -0.35,-0.39 -0.01,-0.01 -0.03,-0.01 -0.04,-0.01z"/>
 </g>
</svg>
