<?xml version="1.0" encoding="UTF-8"?>
<!DOCTYPE svg PUBLIC "-//W3C//DTD SVG 1.1//EN" "http://www.w3.org/Graphics/SVG/1.1/DTD/svg11.dtd">
<!-- Creator: CorelDRAW -->
<svg xmlns="http://www.w3.org/2000/svg" xml:space="preserve" width="100px" height="100px" version="1.1" style="shape-rendering:geometricPrecision; text-rendering:geometricPrecision; image-rendering:optimizeQuality; fill-rule:evenodd; clip-rule:evenodd"
viewBox="0 0 5.43 5.43"
 xmlns:xlink="http://www.w3.org/1999/xlink"
 xmlns:xodm="http://www.corel.com/coreldraw/odm/2003">
 <defs>
  <style type="text/css">
   <![CDATA[
    .str0 {stroke:black;stroke-width:0.54;stroke-linecap:round;stroke-linejoin:round;stroke-miterlimit:22.9256}
    .fil0 {fill:none}
    .fil1 {fill:black}
   ]]>
  </style>
 </defs>
 <g id="Layer_x0020_1">
  <metadata id="CorelCorpID_0Corel-Layer"/>
  <rect class="fil0" width="5.43" height="5.43"/>
  <path class="fil0 str0" d="M0.3 2.72c0.24,-0.95 1.08,-1.99 2.42,-1.99 1.33,0 2.17,1.04 2.41,1.99 -0.24,0.95 -1.08,1.98 -2.41,1.98 -1.34,0 -2.18,-1.03 -2.42,-1.98z"/>
  <path class="fil1" d="M2.72 2.72l1.06 -0.36c0.04,0.11 0.06,0.23 0.06,0.36 0,0.62 -0.5,1.12 -1.12,1.12 -0.62,0 -1.12,-0.5 -1.12,-1.12 0,-0.62 0.5,-1.12 1.12,-1.12 0.14,0 0.28,0.02 0.41,0.08l-0.41 1.04z"/>
 </g>
</svg>
