<?xml version="1.0" encoding="UTF-8"?>
<!DOCTYPE svg PUBLIC "-//W3C//DTD SVG 1.1//EN" "http://www.w3.org/Graphics/SVG/1.1/DTD/svg11.dtd">
<!-- Creator: CorelDRAW -->
<svg xmlns="http://www.w3.org/2000/svg" xml:space="preserve" width="100px" height="100px" version="1.1" style="shape-rendering:geometricPrecision; text-rendering:geometricPrecision; image-rendering:optimizeQuality; fill-rule:evenodd; clip-rule:evenodd"
viewBox="0 0 4.86 4.86"
 xmlns:xlink="http://www.w3.org/1999/xlink"
 xmlns:xodm="http://www.corel.com/coreldraw/odm/2003">
 <defs>
  <style type="text/css">
   <![CDATA[
    .str0 {stroke:black;stroke-width:0.81;stroke-linecap:round;stroke-linejoin:round;stroke-miterlimit:22.9256}
    .str1 {stroke:black;stroke-width:0.41;stroke-linecap:round;stroke-linejoin:round;stroke-miterlimit:22.9256}
    .fil0 {fill:none}
    .fil1 {fill:black}
   ]]>
  </style>
 </defs>
 <g id="Layer_x0020_1">
  <metadata id="CorelCorpID_0Corel-Layer"/>
  <line class="fil0 str0" x1="3.6" y1="0.41" x2="1.27" y2= "4.45" />
  <rect class="fil0" width="4.86" height="4.86"/>
  <path class="fil0 str1" d="M0.27 2.44c0.21,-0.85 0.97,-1.79 2.17,-1.79 1.19,0 1.94,0.94 2.15,1.79 -0.21,0.85 -0.96,1.77 -2.15,1.77 -1.2,0 -1.96,-0.92 -2.17,-1.77z"/>
  <path class="fil1" d="M2.44 2.44l0.95 -0.33c0.03,0.1 0.05,0.21 0.05,0.33 0,0.55 -0.45,1 -1,1 -0.56,0 -1.01,-0.45 -1.01,-1 0,-0.56 0.45,-1.01 1.01,-1.01 0.12,0 0.25,0.02 0.36,0.07l-0.36 0.94 0 0z"/>
 </g>
</svg>
