<?xml version="1.0" encoding="UTF-8"?>
<!DOCTYPE svg PUBLIC "-//W3C//DTD SVG 1.1//EN" "http://www.w3.org/Graphics/SVG/1.1/DTD/svg11.dtd">
<!-- Creator: CorelDRAW -->
<svg xmlns="http://www.w3.org/2000/svg" xml:space="preserve" width="100px" height="100px" version="1.1" style="shape-rendering:geometricPrecision; text-rendering:geometricPrecision; image-rendering:optimizeQuality; fill-rule:evenodd; clip-rule:evenodd"
viewBox="0 0 4.29 4.29"
 xmlns:xlink="http://www.w3.org/1999/xlink"
 xmlns:xodm="http://www.corel.com/coreldraw/odm/2003">
 <defs>
  <style type="text/css">
   <![CDATA[
    .fil0 {fill:none}
    .fil1 {fill:black}
   ]]>
  </style>
 </defs>
 <g id="Layer_x0020_1">
  <metadata id="CorelCorpID_0Corel-Layer"/>
  <rect class="fil0" transform="matrix(2.64845E-14 -1 1 2.64845E-14 -2.53226E-05 4.28805)" width="4.29" height="4.29"/>
  <path class="fil1" d="M3.83 1.07l-0.15 0.15c0.02,0.11 0.15,0.24 0.11,0.54 -0.06,0.45 -0.51,0.75 -0.95,0.64 -0.09,-0.03 -0.17,-0.08 -0.23,-0.1l-0.48 0.5c-0.09,-0.03 -0.33,-0.37 -0.45,-0.43 -0.17,0.07 -0.27,0.16 -0.55,0.12 -0.49,-0.07 -0.88,-0.64 -0.54,-1.23 -0.02,-0.04 -0.14,-0.15 -0.18,-0.19 -0.06,0.07 -0.19,0.35 -0.23,0.46 -0.19,0.57 -0.13,1.2 0.17,1.72 0.57,1 1.85,1.35 2.85,0.72 0.8,-0.5 1.16,-1.52 0.86,-2.42 -0.02,-0.07 -0.16,-0.43 -0.23,-0.48zm-0.95 0.98c0.17,0.12 0.39,0.07 0.52,-0.05 0.17,-0.18 0.14,-0.46 0.05,-0.53 -0.04,0.02 -0.05,0.03 -0.08,0.07 -0.09,0.09 -0.47,0.46 -0.49,0.51zm-1.47 0.03c-0.03,-0.05 -0.23,-0.24 -0.29,-0.3 -0.05,-0.05 -0.26,-0.27 -0.3,-0.29 -0.05,0.1 -0.09,0.16 -0.08,0.3 0.03,0.35 0.44,0.48 0.67,0.29zm-0.69 -1.31c0.07,-0.11 0.41,-0.32 0.56,-0.39 0.64,-0.3 1.39,-0.22 1.97,0.18 0.11,0.08 0.24,0.2 0.27,0.23 -0.03,0.06 -0.28,0.29 -0.34,0.36l-0.7 0.7c-0.06,0.06 -0.31,0.33 -0.36,0.35l-1.05 -1.07c-0.12,-0.12 -0.24,-0.25 -0.35,-0.36zm-0.28 0c0.14,0.16 0.84,0.86 1.04,1.07 0.07,0.07 0.14,0.15 0.22,0.21 0.1,0.09 0.36,0.39 0.42,0.43 0.05,-0.01 0.07,-0.05 0.11,-0.09l1.56 -1.58c-0.05,-0.1 -0.22,-0.24 -0.3,-0.31 -0.64,-0.55 -1.6,-0.65 -2.36,-0.27 -0.34,0.16 -0.46,0.31 -0.69,0.54z"/>
 </g>
</svg>
