<?xml version="1.0" encoding="UTF-8"?>
<!DOCTYPE svg PUBLIC "-//W3C//DTD SVG 1.1//EN" "http://www.w3.org/Graphics/SVG/1.1/DTD/svg11.dtd">
<!-- Creator: CorelDRAW -->
<svg xmlns="http://www.w3.org/2000/svg" xml:space="preserve" width="100px" height="100px" version="1.1" style="shape-rendering:geometricPrecision; text-rendering:geometricPrecision; image-rendering:optimizeQuality; fill-rule:evenodd; clip-rule:evenodd"
viewBox="0 0 4.29 4.29"
 xmlns:xlink="http://www.w3.org/1999/xlink"
 xmlns:xodm="http://www.corel.com/coreldraw/odm/2003">
 <defs>
  <style type="text/css">
   <![CDATA[
    .fil0 {fill:none}
    .fil1 {fill:#241824;fill-rule:nonzero}
   ]]>
  </style>
 </defs>
 <g id="Layer_x0020_1">
  <metadata id="CorelCorpID_0Corel-Layer"/>
  <rect class="fil0" width="4.29" height="4.29"/>
  <path id="logo.svg" class="fil1" d="M3.7 1.94c0.05,0.03 0.12,0.04 0.19,0.04 0.12,0 0.21,-0.03 0.29,-0.1 0.07,-0.06 0.11,-0.15 0.11,-0.24l0 -0.44 -0.3 0 0 0.44c0,0.02 -0.01,0.04 -0.03,0.06 -0.02,0.02 -0.04,0.03 -0.07,0.03 -0.03,0 -0.05,-0.01 -0.07,-0.03 -0.02,-0.02 -0.03,-0.04 -0.03,-0.06l0 -0.44 -0.3 0 0 0.22 -0.17 0.03 -0.62 -0.41 -0.21 -0.28c0.02,-0.02 0.03,-0.03 0.03,-0.04 0.01,0 0.02,-0.01 0.02,-0.01l-0.18 -0.17 -0.02 0.01c-0.01,0.02 -0.04,0.03 -0.06,0.04 -0.03,0.02 -0.06,0.02 -0.09,0.02 -0.05,0 -0.09,-0.01 -0.13,-0.04 -0.03,-0.03 -0.05,-0.07 -0.05,-0.11 0,-0.04 0.02,-0.08 0.05,-0.11 0.04,-0.03 0.08,-0.04 0.13,-0.04 0.03,0 0.06,0.01 0.09,0.02 0.03,0.01 0.05,0.03 0.06,0.03 0.01,0.01 0.01,0.02 0.02,0.02l0.18 -0.17 -0.02 -0.01c0,-0.01 -0.02,-0.03 -0.04,-0.04 -0.02,-0.02 -0.04,-0.03 -0.07,-0.05 -0.03,-0.01 -0.06,-0.02 -0.11,-0.03 -0.04,-0.01 -0.08,-0.02 -0.13,-0.02 -0.13,0 -0.24,0.04 -0.33,0.12 -0.08,0.08 -0.13,0.17 -0.13,0.28 0,0.09 0.03,0.17 0.09,0.24l-0.22 0.32 -0.65 0.44 -0.22 -0.04c0,-0.05 -0.03,-0.1 -0.09,-0.14 -0.05,-0.04 -0.13,-0.06 -0.23,-0.06l-0.39 0 0 0.76 0.42 0c0.07,0 0.14,-0.01 0.19,-0.04l0.15 0.23 -0.1 0.15 -0.16 0 0 0.43c0,0.03 -0.01,0.05 -0.03,0.07 -0.02,0.02 -0.05,0.03 -0.07,0.03 -0.03,0 -0.05,-0.01 -0.07,-0.03 -0.02,-0.02 -0.03,-0.04 -0.03,-0.07l0 -0.43 -0.3 0 0 0.43c0,0.1 0.04,0.18 0.11,0.25 0.08,0.06 0.17,0.1 0.29,0.1 0.12,0 0.21,-0.04 0.29,-0.1 0.07,-0.06 0.1,-0.14 0.11,-0.23l0.74 0.55 0.23 0.34 0 0.07 0.21 0 0 0.5 0.3 0 0 -0.5 0.2 0 0 -0.05 0.26 -0.36 0.78 -0.55 0 0.33 0.3 0 0 -0.2 0.1 0c0.1,0 0.18,-0.02 0.24,-0.08 0.06,-0.05 0.09,-0.12 0.09,-0.2 0,-0.08 -0.03,-0.15 -0.09,-0.2 -0.06,-0.05 -0.14,-0.08 -0.24,-0.08l-0.25 0 -0.13 -0.17 0.16 -0.23zm0.12 0.64l0.08 0c0.01,0 0.03,0 0.04,0.01 0.01,0.01 0.01,0.02 0.01,0.03 0,0.01 0,0.02 -0.01,0.03 -0.01,0.01 -0.03,0.02 -0.04,0.02l-0.08 0 0 -0.09zm-0.29 -0.43l-0.11 -0.15 0.17 -0.13c0,0.01 0.01,0.01 0.01,0.01 0.02,0.02 0.05,0.04 0.08,0.05l-0.15 0.22zm-0.01 0.44l-0.25 -0.04 0.12 -0.17 0.13 0.07 0 0.14 0 0zm-0.27 -0.04l-0.48 -0.07 0.32 -0.24 0.28 0.14 -0.12 0.17zm-0.97 -0.12l0.43 0.06 -0.43 0.32 0 -0.38zm0 -0.02l0 -0.07 -0.3 0 0 0.08 -0.44 0.06 -0.32 -0.25 0.5 -0.25 0.29 0 0 -0.18 0.05 -0.06 0.15 0.24 0.33 0 0 0 0.53 0.25 -0.33 0.25 -0.46 -0.07zm-0.3 0.41l-0.41 -0.32 0.41 -0.06 0 0.38zm-1.18 -0.37l0.11 -0.06 0.11 0.17 -0.22 0.03 0 -0.14zm0.13 -0.07l0.27 -0.14 0.31 0.25 -0.46 0.06 -0.12 -0.17zm-0.2 -0.69c-0.01,-0.02 -0.02,-0.03 -0.03,-0.04l0.24 -0.17 0.28 0.04 -0.32 0.46 -0.18 -0.13c0.02,-0.03 0.03,-0.05 0.03,-0.09 0,-0.02 -0.01,-0.05 -0.02,-0.07zm0.51 -0.16l0.47 0.07 0 0.36 -0.51 0.26 -0.29 -0.22 0.33 -0.47zm-0.06 0.7l-0.26 0.13 -0.13 -0.19 0.11 -0.16 0.28 0.22zm2.4 -0.37l-0.18 0.12 -0.35 -0.48 0.26 -0.03 0.18 0.11 0 0.05c0,0.09 0.03,0.17 0.09,0.23zm-0.19 0.14l-0.3 0.22 -0.57 -0.28 -0.22 -0.33 0.72 -0.1 0.37 0.49zm-0.28 0.23l0.29 -0.22 0.12 0.16 -0.14 0.19 -0.27 -0.13zm0.38 -0.79l0 0.12 -0.15 -0.1 0.15 -0.02zm-0.2 0.01l-0.26 0.03 -0.29 -0.39 0.55 0.36zm-0.82 -0.68l0.18 0.24 -0.28 -0.18c0.01,-0.01 0.03,-0.02 0.04,-0.02 0.02,-0.01 0.04,-0.03 0.06,-0.04zm-0.29 0.09c0.04,0 0.08,-0.01 0.13,-0.02 0.01,0 0.02,0 0.03,-0.01l0.35 0.23 0.32 0.43 -0.72 0.1 -0.03 -0.05 0.26 -0.32 -0.33 0 -0.18 0.23 0 -0.23 -0.3 0 0 0.36 -0.45 -0.07 0.33 -0.48 0.34 -0.23c0.07,0.04 0.15,0.06 0.25,0.06zm-0.36 -0.15c0,0.01 0.01,0.02 0.03,0.03 0.01,0.02 0.04,0.03 0.06,0.05l-0.28 0.19 0.19 -0.27zm-0.28 0.35l-0.31 0.45 -0.27 -0.05 0.58 -0.4zm-1.24 0.37l0.05 0c0.01,0 0.02,0 0.03,0.01 0.01,0.01 0.01,0.02 0.01,0.03 0,0.01 0,0.02 -0.01,0.02 -0.01,0.01 -0.02,0.02 -0.03,0.02l-0.05 0 0 -0.08zm0.12 0.33c-0.01,0.01 -0.02,0.02 -0.04,0.02l-0.08 0 0 -0.09 0.08 0c0.02,0 0.03,0 0.04,0.01 0.01,0.01 0.01,0.02 0.01,0.03 0,0.01 0,0.02 -0.01,0.03zm0.17 -0.19c0.01,0 0.02,0 0.03,-0.01 0.02,-0.01 0.03,-0.02 0.04,-0.03 0.01,-0.01 0.02,-0.03 0.03,-0.05 0.01,-0.01 0.01,-0.03 0.02,-0.04l0.2 0.03 -0.23 0.16c-0.01,-0.01 -0.03,-0.02 -0.04,-0.02 -0.02,-0.01 -0.04,-0.02 -0.04,-0.02 -0.01,-0.01 -0.02,-0.01 -0.02,-0.01l0.01 -0.01zm0.04 0.37c0.01,-0.01 0.02,-0.02 0.03,-0.02 0.02,-0.02 0.04,-0.03 0.05,-0.05l0.17 0.13 -0.1 0.15 -0.15 -0.21zm0.15 0.25l0.12 0.18 -0.1 0.05 0 -0.1 -0.11 0 0.09 -0.13zm0.02 0.56l0 -0.14 0.24 -0.03 0.46 0.69 -0.7 -0.52zm0.79 0.61l0.18 0.13 0 0.14 -0.18 -0.27zm0.18 0.11l-0.22 -0.16 -0.49 -0.74 0.48 -0.07 0.43 0.34 0.01 0 0 0.26 0.3 0 0 -0.26 0.46 -0.35 0.5 0.08 -0.52 0.73 -0.24 0.17 -0.71 0zm0.71 0.17l0 -0.14 0.21 -0.15 -0.21 0.29zm0.29 -0.37l0.49 -0.7 0.26 0.04 0 0.13 -0.75 0.53zm0.88 -0.93l-0.13 0 0 0.09 -0.12 -0.06 0.13 -0.18 0.12 0.15z"/>
 </g>
</svg>
