<?xml version="1.0" encoding="UTF-8"?>
<!DOCTYPE svg PUBLIC "-//W3C//DTD SVG 1.1//EN" "http://www.w3.org/Graphics/SVG/1.1/DTD/svg11.dtd">
<svg width="18" height="22" viewBox="0 0 18 22" fill="none" xmlns="http://www.w3.org/2000/svg">
<path fill-rule="evenodd" clip-rule="evenodd" d="M9.02999 0.179993C8.00642 0.179993 7.0957 0.736256 6.62359 1.60991C4.08187 2.5793 2.26999 5.04333 2.26999 7.91998V10.81C2.26999 11.28 2.04999 12.08 1.80999 12.48L0.659991 14.39C0.199991 15.15 0.0999912 16 0.389991 16.77C0.669991 17.54 1.30999 18.13 2.14999 18.42C3.23018 18.7817 4.33905 19.055 5.46256 19.2399C5.64589 19.7893 5.9553 20.2953 6.37002 20.71C7.07002 21.41 8.03002 21.81 9.02002 21.81C10.6781 21.81 12.086 20.732 12.5806 19.2391C13.7013 19.0542 14.8061 18.7812 15.88 18.42C16.67 18.16 17.3 17.56 17.59 16.77C17.88 15.98 17.8 15.11 17.37 14.39L16.23 12.49C15.99 12.08 15.77 11.27 15.77 10.81V7.91998C15.77 5.05346 13.9708 2.59665 11.4432 1.6202C10.9731 0.733501 10.0585 0.179993 9.02999 0.179993ZM10.7803 19.4594C10.1949 19.5065 9.60744 19.53 9.01999 19.53C8.43279 19.53 7.84558 19.5065 7.2603 19.4595C7.31304 19.526 7.36967 19.5896 7.43002 19.65C7.85002 20.07 8.43002 20.31 9.02002 20.31C9.73168 20.31 10.3676 19.9773 10.7803 19.4594ZM3.76999 7.91998C3.76999 5.2828 5.72161 3.10045 8.24867 2.72655C8.73246 2.66251 9.23173 2.66006 9.74212 2.71921C12.3003 3.07097 14.27 5.26498 14.27 7.91998V10.8C14.27 11.53 14.56 12.6 14.94 13.25L16.09 15.16C16.29 15.49 16.32 15.88 16.19 16.24C16.06 16.6 15.78 16.87 15.42 16.99C11.24 18.39 6.80999 18.39 2.62999 16.99C2.21999 16.85 1.91999 16.59 1.79999 16.25C1.66999 15.92 1.72999 15.53 1.94999 15.16L3.09999 13.25C3.46999 12.62 3.76999 11.54 3.76999 10.81V7.91998Z" fill="#353A3B"/>
</svg>



