<?xml version="1.0" encoding="UTF-8"?>
<!DOCTYPE svg PUBLIC "-//W3C//DTD SVG 1.1//EN" "http://www.w3.org/Graphics/SVG/1.1/DTD/svg11.dtd">
<!-- Creator: CorelDRAW -->
<svg xmlns="http://www.w3.org/2000/svg" xml:space="preserve" width="100px" height="100px" version="1.1" style="shape-rendering:geometricPrecision; text-rendering:geometricPrecision; image-rendering:optimizeQuality; fill-rule:evenodd; clip-rule:evenodd"
viewBox="0 0 4.29 4.29"
 xmlns:xlink="http://www.w3.org/1999/xlink"
 xmlns:xodm="http://www.corel.com/coreldraw/odm/2003">
 <defs>
  <style type="text/css">
   <![CDATA[
    .fil0 {fill:none}
    .fil1 {fill:black}
   ]]>
  </style>
 </defs>
 <g id="Layer_x0020_1">
  <metadata id="CorelCorpID_0Corel-Layer"/>
  <rect class="fil0" width="4.29" height="4.29"/>
  <path class="fil1" d="M0.78 1.36c0.25,0 0.46,0.11 0.61,0.29l1.36 -0.67c-0.02,-0.06 -0.03,-0.13 -0.03,-0.2 0,-0.43 0.35,-0.78 0.79,-0.78 0.43,0 0.78,0.35 0.78,0.78 0,0.43 -0.35,0.78 -0.78,0.78 -0.24,0 -0.45,-0.1 -0.6,-0.27l-1.37 0.68c0.02,0.05 0.02,0.11 0.02,0.17 0,0.08 -0.01,0.14 -0.02,0.21l1.32 0.72c0.14,-0.21 0.38,-0.35 0.65,-0.35 0.43,0 0.78,0.35 0.78,0.79 0,0.43 -0.35,0.78 -0.78,0.78 -0.44,0 -0.79,-0.35 -0.79,-0.78 0,-0.04 0.01,-0.07 0.01,-0.11l-1.36 -0.74c-0.15,0.16 -0.36,0.27 -0.59,0.27 -0.43,0 -0.78,-0.35 -0.78,-0.79 0,-0.43 0.35,-0.78 0.78,-0.78z"/>
 </g>
</svg>
