<?xml version="1.0" encoding="UTF-8"?>
<!DOCTYPE svg PUBLIC "-//W3C//DTD SVG 1.1//EN" "http://www.w3.org/Graphics/SVG/1.1/DTD/svg11.dtd">
<!-- Creator: CorelDRAW -->
<svg xmlns="http://www.w3.org/2000/svg" xml:space="preserve" width="100px" height="100px" version="1.1" style="shape-rendering:geometricPrecision; text-rendering:geometricPrecision; image-rendering:optimizeQuality; fill-rule:evenodd; clip-rule:evenodd"
viewBox="0 0 4.29 4.29"
 xmlns:xlink="http://www.w3.org/1999/xlink"
 xmlns:xodm="http://www.corel.com/coreldraw/odm/2003">
 <defs>
  <style type="text/css">
   <![CDATA[
    .fil0 {fill:none}
    .fil1 {fill:black}
   ]]>
  </style>
 </defs>
 <g id="Layer_x0020_1">
  <metadata id="CorelCorpID_0Corel-Layer"/>
  <rect class="fil0" transform="matrix(2.64845E-14 -1 1 2.64845E-14 -2.53226E-05 4.288)" width="4.29" height="4.29"/>
  <g id="_1992800678464">
   <path class="fil1" d="M3.77 2.32c-0.08,0.85 -0.85,1.55 -1.82,1.45 -0.84,-0.09 -1.55,-0.87 -1.43,-1.82 0.09,-0.83 0.86,-1.54 1.82,-1.43 0.84,0.1 1.53,0.85 1.43,1.8zm-3.62 0.03c0.09,1.03 1.04,1.92 2.19,1.79 1.03,-0.11 1.92,-1.01 1.8,-2.2 -0.11,-1.04 -1.04,-1.92 -2.2,-1.79 -1.05,0.11 -1.9,1.01 -1.79,2.2z"/>
   <path class="fil1" d="M2.33 2.05c0,-0.16 0.04,-1 -0.05,-1.1 -0.05,-0.06 -0.18,-0.08 -0.26,-0.01 -0.1,0.09 -0.06,0.84 -0.06,1.08 0,0.31 0.09,0.28 0.57,0.6 0.1,0.07 0.35,0.31 0.5,0.16 0.19,-0.2 -0.13,-0.35 -0.24,-0.43 -0.15,-0.1 -0.31,-0.22 -0.46,-0.3z"/>
  </g>
 </g>
</svg>
