<?xml version="1.0" encoding="UTF-8"?>
<!DOCTYPE svg PUBLIC "-//W3C//DTD SVG 1.1//EN" "http://www.w3.org/Graphics/SVG/1.1/DTD/svg11.dtd">
<!-- Creator: CorelDRAW -->
<svg xmlns="http://www.w3.org/2000/svg" xml:space="preserve" width="100px" height="65px" version="1.1" style="shape-rendering:geometricPrecision; text-rendering:geometricPrecision; image-rendering:optimizeQuality; fill-rule:evenodd; clip-rule:evenodd"
viewBox="0 0 12.63 8.19"
 xmlns:xlink="http://www.w3.org/1999/xlink"
 xmlns:xodm="http://www.corel.com/coreldraw/odm/2003">
 <defs>
  <style type="text/css">
   <![CDATA[
    .str0 {stroke:black;stroke-width:0.03;stroke-miterlimit:22.9256}
    .fil0 {fill:black}
   ]]>
  </style>
 </defs>
 <g id="Layer_x0020_1">
  <metadata id="CorelCorpID_0Corel-Layer"/>
  <circle class="fil0 str0" cx="6.37" cy="3.06" r="1.39"/>
  <path class="fil0 str0" d="M6.37 5.4c1.78,0 3.22,0.7 3.22,1.57l0 1.2 -6.43 0 0 -1.2c0,-0.87 1.44,-1.57 3.21,-1.57z"/>
  <circle class="fil0 str0" cx="10.1" cy="3.06" r="1.39"/>
  <path class="fil0 str0" d="M9.99 5.4c1.45,0 2.63,0.7 2.63,1.57l0 1.2 -2.07 0 0 -1.4c0,-0.53 -0.36,-1.02 -0.93,-1.35 0.12,-0.01 0.24,-0.02 0.37,-0.02z"/>
  <path class="fil0 str0" d="M0.59 0.02l3.28 0c0.32,0 0.58,0.26 0.58,0.57l0 1.77 0 0.31 0 1.48 -0.92 -0.9 -0.28 0 -0.01 0 0 -1.35 0 1.35 -0.99 0 -0.01 0 0 -1.35 0 1.35 -0.99 0 0 0 0 -1.35 0 1.35 -0.66 0c-0.31,0 -0.57,-0.26 -0.57,-0.58l0 -2.08c0,-0.31 0.26,-0.57 0.57,-0.57zm0.66 1.88l0.01 0c0.14,0 0.25,-0.12 0.25,-0.26 0,-0.15 -0.12,-0.27 -0.27,-0.27 -0.14,0 -0.26,0.12 -0.26,0.27 0,0.14 0.12,0.26 0.26,0.26 0.01,0 0.01,0 0.01,0zm0.99 0c0.01,0 0.01,0 0.01,0 0.14,0 0.26,-0.12 0.26,-0.26 0,-0.15 -0.12,-0.27 -0.27,-0.27 -0.14,0 -0.26,0.12 -0.26,0.27 0,0.14 0.12,0.26 0.26,0.26zm1 0c0.01,0 0.01,0 0.01,0 0.14,0 0.26,-0.12 0.26,-0.26 0,-0.15 -0.12,-0.27 -0.27,-0.27 -0.14,0 -0.26,0.12 -0.26,0.27 0,0.14 0.12,0.26 0.26,0.26z"/>
 </g>
</svg>
