<?xml version="1.0" encoding="UTF-8"?>
<!DOCTYPE svg PUBLIC "-//W3C//DTD SVG 1.1//EN" "http://www.w3.org/Graphics/SVG/1.1/DTD/svg11.dtd">
<!-- Creator: CorelDRAW -->
<svg xmlns="http://www.w3.org/2000/svg" xml:space="preserve" width="300px" height="300px" version="1.1" style="shape-rendering:geometricPrecision; text-rendering:geometricPrecision; image-rendering:optimizeQuality; fill-rule:evenodd; clip-rule:evenodd"
viewBox="0 0 287.85 287.85"
 xmlns:xlink="http://www.w3.org/1999/xlink"
 xmlns:xodm="http://www.corel.com/coreldraw/odm/2003">
 <defs>
  <style type="text/css">
   <![CDATA[
    .fil3 {fill:#DBDBDB}
    .fil4 {fill:#E9E9E9}
    .fil1 {fill:#F7F7F7}
    .fil0 {fill:url(#id0)}
    .fil2 {fill:url(#id1)}
   ]]>
  </style>
  <linearGradient id="id0" gradientUnits="userSpaceOnUse" x1="140.8" y1="0.03" x2="147.06" y2="287.82">
   <stop offset="0" style="stop-opacity:1; stop-color:#EFEFEF"/>
   <stop offset="1" style="stop-opacity:1; stop-color:#F2F2F2"/>
  </linearGradient>
  <linearGradient id="id1" gradientUnits="userSpaceOnUse" x1="128.24" y1="53.09" x2="159.62" y2="305.83">
   <stop offset="0" style="stop-opacity:1; stop-color:#F0F0F0"/>
   <stop offset="1" style="stop-opacity:1; stop-color:white"/>
  </linearGradient>
 </defs>
 <g id="Layer_x0020_1">
  <metadata id="CorelCorpID_0Corel-Layer"/>
  <circle class="fil0" cx="143.93" cy="143.93" r="143.93"/>
  <path class="fil1" d="M83.92 46.59l120.02 0c17.95,0 32.64,14.68 32.64,32.64l0 174.83c-25.03,21.09 -57.36,33.79 -92.65,33.79 -35.3,0 -67.62,-12.7 -92.66,-33.79l0 -174.83c0,-17.96 14.69,-32.64 32.65,-32.64z"/>
  <path class="fil2" d="M83.92 51.6l120.02 0c15.19,0 27.63,12.44 27.63,27.63l0 178.86c-24.27,18.67 -54.66,29.76 -87.64,29.76 -32.99,0 -63.37,-11.09 -87.64,-29.76l0 -178.86c0,-15.19 12.43,-27.63 27.63,-27.63z"/>
  <circle class="fil3" cx="143.93" cy="115.06" r="46.04"/>
  <rect class="fil4" x="87.55" y="179.11" width="112.75" height="15.11" rx="2.38" ry="2.38"/>
  <rect class="fil4" x="87.55" y="201.08" width="112.75" height="15.11" rx="2.38" ry="2.38"/>
  <rect class="fil4" x="87.55" y="223.06" width="112.75" height="15.11" rx="2.38" ry="2.38"/>
 </g>
</svg>
