<?xml version="1.0" encoding="UTF-8"?>
<!DOCTYPE svg PUBLIC "-//W3C//DTD SVG 1.1//EN" "http://www.w3.org/Graphics/SVG/1.1/DTD/svg11.dtd">
<!-- Creator: CorelDRAW -->
<svg xmlns="http://www.w3.org/2000/svg" xml:space="preserve" width="587px" height="200px" version="1.1" style="shape-rendering:geometricPrecision; text-rendering:geometricPrecision; image-rendering:optimizeQuality; fill-rule:evenodd; clip-rule:evenodd"
viewBox="0 0 2384.85 812.24"
 xmlns:xlink="http://www.w3.org/1999/xlink"
 xmlns:xodm="http://www.corel.com/coreldraw/odm/2003">
 <defs>
  <style type="text/css">
   <![CDATA[
    .fil2 {fill:black}
    .fil0 {fill:white}
    .fil3 {fill:black;fill-rule:nonzero}
    .fil1 {fill:black;fill-rule:nonzero}
    .fil4 {fill:url(#id0)}
    .fil5 {fill:url(#id1)}
   ]]>
  </style>
  <linearGradient id="id0" gradientUnits="userSpaceOnUse" x1="1208.66" y1="215.68" x2="1476.82" y2="591.13">
   <stop offset="0" style="stop-opacity:0.498039; stop-color:#611E52"/>
   <stop offset="1" style="stop-opacity:0; stop-color:white"/>
  </linearGradient>
  <linearGradient id="id1" gradientUnits="userSpaceOnUse" xlink:href="#id0" x1="905.37" y1="594.71" x2="1173.53" y2="219.26">
  </linearGradient>
 </defs>
 <g id="Layer_x0020_1">
  <metadata id="CorelCorpID_0Corel-Layer"/>
  <g id="_1956076704160">
   <path class="fil0" d="M918.7 374.02c0,0 39.89,21.76 21.49,54.15 -18.4,32.39 -98.28,25.39 -125.67,1.89 30.98,-16.29 104.18,-56.04 104.18,-56.04z"/>
   <path class="fil1" d="M925.3 362.16c0.15,0.08 51.94,28.29 26.7,72.72 -1.38,2.43 -2.98,4.7 -4.78,6.79 -13.34,15.55 -38,22.12 -63.6,22.02 -24.19,-0.1 -49.96,-6.09 -67.28,-15.93 -3.97,-2.25 -7.55,-4.72 -10.65,-7.38 -5.7,-4.88 -6.37,-13.46 -1.49,-19.16 1.15,-1.35 2.51,-2.41 3.99,-3.19 31.67,-16.65 103.81,-55.81 104.02,-55.93 4.24,-2.3 9.16,-2.12 13.09,0.06zm3.08 59.31c8.04,-14.16 -2.94,-25.82 -10.4,-31.61 -14.56,7.89 -48.31,26.18 -74.59,40.24 12,4.06 26.39,6.39 40.33,6.45 18.38,0.07 35.24,-3.67 42.86,-12.55 0.7,-0.81 1.3,-1.66 1.8,-2.53z"/>
   <path class="fil0" d="M785.82 415.48c24.5,15.75 68.61,52.23 34.5,77.7 -38.49,28.74 -140.97,-17.67 -118.49,-30.34l83.99 -47.36z"/>
   <path class="fil1" d="M793.16 404.04c12.6,8.09 30.06,21.35 41.21,36.28 5.45,7.3 9.53,15.19 11.19,23.46 1.89,9.42 0.64,18.82 -5.1,27.75 -2.88,4.48 -6.82,8.69 -12,12.56 -27.37,20.44 -78.66,10.61 -110.35,-3.98 -7.99,-3.67 -14.95,-7.73 -20.17,-11.76 -7.1,-5.49 -11.65,-11.69 -12.65,-18.12 -1.25,-8 1.76,-14.62 9.88,-19.2l84 -47.37c4.52,-2.54 9.89,-2.21 13.98,0.41l0.01 -0.03zm19.39 52.57c-7.11,-9.53 -17.92,-18.49 -27.4,-25.19l-67.14 37.86c3.16,2.01 7.05,4.1 11.48,6.14 25.17,11.59 64.44,20.48 82.68,6.85 2.52,-1.88 4.29,-3.69 5.41,-5.43 1.57,-2.45 1.91,-5.08 1.37,-7.74 -0.77,-3.83 -3.13,-8.11 -6.4,-12.49z"/>
   <polygon class="fil0" points="1116.69,85.57 1279.7,176.61 1250.82,118.04 1078.58,13.59 "/>
   <path class="fil1" d="M1126.84 75.69l121.37 67.78 -7.85 -15.91 -126.76 -76.87 13.24 25zm146.27 112.78l-162.51 -90.75c-2.45,-1.23 -4.56,-3.2 -5.93,-5.82l-38.11 -71.97 0.03 -0.02c-2.14,-4.07 -2.16,-9.12 0.4,-13.34 3.87,-6.41 12.21,-8.46 18.62,-4.58l171.5 104.01c2.47,1.28 4.57,3.34 5.9,6.03l28.88 58.56 -0.01 0.01c1.9,3.86 1.94,8.56 -0.31,12.6 -3.64,6.56 -11.91,8.92 -18.46,5.27z"/>
   <polygon class="fil0" points="1078.58,13.59 304.69,491.04 345.03,557.67 1116.69,85.57 "/>
   <path class="fil1" d="M1073.36 32.77l-750.1 462.76 26.3 43.44 749.15 -458.32 -25.35 -47.88zm-775.8 446.73l773.26 -477.06c0.46,-0.32 0.93,-0.61 1.43,-0.87 6.64,-3.5 14.87,-0.95 18.36,5.69l38.11 71.98c3.32,6.3 1.21,14.17 -4.95,17.93l-771.66 472.1 -0.02 -0.02 -0.04 0.02c-6.4,3.88 -14.74,1.83 -18.62,-4.57l-40.29 -66.53c-3.93,-6.37 -1.96,-14.74 4.42,-18.67z"/>
   <polygon class="fil0" points="1116.69,85.57 1279.7,176.61 562.08,603.09 345.03,557.67 "/>
   <path class="fil1" d="M1123.84 74.01l162.46 90.73c6.56,3.64 8.91,11.91 5.27,18.46 -1.22,2.19 -2.95,3.91 -4.96,5.1l0.01 0.01 -717.62 426.48c-3.2,1.89 -6.86,2.32 -10.2,1.49l-216.54 -45.3c-7.34,-1.53 -12.06,-8.73 -10.53,-16.07 0.79,-3.83 3.13,-6.95 6.22,-8.84l771.66 -472.1c4.52,-2.75 10.01,-2.56 14.23,0.04zm128.65 102.95l-135.47 -75.66 -735.68 450.09 178.33 37.31 692.82 -411.74z"/>
   <path class="fil2" d="M1154.32 144.7c8.43,0 15.27,5.1 15.27,11.39 0,6.29 -6.84,11.39 -15.27,11.39 -8.44,0 -15.27,-5.1 -15.27,-11.39 0,-6.29 6.83,-11.39 15.27,-11.39z"/>
   <path class="fil0" d="M382.78 206.63c123.98,-1.35 188.7,26.69 251.48,15.04 103.74,-19.24 203.73,-38.64 214.66,27.11 3.66,22.04 -30.95,56.22 -104.4,64.49 -207.68,23.37 -258.79,180.35 -421.85,171.66 -94.09,-5 -154.67,52.6 -174.74,51.81 -33.65,-1.32 -142.42,-220.15 -133.88,-251.87 1.8,-6.67 10.55,-10.18 21.35,-12.67 70.29,-16.22 146.36,-66.71 207.24,-104.46 47.09,-29.2 156.45,-126.78 227.22,-121.54 78.88,5.84 139.63,32.47 235.81,37.8 89.64,4.97 157.1,-0.61 215.72,26.57 -41.14,25.38 -95.57,58.97 -125.01,77.13 -56.66,2.56 -84.9,-8.63 -142.22,-11.26 -101.13,-4.65 -164.52,36.13 -164.98,36.08 -33.33,-3.31 -100.07,-8.45 -106.4,-5.89z"/>
   <path class="fil1" d="M425.27 193.72c22.37,0.94 42.58,2.73 61.13,4.81 15.87,-8.75 77.81,-39.82 168.35,-35.66 24.48,1.12 43.55,3.73 61.71,6.21 23.67,3.24 45.74,6.26 75.85,5.19l98.45 -60.74c-36.7,-10.97 -78.18,-12.21 -126.91,-13.68 -18.85,-0.56 -38.73,-1.16 -58.93,-2.28 -53.14,-2.94 -95.21,-12.13 -135.35,-20.9 -33.39,-7.29 -65.43,-14.29 -100.66,-16.9 -49.3,-3.65 -123.8,50.96 -176.29,89.43 -16.64,12.2 -31.15,22.83 -42.85,30.08l-17.8 11.14c-58.38,36.5 -127.7,79.84 -193.53,95.03 -4.33,1 -8.1,2.12 -10.65,3.49 -0.54,0.29 -0.4,-1.29 -0.6,-0.56l-0.03 0.38c-0.7,17.95 22.97,74.87 51,128.99 27.2,52.5 57.27,101.01 70.8,105.39 3.14,-0.41 11.7,-4.98 23.17,-11.11 32.03,-17.12 82.9,-44.3 151.23,-40.66 77.05,4.1 128.84,-31.89 186.11,-71.69 60.36,-41.94 126.47,-87.88 233.56,-99.93 4.53,-0.51 8.78,-1.1 12.77,-1.76 29.23,-4.86 50.52,-14.09 64.09,-24.4 11.07,-8.41 16.3,-16.56 15.65,-22.32l-0.03 -0.31c-7.02,-42.22 -69.65,-38.13 -144.13,-25.75 -16.89,2.81 -33.83,5.95 -50.9,9.12l-3.77 0.7c-34.32,6.37 -67.95,1.78 -110.06,-3.96 -12.25,-1.68 -25.25,-3.45 -39.2,-5.07 -17.08,-1.69 -42.89,-3.86 -64.79,-5.21 -12.24,-0.5 -25.12,-0.73 -38.71,-0.6 -5.79,0.5 -11.48,-2.78 -13.78,-8.45 -2.82,-6.96 0.54,-14.9 7.5,-17.72 4.72,-1.91 20.26,-1.85 39.25,-0.79 2.7,0.14 5.49,0.31 8.35,0.49zm113.76 11.61c35.71,4.82 64.98,8.15 92.79,2.99l3.76 -0.7c17.57,-3.26 35.02,-6.5 51.44,-9.23 6.8,-1.13 13.52,-2.19 20.14,-3.15 -15.95,-2.16 -32.92,-4.28 -53.58,-5.23 -48.23,-2.22 -87.35,6.25 -114.55,15.32zm272.93 -11.3c26.97,6.85 45.36,22.57 50.36,52.52l0.01 0c0.1,0.61 0.18,1.19 0.24,1.74 1.67,14.88 -7.04,32.29 -26.29,46.9 -16.75,12.72 -42.17,23.98 -76.12,29.62 -4.68,0.78 -9.4,1.44 -14.15,1.97 -100.14,11.27 -163.32,55.17 -221,95.25 -61.26,42.57 -116.67,81.07 -203.03,76.47 -60.89,-3.24 -107.64,21.74 -137.08,37.48 -15.91,8.5 -27.55,14.72 -37.5,14.33l-0.37 -0.02c-1.66,-0.09 -3.23,-0.34 -4.72,-0.74 -21.4,-5.77 -57.93,-60.7 -88.31,-119.35 -29.79,-57.51 -54.86,-119.99 -53.98,-142.51 0.1,-2.36 0.39,-4.48 0.89,-6.33 1.99,-7.41 7.02,-12.62 14,-16.37 4.98,-2.67 10.99,-4.55 17.46,-6.04 61.31,-14.15 128.58,-56.21 185.24,-91.63 2.7,-1.69 4.71,-2.95 17.9,-11.13 10.32,-6.4 24.63,-16.89 41.04,-28.91 55.84,-40.93 135.11,-99.03 194.27,-94.65 37.34,2.77 70.22,9.95 104.49,17.43 39.26,8.58 80.39,17.56 131.11,20.37 21.07,1.17 40.12,1.74 58.18,2.28 63.26,1.91 114.91,3.46 162.49,25.52 6.81,3.14 9.79,11.22 6.65,18.03 -1.29,2.79 -3.4,4.94 -5.91,6.28l-115.87 71.49z"/>
   <path class="fil3" d="M1016.93 175.92c6.57,3.33 13.17,6.66 19.74,9.97l19.98 10.05c2.51,1.27 3.52,4.34 2.25,6.85 -0.5,0.99 -1.28,1.75 -2.2,2.22l-49.8 29.31c-1.48,0.87 -3.2,0.91 -4.65,0.26 -14.11,-6.29 -28.23,-12.57 -42.34,-18.87 -2.56,-1.15 -3.72,-4.16 -2.57,-6.73 0.46,-1.02 1.2,-1.81 2.1,-2.33l52.57 -30.63c1.57,-0.91 3.42,-0.88 4.92,-0.1zm15.15 19.07c-5.77,-2.91 -11.57,-5.83 -17.35,-8.76l-41.59 24.23 30.86 13.76 39.72 -23.38 -11.64 -5.85z"/>
   <path class="fil3" d="M1086.17 210.82c13.21,6.67 26.43,13.34 39.65,19.98 2.51,1.25 3.53,4.31 2.28,6.82 -0.45,0.9 -1.13,1.61 -1.94,2.09 -7.64,4.57 -15.26,9.12 -22.86,13.68l-22.78 13.69c-1.47,0.88 -3.21,0.93 -4.67,0.29 -2.98,-1.31 -11.63,-5.17 -20,-8.91l-22.38 -9.97c-2.57,-1.14 -3.72,-4.15 -2.57,-6.72 0.44,-1 1.18,-1.79 2.06,-2.31 16.03,-9.55 32.09,-19.06 48.15,-28.56 1.61,-0.95 3.53,-0.92 5.06,-0.08zm7.16 15.03l-9.43 -4.76c-12.44,7.36 -24.87,14.73 -37.29,22.11l13.39 5.97c4.53,2.02 8.84,3.94 17.56,7.81l20.51 -12.33 14.9 -8.92 -1.69 -0.84 -17.95 -9.04z"/>
   <path class="fil3" d="M921.59 231.16c14.72,5.96 29.44,11.9 44.17,17.83 2.61,1.05 3.88,4.02 2.83,6.63 -0.43,1.08 -1.2,1.94 -2.13,2.49l-50 29.41c-1.35,0.79 -2.9,0.9 -4.27,0.41l0 0.01 -46.92 -16.7c-2.66,-0.94 -4.04,-3.87 -3.09,-6.52 0.46,-1.28 1.37,-2.27 2.5,-2.84l25.98 -15.14 0 -0.01 26.27 -15.32c1.48,-0.86 3.21,-0.9 4.66,-0.25zm12.27 15.96l-13.95 -5.63 -24.1 14.06c-0.01,-0.01 -15.38,8.95 -16.79,9.77 11.44,4.09 22.9,8.15 34.34,12.22 13.01,-7.65 26.02,-15.29 39.01,-22.95l-18.51 -7.47z"/>
   <path class="fil3" d="M998.47 262.19l44.41 17.89c2.61,1.05 3.88,4.01 2.84,6.63 -0.43,1.07 -1.19,1.91 -2.1,2.46l-45.59 27.35c-1.42,0.86 -3.09,0.94 -4.51,0.38l-46.77 -16.64c-2.65,-0.95 -4.04,-3.87 -3.09,-6.52 0.46,-1.29 1.38,-2.28 2.51,-2.85 6.28,-3.74 9.89,-5.87 13.55,-8.04l34.26 -20.3c1.41,-0.84 3.07,-0.91 4.49,-0.34l0 -0.02zm10.74 15.32l-12.21 -4.93c-12.19,7.25 -24.39,14.49 -36.59,21.72l34.42 12.24c11.59,-6.93 23.17,-13.87 34.75,-20.83l-20.37 -8.2z"/>
   <path class="fil3" d="M941.54 229.32c-2.59,-1.1 -3.8,-4.08 -2.71,-6.67 1.09,-2.59 4.07,-3.8 6.66,-2.71l28.05 11.88c2.58,1.09 3.8,4.07 2.71,6.66 -1.09,2.59 -4.08,3.81 -6.66,2.72l-28.05 -11.88z"/>
   <path class="fil3" d="M984.36 247.45c-2.59,-1.09 -3.8,-4.07 -2.71,-6.66 1.09,-2.59 4.08,-3.8 6.66,-2.71l70.22 29.76c2.59,1.1 3.81,4.08 2.72,6.67 -1.09,2.59 -4.08,3.8 -6.67,2.71l-70.22 -29.77z"/>
   <path class="fil3" d="M936.87 291.89c-2.42,1.43 -5.55,0.62 -6.98,-1.8 -1.43,-2.42 -0.63,-5.55 1.8,-6.98l45.43 -26.83c2.43,-1.44 5.56,-0.63 6.99,1.79 1.43,2.43 0.63,5.55 -1.8,6.98l-45.44 26.84z"/>
   <path class="fil3" d="M1062.84 205.69c2.42,-1.42 5.54,-0.6 6.96,1.82 1.42,2.42 0.61,5.54 -1.82,6.96 -5.3,3.11 -13.61,8.03 -21.92,12.95l-0.2 0.12c-2.42,1.43 -5.55,0.63 -6.98,-1.8 -1.43,-2.42 -0.63,-5.55 1.8,-6.98l0.19 -0.12c6.29,-3.72 12.58,-7.44 21.97,-12.95z"/>
   <path class="fil3" d="M1023.41 240.79c-2.45,1.4 -5.57,0.55 -6.97,-1.89 -1.4,-2.45 -0.55,-5.57 1.9,-6.97l3.84 -2.25c2.42,-1.43 5.55,-0.63 6.98,1.8 1.43,2.42 0.63,5.55 -1.8,6.98l-3.95 2.33z"/>
   <path class="fil2" d="M1008.05 196.41c6.59,-1.19 11.94,1.83 11.94,6.76 0,4.92 -5.35,9.87 -11.94,11.06 -6.6,1.19 -11.95,-1.83 -11.95,-6.75 0,-4.93 5.35,-9.88 11.95,-11.07z"/>
   <path class="fil2" d="M1080.76 229.83c6.6,-1.19 11.95,1.83 11.95,6.76 0,4.92 -5.35,9.87 -11.95,11.06 -6.6,1.19 -11.95,-1.83 -11.95,-6.76 0,-4.92 5.35,-9.87 11.95,-11.06z"/>
   <path class="fil2" d="M916.5 250.28c6.59,-1.19 11.94,1.84 11.94,6.76 0,4.93 -5.35,9.88 -11.94,11.07 -6.6,1.19 -11.95,-1.84 -11.95,-6.76 0,-4.92 5.35,-9.88 11.95,-11.07z"/>
   <path class="fil2" d="M995.89 280.46c6.6,-1.19 11.95,1.84 11.95,6.76 0,4.92 -5.35,9.88 -11.95,11.07 -6.59,1.19 -11.94,-1.84 -11.94,-6.76 0,-4.92 5.35,-9.88 11.94,-11.07z"/>
  </g>
  <g id="_1956076713712">
   <path class="fil0" d="M1466.15 438.22c0,0 -39.89,-21.76 -21.49,-54.15 18.4,-32.39 98.28,-25.39 125.67,-1.88 -30.98,16.28 -104.18,56.03 -104.18,56.03z"/>
   <path class="fil1" d="M1459.55 450.08c-0.15,-0.08 -51.94,-28.29 -26.7,-72.72 1.38,-2.43 2.98,-4.7 4.78,-6.79 13.34,-15.54 38,-22.11 63.6,-22.01 24.19,0.09 49.96,6.08 67.28,15.92 3.97,2.25 7.55,4.72 10.65,7.38 5.7,4.88 6.37,13.46 1.49,19.16 -1.15,1.35 -2.51,2.41 -3.99,3.19 -31.67,16.65 -103.81,55.82 -104.02,55.93 -4.24,2.3 -9.16,2.12 -13.09,-0.06zm-3.08 -59.31c-8.04,14.16 2.94,25.81 10.4,31.61 14.56,-7.89 48.31,-26.18 74.59,-40.24 -12,-4.06 -26.39,-6.39 -40.33,-6.45 -18.38,-0.07 -35.24,3.67 -42.86,12.55 -0.7,0.81 -1.3,1.66 -1.8,2.53z"/>
   <path class="fil0" d="M1599.03 396.76c-24.5,-15.75 -68.61,-52.23 -34.5,-77.7 38.49,-28.74 140.97,17.67 118.5,30.34l-84 47.36z"/>
   <path class="fil1" d="M1591.69 408.2c-12.6,-8.09 -30.06,-21.35 -41.21,-36.28 -5.45,-7.3 -9.53,-15.19 -11.19,-23.46 -1.89,-9.42 -0.64,-18.82 5.1,-27.75 2.88,-4.48 6.83,-8.7 12,-12.56 27.37,-20.44 78.66,-10.61 110.36,3.98 7.98,3.68 14.94,7.74 20.16,11.76 7.1,5.49 11.65,11.69 12.65,18.12 1.25,8 -1.76,14.62 -9.88,19.2l-84 47.36c-4.52,2.55 -9.89,2.22 -13.97,-0.4l-0.02 0.03zm-19.39 -52.57c7.11,9.53 17.92,18.49 27.4,25.19l67.14 -37.85c-3.16,-2.02 -7.05,-4.11 -11.48,-6.15 -25.17,-11.59 -64.44,-20.47 -82.68,-6.85 -2.52,1.88 -4.29,3.69 -5.41,5.43 -1.57,2.45 -1.91,5.08 -1.37,7.74 0.77,3.83 3.13,8.11 6.4,12.49z"/>
   <polygon class="fil0" points="1268.16,726.67 1105.15,635.64 1134.03,694.2 1306.27,798.65 "/>
   <path class="fil1" d="M1258.02 736.55l-121.38 -67.78 7.85 15.91 126.76 76.87 -13.23 -25zm-146.28 -112.78l162.51 90.75c2.46,1.23 4.56,3.2 5.94,5.82l38.1 71.98 -0.02 0.01c2.13,4.07 2.15,9.12 -0.4,13.34 -3.88,6.41 -12.22,8.46 -18.63,4.58l-171.5 -104.01c-2.47,-1.28 -4.57,-3.34 -5.9,-6.03l-28.88 -58.56 0.01 -0.01c-1.9,-3.86 -1.94,-8.56 0.31,-12.6 3.64,-6.56 11.91,-8.91 18.46,-5.27z"/>
   <polygon class="fil0" points="1306.27,798.65 2080.16,321.2 2039.82,254.57 1268.16,726.67 "/>
   <path class="fil1" d="M1311.49 779.48l750.1 -462.77 -26.3 -43.44 -749.14 458.32 25.34 47.89zm775.8 -446.74l-773.26 477.06c-0.46,0.32 -0.93,0.61 -1.43,0.87 -6.64,3.5 -14.86,0.95 -18.36,-5.69l-38.11 -71.98c-3.32,-6.3 -1.21,-14.17 4.95,-17.93l771.66 -472.1 0.02 0.02 0.04 -0.02c6.4,-3.88 14.74,-1.83 18.62,4.57l40.29 66.53c3.94,6.37 1.96,14.74 -4.42,18.67z"/>
   <polygon class="fil0" points="1268.16,726.67 1105.15,635.64 1822.77,209.15 2039.82,254.57 "/>
   <path class="fil1" d="M1261.01 738.23l-162.46 -90.73c-6.55,-3.64 -8.91,-11.91 -5.27,-18.46 1.22,-2.19 2.95,-3.91 4.96,-5.09l-0.01 -0.02 717.63 -426.48c3.19,-1.89 6.85,-2.32 10.19,-1.49l216.54 45.3c7.34,1.53 12.06,8.73 10.53,16.07 -0.79,3.83 -3.13,6.95 -6.22,8.84l-771.66 472.1c-4.52,2.75 -10.01,2.56 -14.23,-0.04zm-128.65 -102.95l135.48 75.66 735.67 -450.09 -178.33 -37.31 -692.82 411.74z"/>
   <path class="fil2" d="M1230.53 667.55c-8.43,0 -15.27,-5.11 -15.27,-11.4 0,-6.29 6.84,-11.39 15.27,-11.39 8.44,0 15.28,5.1 15.28,11.39 0,6.29 -6.84,11.4 -15.28,11.4z"/>
   <path class="fil0" d="M2002.07 605.61c-123.98,1.35 -188.7,-26.69 -251.48,-15.04 -103.74,19.25 -203.73,38.64 -214.66,-27.11 -3.66,-22.04 30.95,-56.22 104.4,-64.49 207.68,-23.37 258.79,-180.35 421.85,-171.67 94.09,5.02 154.67,-52.58 174.74,-51.8 33.65,1.32 142.43,220.15 133.88,251.87 -1.8,6.67 -10.55,10.18 -21.35,12.67 -70.29,16.22 -146.36,66.71 -207.24,104.46 -47.09,29.21 -156.45,126.79 -227.22,121.54 -78.88,-5.84 -139.63,-32.47 -235.81,-37.8 -89.64,-4.97 -157.1,0.61 -215.72,-26.57 41.14,-25.38 95.57,-58.97 125.01,-77.12 56.66,-2.57 84.9,8.62 142.22,11.25 101.13,4.65 164.53,-36.13 164.98,-36.08 33.33,3.31 100.07,8.45 106.4,5.89z"/>
   <path class="fil1" d="M1959.58 618.52c-22.37,-0.94 -42.58,-2.73 -61.13,-4.81 -15.87,8.75 -77.81,39.82 -168.34,35.66 -24.48,-1.12 -43.56,-3.73 -61.72,-6.21 -23.67,-3.24 -45.74,-6.25 -75.84,-5.19l-98.45 60.74c36.69,10.97 78.17,12.21 126.9,13.68 18.85,0.56 38.73,1.16 58.93,2.28 53.14,2.94 95.21,12.13 135.36,20.9 33.39,7.29 65.42,14.29 100.66,16.9 49.29,3.65 123.8,-50.96 176.28,-89.43 16.64,-12.2 31.15,-22.83 42.85,-30.08l17.8 -11.14c58.38,-36.5 127.7,-79.84 193.53,-95.03 4.33,-1 8.1,-2.12 10.65,-3.49 0.54,-0.29 0.4,1.29 0.6,0.56l0.03 -0.37c0.7,-17.96 -22.97,-74.88 -51,-129 -27.2,-52.5 -57.27,-101.01 -70.8,-105.39 -3.13,0.41 -11.7,4.98 -23.16,11.11 -32.04,17.12 -82.91,44.3 -151.24,40.66 -77.05,-4.1 -128.84,31.89 -186.11,71.69 -60.36,41.94 -126.47,87.88 -233.56,99.93 -4.53,0.51 -8.78,1.1 -12.77,1.76 -29.23,4.86 -50.52,14.1 -64.09,24.4 -11.07,8.41 -16.3,16.56 -15.65,22.32l0.03 0.31c7.02,42.22 69.65,38.13 144.13,25.75 16.89,-2.81 33.83,-5.95 50.9,-9.12l3.77 -0.7c34.32,-6.37 67.96,-1.78 110.06,3.97 12.25,1.67 25.25,3.44 39.2,5.06 17.08,1.69 42.89,3.86 64.79,5.21 12.24,0.5 25.12,0.73 38.71,0.6 5.79,-0.5 11.48,2.78 13.78,8.45 2.82,6.97 -0.54,14.9 -7.5,17.72 -4.71,1.91 -20.26,1.85 -39.25,0.8 -2.7,-0.16 -5.49,-0.32 -8.35,-0.5zm-113.75 -11.61c-35.72,-4.82 -64.99,-8.15 -92.79,-2.99l-3.77 0.7c-17.57,3.26 -35.02,6.5 -51.44,9.23 -6.8,1.13 -13.52,2.19 -20.14,3.15 15.95,2.16 32.92,4.28 53.59,5.23 48.22,2.22 87.34,-6.25 114.55,-15.32zm-272.93 11.3c-26.98,-6.85 -45.37,-22.57 -50.37,-52.52l-0.01 0c-0.1,-0.61 -0.18,-1.19 -0.24,-1.74 -1.67,-14.87 7.04,-32.29 26.29,-46.91 16.75,-12.71 42.17,-23.97 76.12,-29.61 4.68,-0.77 9.4,-1.44 14.15,-1.97 100.14,-11.27 163.32,-55.17 221,-95.25 61.27,-42.57 116.67,-81.07 203.03,-76.47 60.89,3.24 107.64,-21.74 137.08,-37.48 15.91,-8.49 27.55,-14.72 37.5,-14.33l0.37 0.02c1.66,0.09 3.23,0.35 4.72,0.75 21.4,5.76 57.93,60.69 88.31,119.34 29.79,57.51 54.86,119.99 53.98,142.51 -0.09,2.36 -0.39,4.48 -0.88,6.33 -2,7.41 -7.03,12.61 -14.01,16.37 -4.98,2.67 -10.99,4.54 -17.46,6.04 -61.31,14.14 -128.58,56.21 -185.24,91.63 -2.7,1.69 -4.71,2.95 -17.9,11.13 -10.32,6.4 -24.63,16.89 -41.04,28.91 -55.84,40.93 -135.11,99.03 -194.27,94.65 -37.34,-2.76 -70.22,-9.95 -104.49,-17.43 -39.26,-8.58 -80.39,-17.56 -131.1,-20.37 -21.08,-1.17 -40.13,-1.74 -58.19,-2.28 -63.26,-1.9 -114.91,-3.46 -162.48,-25.51 -6.82,-3.15 -9.8,-11.23 -6.66,-18.04 1.29,-2.79 3.4,-4.94 5.91,-6.28l115.88 -71.49z"/>
   <path class="fil3" d="M1367.92 636.32c-6.57,-3.33 -13.17,-6.66 -19.74,-9.96l-19.98 -10.06c-2.51,-1.27 -3.52,-4.34 -2.25,-6.85 0.5,-0.99 1.28,-1.75 2.2,-2.22l49.8 -29.31c1.48,-0.87 3.2,-0.91 4.65,-0.26 14.12,6.29 28.23,12.57 42.34,18.87 2.56,1.15 3.72,4.16 2.57,6.73 -0.45,1.01 -1.2,1.81 -2.1,2.33l-52.56 30.63c-1.57,0.91 -3.43,0.88 -4.93,0.1zm-15.15 -19.07c5.78,2.91 11.57,5.83 17.35,8.76l41.6 -24.23 -30.87 -13.76 -39.71 23.37 11.63 5.86z"/>
   <path class="fil3" d="M1298.68 601.42c-13.21,-6.67 -26.42,-13.34 -39.65,-19.98 -2.51,-1.25 -3.53,-4.31 -2.28,-6.82 0.45,-0.9 1.14,-1.61 1.94,-2.09 7.64,-4.57 15.27,-9.12 22.86,-13.68l22.78 -13.69c1.47,-0.88 3.21,-0.93 4.67,-0.29 2.99,1.31 11.63,5.17 20,8.91l22.38 9.97c2.57,1.14 3.72,4.15 2.57,6.72 -0.44,1.01 -1.18,1.79 -2.06,2.31 -16.03,9.55 -32.08,19.06 -48.15,28.56 -1.61,0.95 -3.53,0.92 -5.06,0.08zm-7.16 -15.03l9.43 4.76c12.44,-7.36 24.87,-14.73 37.29,-22.11l-13.39 -5.97c-4.53,-2.02 -8.84,-3.94 -17.56,-7.8l-20.51 12.32 -14.9 8.92 1.69 0.84 17.95 9.04z"/>
   <path class="fil3" d="M1463.26 581.08c-14.72,-5.96 -29.44,-11.9 -44.17,-17.83 -2.61,-1.05 -3.88,-4.02 -2.83,-6.63 0.43,-1.08 1.2,-1.94 2.13,-2.49l50 -29.42c1.35,-0.78 2.91,-0.88 4.27,-0.4l0 -0.01 46.92 16.7c2.66,0.95 4.04,3.87 3.09,6.52 -0.45,1.29 -1.37,2.27 -2.5,2.84l-25.98 15.14 0 0.01 -26.27 15.32c-1.47,0.86 -3.21,0.9 -4.66,0.25zm-12.27 -15.96l13.95 5.63 24.11 -14.06c0,0.02 15.37,-8.95 16.78,-9.77 -11.44,-4.09 -22.9,-8.15 -34.34,-12.22 -13.01,7.65 -26.01,15.29 -39.01,22.95l18.51 7.47z"/>
   <path class="fil3" d="M1386.38 550.05l-44.41 -17.89c-2.61,-1.05 -3.88,-4.01 -2.84,-6.62 0.44,-1.07 1.19,-1.92 2.11,-2.47l45.58 -27.35c1.42,-0.86 3.09,-0.94 4.52,-0.38l46.76 16.64c2.65,0.95 4.04,3.87 3.09,6.53 -0.46,1.28 -1.38,2.27 -2.51,2.84 -6.28,3.74 -9.89,5.87 -13.55,8.04l-34.26 20.3c-1.41,0.84 -3.07,0.91 -4.49,0.35l0 0.01zm-10.74 -15.31l12.21 4.92c12.19,-7.25 24.39,-14.49 36.6,-21.72l-34.43 -12.24c-11.58,6.94 -23.17,13.88 -34.75,20.82l20.37 8.22z"/>
   <path class="fil3" d="M1443.31 582.93c2.59,1.09 3.8,4.07 2.71,6.66 -1.09,2.59 -4.07,3.8 -6.66,2.71l-28.04 -11.88c-2.59,-1.09 -3.81,-4.07 -2.72,-6.66 1.09,-2.59 4.08,-3.81 6.67,-2.72l28.04 11.89z"/>
   <path class="fil3" d="M1400.49 564.79c2.59,1.09 3.8,4.07 2.71,6.66 -1.09,2.59 -4.07,3.81 -6.66,2.71l-70.22 -29.76c-2.59,-1.09 -3.81,-4.08 -2.72,-6.67 1.09,-2.59 4.08,-3.8 6.67,-2.71l70.22 29.77z"/>
   <path class="fil3" d="M1447.98 520.35c2.42,-1.43 5.55,-0.62 6.98,1.8 1.43,2.42 0.63,5.55 -1.8,6.98l-45.43 26.84c-2.43,1.43 -5.56,0.62 -6.99,-1.8 -1.43,-2.42 -0.63,-5.55 1.8,-6.98l45.44 -26.84z"/>
   <path class="fil3" d="M1322.02 606.55c-2.43,1.42 -5.55,0.6 -6.97,-1.82 -1.42,-2.42 -0.61,-5.54 1.82,-6.96 5.3,-3.11 13.61,-8.03 21.92,-12.95l0.2 -0.12c2.42,-1.43 5.55,-0.63 6.98,1.8 1.43,2.42 0.63,5.55 -1.79,6.98l-0.2 0.12c-6.29,3.72 -12.58,7.45 -21.96,12.95z"/>
   <path class="fil3" d="M1361.45 571.45c2.44,-1.4 5.56,-0.55 6.96,1.89 1.4,2.45 0.55,5.57 -1.9,6.97l-3.84 2.25c-2.42,1.43 -5.55,0.63 -6.98,-1.8 -1.43,-2.42 -0.63,-5.55 1.8,-6.98l3.96 -2.33z"/>
   <path class="fil2" d="M1376.8 615.83c-6.59,1.19 -11.94,-1.83 -11.94,-6.76 0,-4.92 5.35,-9.87 11.94,-11.06 6.6,-1.19 11.95,1.83 11.95,6.75 0,4.93 -5.35,9.88 -11.95,11.07z"/>
   <path class="fil2" d="M1304.09 582.41c-6.6,1.19 -11.94,-1.83 -11.94,-6.75 0,-4.93 5.34,-9.88 11.94,-11.07 6.6,-1.19 11.95,1.83 11.95,6.76 0,4.92 -5.35,9.87 -11.95,11.06z"/>
   <path class="fil2" d="M1468.35 561.96c-6.59,1.19 -11.94,-1.84 -11.94,-6.76 0,-4.92 5.35,-9.88 11.94,-11.07 6.6,-1.19 11.95,1.84 11.95,6.76 0,4.92 -5.35,9.88 -11.95,11.07z"/>
   <path class="fil2" d="M1388.96 531.78c-6.6,1.19 -11.95,-1.84 -11.95,-6.76 0,-4.92 5.35,-9.88 11.95,-11.07 6.6,-1.19 11.95,1.84 11.95,6.76 0,4.92 -5.35,9.88 -11.95,11.07z"/>
  </g>
  <path class="fil4" d="M1172.36 156.32c-0.88,11.13 -9.42,15.84 -24.22,13.35l94.68 415.56 123.82 65.25 170.69 -104.42 -364.97 -389.74z"/>
  <path class="fil5" d="M1209.83 654.07c0.88,-11.13 9.41,-15.84 24.21,-13.35l-94.68 -415.56 -123.82 -65.25 -170.68 104.42 364.97 389.74z"/>
  <path class="fil3" d="M280.26 806.78l0 -54.97 -19.2 0 0 -11.26 1.24 0c7,0 12.1,-1.1 15.3,-3.26 3.2,-2.17 5.08,-5.81 5.65,-10.89l12.88 0 0 80.38 -15.87 0zm57.13 -39.08c0,9.78 0.98,16.89 2.95,21.29 1.96,4.43 5.08,6.64 9.4,6.64 4.29,0 7.43,-2.23 9.41,-6.69 1.97,-4.45 2.97,-11.54 2.97,-21.24 0,-9.71 -1,-16.81 -2.97,-21.21 -1.98,-4.43 -5.12,-6.64 -9.41,-6.64 -4.32,0 -7.44,2.21 -9.4,6.6 -1.97,4.41 -2.95,11.5 -2.95,21.25zm-16.67 0c0,-13.8 2.4,-24.13 7.21,-31.01 4.81,-6.86 12.07,-10.29 21.81,-10.29 9.67,0 16.94,3.45 21.79,10.35 4.84,6.92 7.26,17.27 7.26,31.07 0,13.81 -2.4,24.13 -7.21,30.93 -4.81,6.8 -12.09,10.21 -21.84,10.21 -9.74,0 -17,-3.43 -21.81,-10.27 -4.81,-6.84 -7.21,-17.17 -7.21,-30.99zm65.07 16.2l0 -15.41 31.5 0 0 15.41 -31.5 0zm37.6 22.88c0.07,-7.19 1.61,-13.28 4.62,-18.28 2.99,-4.99 8.31,-10.05 15.96,-15.18 1.15,-0.79 2.84,-1.88 5.06,-3.26 10.12,-6.48 15.18,-12.71 15.18,-18.69 0,-3.56 -1.08,-6.36 -3.2,-8.43 -2.15,-2.05 -5.06,-3.09 -8.76,-3.09 -4.04,0 -7.17,1.27 -9.35,3.8 -2.21,2.53 -3.3,6.13 -3.3,10.83l0 0.67 -14.83 0c0,-9.22 2.47,-16.31 7.41,-21.27 4.95,-4.99 11.98,-7.48 21.12,-7.48 8.26,0 14.88,2.26 19.82,6.77 4.94,4.5 7.42,10.5 7.42,17.99 0,5.35 -1.29,9.99 -3.87,13.92 -2.59,3.93 -7.59,8.41 -14.99,13.41 -1.57,1.09 -3.76,2.51 -6.52,4.28 -7.03,4.52 -11.02,7.97 -11.9,10.32l36.49 0 0 13.69 -56.36 0zm82.77 -39.08c0,9.78 0.98,16.89 2.95,21.29 1.96,4.43 5.08,6.64 9.39,6.64 4.3,0 7.44,-2.23 9.41,-6.69 1.98,-4.45 2.97,-11.54 2.97,-21.24 0,-9.71 -0.99,-16.81 -2.97,-21.21 -1.97,-4.43 -5.11,-6.64 -9.41,-6.64 -4.31,0 -7.43,2.21 -9.39,6.6 -1.97,4.41 -2.95,11.5 -2.95,21.25zm-16.67 0c0,-13.8 2.39,-24.13 7.2,-31.01 4.81,-6.86 12.08,-10.29 21.81,-10.29 9.68,0 16.95,3.45 21.79,10.35 4.85,6.92 7.27,17.27 7.27,31.07 0,13.81 -2.4,24.13 -7.21,30.93 -4.81,6.8 -12.09,10.21 -21.85,10.21 -9.73,0 -17,-3.43 -21.81,-10.27 -4.81,-6.84 -7.2,-17.17 -7.2,-30.99zm138.33 16.08l16.1 0c-0.67,7.74 -3.51,13.86 -8.49,18.34 -4.96,4.49 -11.38,6.73 -19.2,6.73 -8.88,0 -15.83,-2.9 -20.87,-8.68 -5.04,-5.79 -7.55,-13.78 -7.55,-24.02 0,-10.17 2.56,-18.15 7.72,-23.93 5.15,-5.79 12.23,-8.69 21.25,-8.69 7.92,0 14.24,2.09 19.01,6.29 4.78,4.2 7.46,10.02 8.02,17.52l-16.22 0c-0.44,-3.24 -1.59,-5.71 -3.43,-7.44 -1.84,-1.71 -4.25,-2.57 -7.24,-2.57 -4.07,0 -7.07,1.59 -9.09,4.78 -2.01,3.18 -3.01,7.95 -3.01,14.31 0,5.87 1.04,10.39 3.13,13.55 2.07,3.16 5.06,4.73 8.97,4.73 3.02,0 5.46,-0.91 7.3,-2.74 1.84,-1.84 3.05,-4.56 3.6,-8.18zm26.43 23l0 -61.06 15.49 0 0 6.75c2.28,-2.8 4.83,-4.93 7.64,-6.35 2.8,-1.42 5.92,-2.12 9.34,-2.12 3.85,0 7.15,0.72 9.89,2.16 2.72,1.44 5.11,3.7 7.12,6.8 2.13,-2.99 4.66,-5.23 7.59,-6.72 2.92,-1.5 6.18,-2.24 9.76,-2.24 6.13,0 11,1.8 14.6,5.38 3.59,3.6 5.39,8.49 5.39,14.72l0 42.68 -16.1 0 0 -39.33c0,-2.95 -0.81,-5.25 -2.4,-6.88 -1.59,-1.63 -3.79,-2.43 -6.65,-2.43 -3.18,0 -5.71,1.03 -7.57,3.12 -1.87,2.07 -2.81,4.91 -2.81,8.51l0 37.01 -15.99 0 0 -39.21c0,-2.99 -0.78,-5.31 -2.34,-6.96 -1.55,-1.65 -3.71,-2.47 -6.53,-2.47 -3.18,0 -5.69,1.05 -7.55,3.14 -1.86,2.11 -2.78,4.97 -2.78,8.61l0 36.89 -16.1 0z"/>
  <path class="fil3" d="M637.48 646.84c-3.28,-1.65 -4.59,-5.65 -2.94,-8.92 1.65,-3.28 5.64,-4.59 8.92,-2.94l191.6 97.19c3.27,1.65 4.59,5.64 2.94,8.92 -1.65,3.27 -5.65,4.59 -8.92,2.94l-191.6 -97.19z"/>
  <path class="fil3" d="M645.44 670.2c-0.2,3.66 -3.34,6.47 -7,6.27 -3.66,-0.2 -6.47,-3.34 -6.27,-7l1.66 -28.93c0.18,-3.27 2.71,-5.86 5.86,-6.23l40 -4.79c3.65,-0.43 6.96,2.18 7.39,5.83 0.43,3.64 -2.18,6.95 -5.83,7.38l-34.47 4.12 -1.34 23.35z"/>
  <path class="fil3" d="M827.09 708.81c0.2,-3.66 3.34,-6.47 7,-6.27 3.66,0.2 6.47,3.33 6.27,7l-1.66 28.92c-0.18,3.28 -2.71,5.87 -5.86,6.23l-40 4.8c-3.65,0.43 -6.95,-2.18 -7.39,-5.83 -0.43,-3.65 2.18,-6.96 5.83,-7.39l34.48 -4.12 1.33 -23.34z"/>
 </g>
</svg>
