<svg viewBox="0 0 36 34" fill="none" xmlns="http://www.w3.org/2000/svg">
    <path d="M30.6883 15.3676C31.1391 15.5702 31.6593 15.6674 32.2402 15.6674C33.1938 15.6674 33.9828 15.4 34.5897 14.8654C35.1966 14.3307 35.5 13.6583 35.5 12.8482V9.31618H33.0464V12.8482C33.0464 13.067 32.9684 13.2533 32.8037 13.4072C32.639 13.5611 32.4569 13.6421 32.2402 13.6421C32.0234 13.6421 31.8413 13.5611 31.6766 13.4072C31.5119 13.2533 31.4339 13.067 31.4339 12.8482V9.31618H28.9803V11.1065L27.5931 11.3009L22.5473 8.02001L20.796 5.67882C20.9607 5.5573 21.0648 5.46819 21.1081 5.41149C21.1601 5.35478 21.2035 5.31427 21.2295 5.27377L19.7643 3.87229L19.5909 4.02621C19.4869 4.12342 19.3135 4.22873 19.0794 4.33405C18.8453 4.43936 18.6026 4.48797 18.3425 4.48797C17.9436 4.48797 17.6142 4.36645 17.3368 4.12342C17.0593 3.88039 16.9293 3.58875 16.9293 3.25661C16.9293 2.92447 17.068 2.63283 17.3368 2.3898C17.6142 2.14677 17.9436 2.02526 18.3425 2.02526C18.5939 2.02526 18.8453 2.08196 19.0881 2.19538C19.3308 2.30879 19.4955 2.406 19.5736 2.47081C19.6516 2.54372 19.7123 2.60043 19.7556 2.64093L21.2208 1.23136L21.1081 1.10984C21.0301 1.02073 20.9087 0.923517 20.744 0.802002C20.5706 0.680486 20.3799 0.558971 20.1544 0.437455C19.9377 0.31594 19.6516 0.210627 19.3135 0.129616C18.9754 0.0405051 18.6199 0 18.2471 0C17.172 0 16.279 0.324041 15.5508 0.964022C14.8312 1.604 14.4671 2.3736 14.4671 3.26471C14.4671 3.99381 14.7098 4.64189 15.1953 5.20086L13.3747 7.79319L8.12943 11.39L6.26542 11.0822C6.25675 10.6447 6.03133 10.2721 5.59784 9.95616C5.14702 9.64022 4.52279 9.4782 3.7165 9.4782H0.5V15.6512H3.89856C4.54013 15.6512 5.06899 15.554 5.49381 15.3676L6.74226 17.2309L5.90129 18.4217H4.55747V21.9538C4.55747 22.1725 4.47944 22.3588 4.31471 22.5127C4.14999 22.6667 3.96792 22.7477 3.75118 22.7477C3.53443 22.7477 3.35237 22.6667 3.18764 22.5127C3.02291 22.3588 2.94488 22.1725 2.94488 21.9538V18.4217H0.5V21.9538C0.5 22.7558 0.803443 23.4282 1.41033 23.9709C2.01722 24.5056 2.7975 24.781 3.75985 24.781C4.71352 24.781 5.50248 24.5137 6.10936 23.979C6.6729 23.4849 6.96767 22.8773 7.01102 22.1482L13.0539 26.6281L14.9266 29.4148V29.9414H16.6258V34H19.0794V29.9414H20.7787V29.5444L22.8421 26.5876L29.2577 22.1077V24.781H31.7113V23.1932H32.5176C33.3325 23.1932 33.9828 22.9826 34.4683 22.5533C34.9625 22.1239 35.2052 21.573 35.2052 20.9006C35.2052 20.2283 34.9625 19.6774 34.4683 19.248C33.9741 18.8187 33.3239 18.6081 32.5176 18.6081H30.4628L29.4051 17.1985L30.6883 15.3676ZM31.72 20.5442H32.3355C32.4482 20.5442 32.5523 20.5847 32.6303 20.6576C32.717 20.7305 32.7603 20.8115 32.7603 20.9006C32.7603 20.9898 32.717 21.0708 32.6303 21.1437C32.5436 21.2166 32.4482 21.2571 32.3355 21.2571H31.72V20.5442ZM29.3011 17.0446L28.3908 15.8294L29.8126 14.7844C29.8386 14.8087 29.8646 14.833 29.8906 14.8573C30.0814 15.0274 30.2981 15.1732 30.5235 15.2866L29.3011 17.0446ZM29.2664 20.6333L27.2117 20.3336L28.1653 18.9645L29.2577 19.4911V20.6333H29.2664ZM27.0209 20.3093L23.0848 19.7341L25.7205 17.7899L28.0093 18.8916L27.0209 20.3093ZM19.0794 19.3209L22.66 19.8394L19.0794 22.4722V19.3209ZM19.0794 19.1508V18.6H16.6258V19.2642L13.0972 19.7665L10.4529 17.7331L14.5364 15.6674H16.9119V14.2092L17.3368 13.6826L18.5592 15.6674H21.2468L21.2295 15.6431L25.5384 17.7169L22.8334 19.7098L19.0794 19.1508ZM16.6258 22.4803L13.2793 19.9042L16.6258 19.4263V22.4803ZM7.01102 19.4749L7.93002 19.0131L8.84902 20.3822L7.01102 20.6414V19.4749ZM8.08608 18.9321L10.2882 17.8142L12.8631 19.7989L9.03976 20.3417L8.08608 18.9321ZM6.44749 13.3019C6.36946 13.148 6.28276 13.0264 6.18739 12.9292L8.17278 11.5683L10.4616 11.9409L7.81731 15.6998L6.39547 14.6061C6.52551 14.3874 6.5862 14.1525 6.5862 13.8933C6.5862 13.6907 6.54285 13.4882 6.44749 13.3019ZM10.6437 11.9733L14.4584 12.5971V15.5216L10.3142 17.6197L7.95603 15.8051L10.6437 11.9733ZM10.1408 17.7007L7.99071 18.7863L6.94166 17.2309L7.85199 15.9347L10.1408 17.7007ZM29.6912 14.6629L28.2867 15.6917L25.3563 11.7708L27.5498 11.463L28.9803 12.3946V12.8401C28.9803 13.553 29.2231 14.1606 29.6912 14.6629ZM28.1567 15.797L25.7031 17.6035L21.0648 15.3757L19.3048 12.6214L25.1656 11.8032L28.1567 15.797ZM25.8765 17.6845L28.2607 15.9347L29.2057 17.1985L28.1133 18.762L25.8765 17.6845ZM28.9803 11.2685V12.2001L27.8012 11.4305L28.9803 11.2685ZM27.3417 11.3252L25.2436 11.6169L22.8334 8.40076L27.3417 11.3252ZM20.6573 5.77603L22.1312 7.74458L19.8077 6.23779C19.9377 6.18918 20.0591 6.14058 20.1544 6.09197C20.3365 5.99476 20.5012 5.88945 20.6573 5.77603ZM18.2558 6.51322C18.6286 6.51322 18.984 6.47272 19.3221 6.38361C19.4175 6.3593 19.5129 6.335 19.5996 6.3026L22.4173 8.13343L25.0442 11.6493L19.2008 12.4675L18.932 12.0462L21.0561 9.4863H18.4118L16.9033 11.3414V9.4863H14.4497V12.427L10.7477 11.8194L13.5047 7.8904L16.227 6.01906C16.8166 6.3512 17.4928 6.51322 18.2558 6.51322ZM15.3167 5.31427C15.3947 5.39528 15.4728 5.47629 15.5594 5.5492C15.7155 5.68692 15.8889 5.81654 16.0623 5.92995L13.7735 7.50155L15.3167 5.31427ZM13.1059 8.17393L10.557 11.7951L8.36351 11.4386L13.1059 8.17393ZM2.95355 11.1713H3.33503C3.44773 11.1713 3.5431 11.2037 3.61246 11.2604C3.68182 11.3171 3.7165 11.39 3.7165 11.4792C3.7165 11.5683 3.68182 11.6412 3.61246 11.6979C3.5431 11.7546 3.44773 11.787 3.33503 11.787H2.95355V11.1713ZM3.9159 13.8771C3.8292 13.95 3.73384 13.9905 3.62113 13.9905H2.96222V13.2857H3.62113C3.73384 13.2857 3.83787 13.3262 3.9159 13.3991C4.0026 13.472 4.04595 13.553 4.04595 13.6421C4.03728 13.7231 3.99393 13.8041 3.9159 13.8771ZM5.33775 12.3541C5.40711 12.3217 5.49381 12.2812 5.58918 12.2082C5.69321 12.1434 5.78858 12.0624 5.89262 11.9652C5.99666 11.8761 6.08335 11.7546 6.15271 11.6007C6.20473 11.4873 6.23941 11.3738 6.25675 11.2523L7.93002 11.5278L6.04867 12.8239C5.94464 12.7429 5.82326 12.67 5.69321 12.6052C5.53716 12.5242 5.42445 12.4756 5.36376 12.4513C5.30307 12.427 5.25105 12.4108 5.21637 12.4027L5.33775 12.3541ZM5.64986 15.3028C5.73656 15.2542 5.81459 15.2056 5.89262 15.157C6.06601 15.0355 6.20473 14.8978 6.30877 14.752L7.72195 15.8375L6.8463 17.077L5.64986 15.3028ZM6.83763 17.3848L7.83465 18.8673L7.01102 19.2885V18.4298H6.10936L6.83763 17.3848ZM7.01102 21.9376V20.8034L8.95306 20.528L12.7764 26.2149L7.01102 21.9376ZM13.4614 26.9278L14.9266 28.0133V29.107L13.4614 26.9278ZM14.9526 27.827L13.1839 26.5147L9.14379 20.4956L13.0539 19.9366L16.6085 22.6748L16.6258 22.6505V24.7729H19.0794V22.6748L22.8941 19.8637L26.9169 20.447L22.712 26.4741L20.7787 27.827H14.9526ZM20.7787 29.2447V28.0295L22.4346 26.8711L20.7787 29.2447ZM23.1282 26.1906L27.1076 20.4875L29.2664 20.8034V21.9052L23.1282 26.1906ZM30.2548 18.6H29.2664V19.3047L28.2694 18.8268L29.3098 17.3362L30.2548 18.6Z" fill="#241824"/>
</svg>
